#pragma bank 3
#include "hUGEDriver.h"

const unsigned char P76[] = {
    DN(___,0,0xE00),
    DN(___,0,0x000),
    DN(Fs5,7,0xC05),
    DN(___,0,0x000),
    DN(Fs5,7,0xC05),
    DN(___,0,0x000),
    DN(___,0,0x000),
    DN(___,0,0x000),
    DN(A_5,7,0xC05),
    DN(___,0,0x000),
    DN(A_5,7,0xC05),
    DN(___,0,0x000),
    DN(___,0,0x000),
    DN(___,0,0x000),
    DN(B_5,7,0xC05),
    DN(___,0,0x000),
    DN(B_5,7,0xC05),
    DN(___,0,0x000),
    DN(___,0,0x000),
    DN(___,0,0x000),
    DN(___,0,0x000),
    DN(G_5,7,0xC05),
    DN(___,0,0x000),
    DN(G_5,7,0xC05),
    DN(___,0,0x000),
    DN(___,0,0x000),
    DN(___,0,0x000),
    DN(E_5,7,0xC05),
    DN(___,0,0x000),
    DN(E_5,7,0xC05),
    DN(___,0,0x000),
    DN(___,0,0x000),
    DN(___,0,0x000),
    DN(G_5,7,0xC05),
    DN(___,0,0x000),
    DN(G_5,7,0xC05),
    DN(___,0,0x000),
    DN(___,0,0x000),
    DN(___,0,0x000),
    DN(A_5,7,0xC05),
    DN(___,0,0x000),
    DN(A_5,7,0xC05),
    DN(___,0,0x000),
    DN(___,0,0x000),
    DN(___,0,0x000),
    DN(___,0,0x000),
    DN(G_5,7,0xC05),
    DN(___,0,0x000),
    DN(G_5,7,0xC05),
    DN(___,0,0x000),
    DN(___,0,0x000),
    DN(___,0,0x000),
    DN(___,0,0x000),
    DN(___,0,0x000),
    DN(___,0,0x000),
    DN(___,0,0x000),
    DN(___,0,0x000),
    DN(___,0,0x000),
    DN(___,0,0x000),
    DN(___,0,0x000),
    DN(___,0,0x000),
    DN(___,0,0x000),
    DN(___,0,0x000),
    DN(___,0,0x000),
};
const unsigned char P77[] = {
    DN(A_5,7,0xC08),
    DN(B_5,7,0xC08),
    DN(A_5,7,0xC08),
    DN(Gs5,7,0xC08),
    DN(A_5,7,0xC08),
    DN(B_5,7,0xC08),
    DN(Cs6,7,0xC08),
    DN(D_6,7,0xC08),
    DN(E_6,7,0xC08),
    DN(___,0,0x000),
    DN(___,0,0x000),
    DN(Fs6,7,0xC08),
    DN(A_6,7,0xC08),
    DN(___,0,0x000),
    DN(___,0,0x000),
    DN(___,0,0x000),
    DN(G_6,7,0xC08),
    DN(A_6,7,0xC08),
    DN(G_6,7,0xC08),
    DN(B_5,7,0xC08),
    DN(___,0,0x000),
    DN(___,0,0x000),
    DN(___,0,0x000),
    DN(___,0,0x000),
    DN(___,0,0x000),
    DN(G_5,7,0xC08),
    DN(A_5,7,0xC08),
    DN(G_5,7,0xC08),
    DN(Fs5,7,0xC08),
    DN(G_5,7,0xC08),
    DN(A_5,7,0xC08),
    DN(B_5,7,0xC08),
    DN(Cs6,7,0xC08),
    DN(D_6,7,0xC08),
    DN(___,0,0x000),
    DN(___,0,0x000),
    DN(E_6,7,0xC08),
    DN(G_6,7,0xC08),
    DN(___,0,0x000),
    DN(___,0,0x000),
    DN(___,0,0x000),
    DN(Fs6,7,0xC08),
    DN(G_6,7,0xC08),
    DN(Fs6,7,0xC08),
    DN(A_5,7,0xC08),
    DN(___,0,0x000),
    DN(___,0,0x000),
    DN(___,0,0x000),
    DN(___,0,0x000),
    DN(___,0,0xD01),
    DN(___,0,0x000),
    DN(___,0,0x000),
    DN(___,0,0x000),
    DN(___,0,0x000),
    DN(___,0,0x000),
    DN(___,0,0x000),
    DN(___,0,0x000),
    DN(___,0,0x000),
    DN(___,0,0x000),
    DN(___,0,0x000),
    DN(___,0,0x000),
    DN(___,0,0x000),
    DN(___,0,0x000),
    DN(___,0,0x000),
};
const unsigned char P78[] = {
    DN(D_6,13,0xF0C),
    DN(___,0,0xC04),
    DN(D_6,13,0x000),
    DN(___,0,0xC04),
    DN(D_6,13,0x000),
    DN(___,0,0xC04),
    DN(A_5,13,0x000),
    DN(___,0,0xC04),
    DN(Fs6,13,0x000),
    DN(___,0,0xC04),
    DN(Fs6,13,0x000),
    DN(___,0,0xC04),
    DN(E_6,13,0x000),
    DN(___,0,0xC04),
    DN(G_6,13,0x000),
    DN(___,0,0xC04),
    DN(G_6,13,0xF08),
    DN(___,0,0x000),
    DN(___,0,0xC04),
    DN(G_5,13,0xF0C),
    DN(___,0,0xC04),
    DN(E_6,13,0x000),
    DN(___,0,0xC04),
    DN(E_6,13,0x000),
    DN(___,0,0xC04),
    DN(A_5,13,0x000),
    DN(___,0,0xC04),
    DN(Cs6,13,0x000),
    DN(___,0,0xC04),
    DN(Cs6,13,0x000),
    DN(___,0,0xC04),
    DN(A_5,13,0x000),
    DN(___,0,0xC04),
    DN(E_6,13,0x000),
    DN(___,0,0xC04),
    DN(E_6,13,0x000),
    DN(___,0,0xC04),
    DN(D_6,13,0x000),
    DN(___,0,0xC04),
    DN(Fs6,13,0x000),
    DN(___,0,0xC04),
    DN(Fs6,13,0xF08),
    DN(___,0,0x000),
    DN(___,0,0xC04),
    DN(A_5,13,0xF0C),
    DN(___,0,0xC04),
    DN(Cs6,13,0x000),
    DN(___,0,0xC04),
    DN(Cs6,13,0x000),
    DN(___,0,0xC04),
    DN(___,0,0x000),
    DN(___,0,0x000),
    DN(___,0,0x000),
    DN(___,0,0x000),
    DN(___,0,0x000),
    DN(___,0,0x000),
    DN(___,0,0x000),
    DN(___,0,0x000),
    DN(___,0,0x000),
    DN(___,0,0x000),
    DN(___,0,0x000),
    DN(___,0,0x000),
    DN(___,0,0x000),
    DN(___,0,0x000),
};
const unsigned char P79[] = {
    DN(C_8,1,0xE01),
    DN(___,0,0x8F7),
    DN(C_8,1,0xE02),
    DN(___,0,0x87F),
    DN(C_8,1,0xE02),
    DN(___,0,0x8F7),
    DN(C_8,1,0xE01),
    DN(___,0,0x87F),
    DN(C_8,1,0xE02),
    DN(___,0,0x8F7),
    DN(C_8,1,0xE02),
    DN(___,0,0x87F),
    DN(C_8,1,0xE01),
    DN(___,0,0x8F7),
    DN(C_8,1,0xE02),
    DN(___,0,0x87F),
    DN(C_8,1,0xE02),
    DN(___,0,0x000),
    DN(___,0,0x8F7),
    DN(C_8,1,0xE01),
    DN(___,0,0x87F),
    DN(C_8,1,0xE02),
    DN(___,0,0x8F7),
    DN(C_8,1,0xE02),
    DN(___,0,0x87F),
    DN(C_8,1,0xE01),
    DN(___,0,0x8F7),
    DN(C_8,1,0xE02),
    DN(___,0,0x87F),
    DN(C_8,1,0xE02),
    DN(___,0,0x8F7),
    DN(C_8,1,0xE01),
    DN(___,0,0x87F),
    DN(C_8,1,0xE02),
    DN(___,0,0x8F7),
    DN(C_8,1,0xE02),
    DN(___,0,0x87F),
    DN(C_8,1,0xE01),
    DN(___,0,0x8F7),
    DN(C_8,1,0xE02),
    DN(___,0,0x87F),
    DN(C_8,1,0xE02),
    DN(___,0,0x000),
    DN(___,0,0x8F7),
    DN(C_8,1,0xE01),
    DN(___,0,0x87F),
    DN(C_8,1,0xE02),
    DN(___,0,0x8F7),
    DN(C_8,1,0xE02),
    DN(___,0,0x87F),
    DN(___,0,0x000),
    DN(___,0,0x000),
    DN(___,0,0x000),
    DN(___,0,0x000),
    DN(___,0,0x000),
    DN(___,0,0x000),
    DN(___,0,0x000),
    DN(___,0,0x000),
    DN(___,0,0x000),
    DN(___,0,0x000),
    DN(___,0,0x000),
    DN(___,0,0x000),
    DN(___,0,0x000),
    DN(___,0,0x000),
};
const unsigned char P80[] = {
    DN(___,0,0x87F),
    DN(___,0,0x000),
    DN(Fs5,7,0xC05),
    DN(___,0,0x000),
    DN(Fs5,7,0xC05),
    DN(___,0,0x000),
    DN(___,0,0x000),
    DN(___,0,0x000),
    DN(A_5,7,0xC05),
    DN(___,0,0x000),
    DN(A_5,7,0xC05),
    DN(___,0,0x000),
    DN(___,0,0x000),
    DN(___,0,0x000),
    DN(B_5,7,0xC05),
    DN(___,0,0x000),
    DN(B_5,7,0xC05),
    DN(___,0,0x000),
    DN(___,0,0x000),
    DN(___,0,0x000),
    DN(___,0,0x000),
    DN(G_5,7,0xC05),
    DN(___,0,0x000),
    DN(G_5,7,0xC05),
    DN(___,0,0x000),
    DN(___,0,0x000),
    DN(___,0,0x000),
    DN(As5,7,0xC05),
    DN(___,0,0x000),
    DN(As5,7,0xC05),
    DN(___,0,0x000),
    DN(___,0,0x000),
    DN(___,0,0x000),
    DN(A_5,7,0xC05),
    DN(___,0,0x000),
    DN(A_5,7,0xC05),
    DN(___,0,0x000),
    DN(G_5,7,0xC05),
    DN(___,0,0x000),
    DN(G_5,7,0xC05),
    DN(___,0,0x000),
    DN(G_5,7,0xC05),
    DN(___,0,0x000),
    DN(___,0,0x000),
    DN(___,0,0x000),
    DN(G_5,7,0xC05),
    DN(___,0,0x000),
    DN(___,0,0x000),
    DN(___,0,0x000),
    DN(G_5,7,0xC05),
    DN(___,0,0x000),
    DN(___,0,0x000),
    DN(___,0,0x000),
    DN(___,0,0x000),
    DN(___,0,0x000),
    DN(___,0,0x000),
    DN(___,0,0x000),
    DN(___,0,0x000),
    DN(___,0,0x000),
    DN(___,0,0x000),
    DN(___,0,0x000),
    DN(___,0,0x000),
    DN(___,0,0x000),
    DN(___,0,0x000),
};
const unsigned char P81[] = {
    DN(A_5,7,0xC08),
    DN(B_5,7,0xC08),
    DN(A_5,7,0xC08),
    DN(Gs5,7,0xC08),
    DN(A_5,7,0xC08),
    DN(B_5,7,0xC08),
    DN(Cs6,7,0xC08),
    DN(D_6,7,0xC08),
    DN(E_6,7,0xC08),
    DN(___,0,0x000),
    DN(___,0,0x000),
    DN(Fs6,7,0xC08),
    DN(A_6,7,0xC08),
    DN(___,0,0x000),
    DN(___,0,0x000),
    DN(___,0,0x000),
    DN(G_6,7,0xC08),
    DN(A_6,7,0xC08),
    DN(G_6,7,0xC08),
    DN(B_5,7,0xC08),
    DN(___,0,0x000),
    DN(___,0,0x000),
    DN(___,0,0x000),
    DN(___,0,0x000),
    DN(___,0,0x000),
    DN(G_6,7,0xC08),
    DN(___,0,0x000),
    DN(Fs6,7,0xC08),
    DN(___,0,0x000),
    DN(___,0,0x000),
    DN(E_6,7,0xC08),
    DN(Fs6,7,0xC08),
    DN(___,0,0x000),
    DN(D_6,7,0xC08),
    DN(___,0,0x000),
    DN(___,0,0x000),
    DN(B_5,7,0xC08),
    DN(Cs6,7,0xC08),
    DN(___,0,0x000),
    DN(Cs6,7,0xC08),
    DN(___,0,0x000),
    DN(Cs6,7,0xC08),
    DN(___,0,0x000),
    DN(___,0,0x000),
    DN(___,0,0x000),
    DN(D_6,7,0xC08),
    DN(___,0,0x000),
    DN(___,0,0x000),
    DN(___,0,0x000),
    DN(E_6,7,0xC08),
    DN(___,0,0x000),
    DN(___,0,0x000),
    DN(___,0,0x000),
    DN(___,0,0x000),
    DN(___,0,0x000),
    DN(___,0,0x000),
    DN(___,0,0x000),
    DN(___,0,0x000),
    DN(___,0,0x000),
    DN(___,0,0x000),
    DN(___,0,0xD01),
    DN(___,0,0x000),
    DN(___,0,0x000),
    DN(___,0,0x000),
};
const unsigned char P82[] = {
    DN(D_6,13,0xF0C),
    DN(___,0,0xC04),
    DN(D_6,13,0x000),
    DN(___,0,0xC04),
    DN(D_6,13,0x000),
    DN(___,0,0xC04),
    DN(A_5,13,0x000),
    DN(___,0,0xC04),
    DN(Fs6,13,0x000),
    DN(___,0,0xC04),
    DN(Fs6,13,0x000),
    DN(___,0,0xC04),
    DN(E_6,13,0x000),
    DN(___,0,0xC04),
    DN(G_6,13,0x000),
    DN(___,0,0xC04),
    DN(G_6,13,0xF08),
    DN(___,0,0x000),
    DN(___,0,0xC04),
    DN(G_5,13,0xF0C),
    DN(___,0,0xC04),
    DN(E_6,13,0x000),
    DN(___,0,0xC04),
    DN(E_6,13,0x000),
    DN(___,0,0xC04),
    DN(As5,13,0x000),
    DN(___,0,0xC04),
    DN(D_6,13,0x000),
    DN(___,0,0xC04),
    DN(D_6,13,0x000),
    DN(___,0,0xC04),
    DN(A_5,13,0x000),
    DN(___,0,0xC04),
    DN(Fs6,13,0x000),
    DN(___,0,0xC04),
    DN(Fs6,13,0x000),
    DN(___,0,0xC04),
    DN(E_6,13,0xF06),
    DN(___,0,0xC04),
    DN(E_6,13,0x000),
    DN(___,0,0xC04),
    DN(E_6,13,0x000),
    DN(___,0,0x000),
    DN(___,0,0xC04),
    DN(___,0,0x000),
    DN(B_5,13,0x000),
    DN(___,0,0x000),
    DN(___,0,0x000),
    DN(___,0,0xC04),
    DN(Cs6,13,0x000),
    DN(___,0,0x000),
    DN(___,0,0x000),
    DN(___,0,0xC04),
    DN(B_5,13,0x000),
    DN(___,0,0x000),
    DN(___,0,0x000),
    DN(___,0,0x000),
    DN(___,0,0x000),
    DN(___,0,0xC04),
    DN(As5,13,0x000),
    DN(___,0,0xC04),
    DN(___,0,0x000),
    DN(___,0,0x000),
    DN(___,0,0x000),
};
const unsigned char P83[] = {
    DN(C_8,1,0xE01),
    DN(___,0,0x8F7),
    DN(C_8,1,0xE02),
    DN(___,0,0x87F),
    DN(C_8,1,0xE02),
    DN(___,0,0x8F7),
    DN(C_8,1,0xE01),
    DN(___,0,0x87F),
    DN(C_8,1,0xE02),
    DN(___,0,0x8F7),
    DN(C_8,1,0xE02),
    DN(___,0,0x87F),
    DN(C_8,1,0xE01),
    DN(___,0,0x8F7),
    DN(C_8,1,0xE02),
    DN(___,0,0x87F),
    DN(C_8,1,0xE02),
    DN(___,0,0x000),
    DN(___,0,0x8F7),
    DN(C_8,1,0xE01),
    DN(___,0,0x87F),
    DN(C_8,1,0xE02),
    DN(___,0,0x8F7),
    DN(C_8,1,0xE02),
    DN(___,0,0x87F),
    DN(C_8,1,0xE01),
    DN(___,0,0x8F7),
    DN(C_8,1,0xE02),
    DN(___,0,0x87F),
    DN(C_8,1,0xE02),
    DN(___,0,0x8F7),
    DN(C_8,1,0xE01),
    DN(___,0,0x87F),
    DN(C_8,1,0xE02),
    DN(___,0,0x8F7),
    DN(C_8,1,0xE02),
    DN(___,0,0x87F),
    DN(C_8,1,0xE01),
    DN(___,0,0x000),
    DN(___,0,0x000),
    DN(___,0,0x8F7),
    DN(C_8,1,0xE02),
    DN(___,0,0x000),
    DN(___,0,0x000),
    DN(___,0,0x87F),
    DN(C_8,1,0xE02),
    DN(___,0,0x000),
    DN(___,0,0x000),
    DN(___,0,0x8F7),
    DN(C_8,1,0xE01),
    DN(___,0,0x000),
    DN(___,0,0x000),
    DN(___,0,0x87F),
    DN(C_8,1,0xE02),
    DN(___,0,0x000),
    DN(___,0,0x000),
    DN(___,0,0x8F7),
    DN(C_8,1,0xE02),
    DN(___,0,0x000),
    DN(___,0,0x000),
    DN(___,0,0x87F),
    DN(___,0,0x000),
    DN(___,0,0x000),
    DN(___,0,0x000),
};
const unsigned char P84[] = {
    DN(___,0,0x87F),
    DN(___,0,0x000),
    DN(Fs5,7,0xC03),
    DN(___,0,0x000),
    DN(Fs5,7,0xC03),
    DN(___,0,0x000),
    DN(___,0,0x000),
    DN(___,0,0x000),
    DN(A_5,7,0xC03),
    DN(___,0,0x000),
    DN(A_5,7,0xC03),
    DN(___,0,0x000),
    DN(___,0,0x000),
    DN(___,0,0x000),
    DN(B_5,7,0xC03),
    DN(___,0,0x000),
    DN(B_5,7,0xC03),
    DN(___,0,0x000),
    DN(___,0,0x000),
    DN(___,0,0x000),
    DN(___,0,0x000),
    DN(G_5,7,0xC03),
    DN(___,0,0x000),
    DN(G_5,7,0xC03),
    DN(___,0,0x000),
    DN(___,0,0x000),
    DN(___,0,0x000),
    DN(E_5,7,0xC03),
    DN(___,0,0x000),
    DN(E_5,7,0xC03),
    DN(___,0,0x000),
    DN(___,0,0x000),
    DN(___,0,0x000),
    DN(G_5,7,0xC03),
    DN(___,0,0x000),
    DN(G_5,7,0xC03),
    DN(___,0,0x000),
    DN(___,0,0x000),
    DN(___,0,0x000),
    DN(A_5,7,0xC03),
    DN(___,0,0x000),
    DN(A_5,7,0xC03),
    DN(___,0,0x000),
    DN(___,0,0x000),
    DN(___,0,0x000),
    DN(___,0,0x000),
    DN(G_5,7,0xC03),
    DN(___,0,0x000),
    DN(G_5,7,0xC03),
    DN(___,0,0x000),
    DN(___,0,0x000),
    DN(___,0,0x000),
    DN(___,0,0x000),
    DN(___,0,0x000),
    DN(___,0,0x000),
    DN(___,0,0x000),
    DN(___,0,0x000),
    DN(___,0,0x000),
    DN(___,0,0x000),
    DN(___,0,0x000),
    DN(___,0,0x000),
    DN(___,0,0x000),
    DN(___,0,0x000),
    DN(___,0,0x000),
};
const unsigned char P85[] = {
    DN(A_5,7,0xC05),
    DN(B_5,7,0xC05),
    DN(A_5,7,0xC05),
    DN(Gs5,7,0xC05),
    DN(A_5,7,0xC05),
    DN(B_5,7,0xC05),
    DN(Cs6,7,0xC05),
    DN(D_6,7,0xC05),
    DN(E_6,7,0xC05),
    DN(___,0,0x000),
    DN(___,0,0x000),
    DN(Fs6,7,0xC05),
    DN(A_6,7,0xC05),
    DN(___,0,0x000),
    DN(___,0,0x000),
    DN(___,0,0x000),
    DN(G_6,7,0xC05),
    DN(A_6,7,0xC05),
    DN(G_6,7,0xC05),
    DN(B_5,7,0xC05),
    DN(___,0,0x000),
    DN(___,0,0x000),
    DN(___,0,0x000),
    DN(___,0,0x000),
    DN(___,0,0x000),
    DN(G_5,7,0xC05),
    DN(A_5,7,0xC05),
    DN(G_5,7,0xC05),
    DN(Fs5,7,0xC05),
    DN(G_5,7,0xC05),
    DN(A_5,7,0xC05),
    DN(B_5,7,0xC05),
    DN(Cs6,7,0xC05),
    DN(D_6,7,0xC05),
    DN(___,0,0x000),
    DN(___,0,0x000),
    DN(E_6,7,0xC05),
    DN(G_6,7,0xC05),
    DN(___,0,0x000),
    DN(___,0,0x000),
    DN(___,0,0x000),
    DN(Fs6,7,0xC05),
    DN(G_6,7,0xC05),
    DN(Fs6,7,0xC05),
    DN(A_5,7,0xC05),
    DN(___,0,0x000),
    DN(___,0,0x000),
    DN(___,0,0x000),
    DN(___,0,0x000),
    DN(___,0,0xD01),
    DN(___,0,0x000),
    DN(___,0,0x000),
    DN(___,0,0x000),
    DN(___,0,0x000),
    DN(___,0,0x000),
    DN(___,0,0x000),
    DN(___,0,0x000),
    DN(___,0,0x000),
    DN(___,0,0x000),
    DN(___,0,0x000),
    DN(___,0,0x000),
    DN(___,0,0x000),
    DN(___,0,0x000),
    DN(___,0,0x000),
};
const unsigned char P86[] = {
    DN(___,0,0x87F),
    DN(___,0,0x000),
    DN(Fs5,7,0xC05),
    DN(___,0,0x000),
    DN(Fs5,7,0xC05),
    DN(___,0,0x000),
    DN(___,0,0x000),
    DN(___,0,0x000),
    DN(A_5,7,0xC05),
    DN(___,0,0x000),
    DN(A_5,7,0xC05),
    DN(___,0,0x000),
    DN(___,0,0x000),
    DN(___,0,0x000),
    DN(B_5,7,0xC05),
    DN(___,0,0x000),
    DN(B_5,7,0xC05),
    DN(___,0,0x000),
    DN(___,0,0x000),
    DN(___,0,0x000),
    DN(___,0,0x000),
    DN(G_5,7,0xC05),
    DN(___,0,0x000),
    DN(G_5,7,0xC05),
    DN(___,0,0x000),
    DN(___,0,0x000),
    DN(___,0,0x000),
    DN(As5,7,0xC05),
    DN(___,0,0x000),
    DN(As5,7,0xC05),
    DN(___,0,0x000),
    DN(___,0,0x000),
    DN(___,0,0x000),
    DN(A_5,7,0xC05),
    DN(___,0,0x000),
    DN(A_5,7,0xC05),
    DN(___,0,0x000),
    DN(___,0,0x000),
    DN(___,0,0x000),
    DN(___,0,0x000),
    DN(___,0,0x000),
    DN(G_5,7,0xC05),
    DN(___,0,0x000),
    DN(___,0,0x000),
    DN(___,0,0x000),
    DN(E_5,7,0xC05),
    DN(___,0,0x000),
    DN(___,0,0x000),
    DN(___,0,0x000),
    DN(___,0,0x000),
    DN(___,0,0x000),
    DN(___,0,0x000),
    DN(___,0,0x000),
    DN(As5,7,0xC05),
    DN(___,0,0x000),
    DN(___,0,0x000),
    DN(___,0,0x000),
    DN(A_5,7,0xC05),
    DN(___,0,0x000),
    DN(___,0,0x000),
    DN(___,0,0x000),
    DN(___,0,0x000),
    DN(___,0,0x000),
    DN(___,0,0x000),
};
const unsigned char P87[] = {
    DN(A_5,7,0xC08),
    DN(B_5,7,0xC08),
    DN(A_5,7,0xC08),
    DN(Gs5,7,0xC08),
    DN(A_5,7,0xC08),
    DN(B_5,7,0xC08),
    DN(Cs6,7,0xC08),
    DN(D_6,7,0xC08),
    DN(E_6,7,0xC08),
    DN(___,0,0x000),
    DN(___,0,0x000),
    DN(Fs6,7,0xC08),
    DN(A_6,7,0xC08),
    DN(___,0,0x000),
    DN(___,0,0x000),
    DN(___,0,0x000),
    DN(G_6,7,0xC08),
    DN(A_6,7,0xC08),
    DN(G_6,7,0xC08),
    DN(B_5,7,0xC08),
    DN(___,0,0x000),
    DN(___,0,0x000),
    DN(___,0,0x000),
    DN(___,0,0x000),
    DN(___,0,0x000),
    DN(E_6,7,0xC08),
    DN(___,0,0x000),
    DN(G_6,7,0xC08),
    DN(___,0,0x000),
    DN(___,0,0x000),
    DN(Fs6,7,0xC08),
    DN(Fs6,7,0xC08),
    DN(___,0,0x000),
    DN(A_6,7,0xC08),
    DN(___,0,0x000),
    DN(___,0,0x000),
    DN(D_7,7,0xC08),
    DN(B_6,7,0xC08),
    DN(___,0,0x000),
    DN(B_6,7,0xC08),
    DN(___,0,0x000),
    DN(B_6,7,0xC08),
    DN(___,0,0x000),
    DN(___,0,0x000),
    DN(___,0,0x000),
    DN(Cs7,7,0xC08),
    DN(___,0,0x000),
    DN(___,0,0x000),
    DN(___,0,0x000),
    DN(D_7,7,0xC08),
    DN(___,0,0x000),
    DN(___,0,0x000),
    DN(___,0,0x000),
    DN(___,0,0x000),
    DN(___,0,0x000),
    DN(___,0,0x000),
    DN(___,0,0x000),
    DN(___,0,0x000),
    DN(___,0,0x000),
    DN(___,0,0x000),
    DN(___,0,0xB24),
    DN(___,0,0x000),
    DN(___,0,0x000),
    DN(___,0,0x000),
};
const unsigned char P88[] = {
    DN(D_6,13,0xF0C),
    DN(___,0,0xC04),
    DN(D_6,13,0x000),
    DN(___,0,0xC04),
    DN(D_6,13,0x000),
    DN(___,0,0xC04),
    DN(A_5,13,0x000),
    DN(___,0,0xC04),
    DN(Fs6,13,0x000),
    DN(___,0,0xC04),
    DN(Fs6,13,0x000),
    DN(___,0,0xC04),
    DN(E_6,13,0x000),
    DN(___,0,0xC04),
    DN(G_6,13,0x000),
    DN(___,0,0xC04),
    DN(G_6,13,0xF08),
    DN(___,0,0x000),
    DN(___,0,0xC04),
    DN(G_5,13,0xF0C),
    DN(___,0,0xC04),
    DN(E_6,13,0x000),
    DN(___,0,0xC04),
    DN(E_6,13,0x000),
    DN(___,0,0xC04),
    DN(As5,13,0x000),
    DN(___,0,0xC04),
    DN(D_6,13,0x000),
    DN(___,0,0xC04),
    DN(D_6,13,0x000),
    DN(___,0,0xC04),
    DN(A_5,13,0x000),
    DN(___,0,0xC04),
    DN(Fs6,13,0x000),
    DN(___,0,0xC04),
    DN(Fs6,13,0x000),
    DN(___,0,0xC04),
    DN(G_5,13,0xF06),
    DN(___,0,0x000),
    DN(___,0,0xC04),
    DN(___,0,0x000),
    DN(E_6,13,0x000),
    DN(___,0,0x000),
    DN(___,0,0xC04),
    DN(___,0,0x000),
    DN(A_5,13,0x000),
    DN(___,0,0x000),
    DN(___,0,0x000),
    DN(___,0,0xC04),
    DN(D_6,13,0x000),
    DN(___,0,0x000),
    DN(___,0,0xC04),
    DN(___,0,0x000),
    DN(G_6,13,0x000),
    DN(___,0,0x000),
    DN(___,0,0xC04),
    DN(___,0,0x000),
    DN(Fs6,13,0x000),
    DN(___,0,0x000),
    DN(___,0,0xC04),
    DN(___,0,0x000),
    DN(___,0,0x000),
    DN(___,0,0x000),
    DN(___,0,0x000),
};
const unsigned char P89[] = {
    DN(Cs4,6,0xC04),
    DN(___,0,0x000),
    DN(Cs5,6,0xC04),
    DN(___,0,0x000),
    DN(Cs4,6,0xC04),
    DN(___,0,0x000),
    DN(Cs5,6,0xC04),
    DN(___,0,0x000),
    DN(Cs4,6,0xC02),
    DN(___,0,0x000),
    DN(Cs5,6,0xC02),
    DN(___,0,0x000),
    DN(Cs4,6,0xC02),
    DN(___,0,0x000),
    DN(Cs5,6,0xC02),
    DN(___,0,0x000),
    DN(Cs4,6,0xC06),
    DN(___,0,0x000),
    DN(Gs5,12,0xC06),
    DN(E_5,12,0xC06),
    DN(Gs5,6,0xC06),
    DN(___,0,0x000),
    DN(Fs5,6,0xC06),
    DN(___,0,0x000),
    DN(Ds5,6,0xC06),
    DN(___,0,0x000),
    DN(E_5,6,0xC06),
    DN(___,0,0x000),
    DN(F_5,12,0xC06),
    DN(F_5,12,0xC06),
    DN(F_5,6,0xC06),
    DN(___,0,0x000),
    DN(Fs5,12,0xC06),
    DN(Fs5,12,0xC06),
    DN(Fs5,6,0xC06),
    DN(___,0,0x000),
    DN(Ds5,12,0xC06),
    DN(Ds5,12,0xC06),
    DN(Ds5,6,0xC06),
    DN(___,0,0x000),
    DN(E_5,12,0xC06),
    DN(E_5,12,0xC06),
    DN(Fs5,12,0xC06),
    DN(Fs5,12,0xC06),
    DN(E_5,6,0xC06),
    DN(___,0,0x000),
    DN(E_6,12,0xC06),
    DN(Ds6,12,0xC05),
    DN(Cs6,12,0xC04),
    DN(B_5,12,0xC03),
    DN(As5,2,0xC02),
    DN(___,0,0xE06),
    DN(Cs5,2,0xC02),
    DN(___,0,0xE06),
    DN(Cs6,2,0xC02),
    DN(___,0,0xE06),
    DN(C_6,2,0xC02),
    DN(___,0,0xE06),
    DN(C_6,2,0xC02),
    DN(___,0,0xE06),
    DN(Cs6,2,0xC02),
    DN(___,0,0xE06),
    DN(Cs6,12,0xC06),
    DN(Cs6,12,0xC06),
};
const unsigned char P90[] = {
    DN(Cs4,6,0xC06),
    DN(___,0,0x000),
    DN(E_5,6,0xC06),
    DN(___,0,0x000),
    DN(Cs4,6,0xC06),
    DN(___,0,0x000),
    DN(E_5,6,0xC06),
    DN(___,0,0x000),
    DN(Cs4,6,0xC06),
    DN(___,0,0x000),
    DN(E_5,6,0xC06),
    DN(___,0,0x000),
    DN(Cs4,6,0xC06),
    DN(___,0,0x000),
    DN(E_5,6,0xC06),
    DN(___,0,0x000),
    DN(___,0,0xE00),
    DN(___,0,0x000),
    DN(E_6,12,0xC06),
    DN(Cs6,12,0xC06),
    DN(E_6,6,0xC06),
    DN(___,0,0x000),
    DN(Ds6,6,0xC06),
    DN(___,0,0x000),
    DN(C_6,6,0xC06),
    DN(___,0,0x000),
    DN(Cs6,6,0xC06),
    DN(___,0,0x000),
    DN(B_5,12,0xC06),
    DN(B_5,12,0xC06),
    DN(B_5,6,0xC06),
    DN(___,0,0x000),
    DN(As5,12,0xC06),
    DN(As5,12,0xC06),
    DN(As5,6,0xC06),
    DN(___,0,0x000),
    DN(A_5,12,0xC06),
    DN(A_5,12,0xC06),
    DN(A_5,6,0xC06),
    DN(___,0,0x000),
    DN(Gs5,12,0xC06),
    DN(Cs6,12,0xC06),
    DN(A_5,12,0xC06),
    DN(Cs6,12,0xC06),
    DN(Gs5,6,0xC06),
    DN(___,0,0x000),
    DN(___,0,0x000),
    DN(___,0,0x000),
    DN(___,0,0x000),
    DN(___,0,0x000),
    DN(___,0,0x000),
    DN(___,0,0x000),
    DN(Cs6,11,0xC04),
    DN(As5,11,0xC04),
    DN(Cs6,11,0xC04),
    DN(___,0,0x000),
    DN(Ds6,11,0xC04),
    DN(Gs5,11,0xC04),
    DN(Ds6,11,0xC04),
    DN(___,0,0x000),
    DN(Gs5,6,0xC06),
    DN(___,0,0x000),
    DN(E_6,12,0xC06),
    DN(E_6,12,0xC06),
};
const unsigned char P91[] = {
    DN(Cs4,6,0xF0C),
    DN(___,0,0xE02),
    DN(Gs5,6,0x000),
    DN(___,0,0xE02),
    DN(Cs4,6,0x000),
    DN(___,0,0xE02),
    DN(Gs5,6,0x000),
    DN(___,0,0xE02),
    DN(Cs4,6,0x000),
    DN(___,0,0xE02),
    DN(Gs5,6,0x000),
    DN(___,0,0xE02),
    DN(Cs4,6,0x000),
    DN(___,0,0xE02),
    DN(Gs5,6,0x000),
    DN(___,0,0xE02),
    DN(Cs5,6,0x000),
    DN(___,0,0xE02),
    DN(Cs6,6,0x000),
    DN(___,0,0xE02),
    DN(Cs5,6,0x000),
    DN(___,0,0xE02),
    DN(As5,6,0x000),
    DN(___,0,0xE02),
    DN(Cs5,6,0x000),
    DN(___,0,0xE02),
    DN(G_5,6,0x000),
    DN(___,0,0xE02),
    DN(Cs5,6,0x000),
    DN(___,0,0xE02),
    DN(Cs6,6,0x000),
    DN(___,0,0xE02),
    DN(Cs5,6,0x000),
    DN(___,0,0xE02),
    DN(Cs6,6,0x000),
    DN(___,0,0xE02),
    DN(Cs5,6,0x000),
    DN(___,0,0xE02),
    DN(Cs6,6,0x000),
    DN(___,0,0xE02),
    DN(Cs5,6,0x000),
    DN(___,0,0xE02),
    DN(Cs5,6,0x000),
    DN(___,0,0xE02),
    DN(Cs5,6,0x000),
    DN(___,0,0xE02),
    DN(E_6,6,0x000),
    DN(Ds6,6,0x000),
    DN(Cs6,6,0x000),
    DN(B_5,6,0x000),
    DN(G_5,6,0x000),
    DN(___,0,0xE02),
    DN(As5,6,0x000),
    DN(___,0,0xE02),
    DN(Fs5,6,0x000),
    DN(___,0,0xE02),
    DN(Gs6,6,0x000),
    DN(___,0,0xE02),
    DN(E_5,6,0x000),
    DN(___,0,0xE02),
    DN(Gs6,6,0x000),
    DN(___,0,0xE02),
    DN(Ds5,6,0x000),
    DN(___,0,0xE02),
};
const unsigned char P92[] = {
    DN(___,0,0xE00),
    DN(___,0,0x8FF),
    DN(C_8,1,0xE01),
    DN(___,0,0x000),
    DN(___,0,0x000),
    DN(___,0,0x000),
    DN(C_8,1,0xE01),
    DN(___,0,0x000),
    DN(___,0,0x000),
    DN(___,0,0x000),
    DN(C_8,1,0xE01),
    DN(___,0,0x000),
    DN(___,0,0x000),
    DN(___,0,0x000),
    DN(C_8,1,0xE01),
    DN(___,0,0x000),
    DN(___,0,0x000),
    DN(___,0,0x000),
    DN(C_8,1,0xE01),
    DN(___,0,0x000),
    DN(___,0,0x000),
    DN(___,0,0x000),
    DN(C_8,1,0xE01),
    DN(___,0,0x000),
    DN(___,0,0x000),
    DN(___,0,0x000),
    DN(C_8,1,0xE01),
    DN(___,0,0x000),
    DN(___,0,0x000),
    DN(___,0,0x000),
    DN(C_8,1,0xE01),
    DN(___,0,0x000),
    DN(___,0,0x000),
    DN(___,0,0x000),
    DN(C_8,1,0xE01),
    DN(___,0,0x000),
    DN(___,0,0x000),
    DN(___,0,0x000),
    DN(C_8,1,0xE01),
    DN(___,0,0x000),
    DN(___,0,0x000),
    DN(___,0,0x000),
    DN(C_8,1,0xE01),
    DN(___,0,0x000),
    DN(C_8,1,0xE01),
    DN(___,0,0x000),
    DN(___,0,0xF06),
    DN(___,0,0x000),
    DN(___,0,0x000),
    DN(___,0,0x000),
    DN(___,0,0xF0C),
    DN(___,0,0x000),
    DN(C_8,1,0xE01),
    DN(___,0,0x000),
    DN(___,0,0x000),
    DN(___,0,0x000),
    DN(C_8,1,0xE01),
    DN(___,0,0x000),
    DN(___,0,0x000),
    DN(___,0,0x000),
    DN(C_8,1,0xE01),
    DN(___,0,0x000),
    DN(___,0,0x000),
    DN(___,0,0x000),
};
const unsigned char P93[] = {
    DN(Cs6,6,0xC06),
    DN(___,0,0x000),
    DN(B_5,12,0xC06),
    DN(B_5,12,0xC06),
    DN(B_5,6,0xC06),
    DN(___,0,0x000),
    DN(As5,12,0xC06),
    DN(As5,12,0xC06),
    DN(As5,6,0xC06),
    DN(___,0,0x000),
    DN(Gs5,12,0xC06),
    DN(Gs5,12,0xC06),
    DN(As5,12,0xC06),
    DN(As5,12,0xC06),
    DN(Gs5,6,0xC06),
    DN(___,0,0x000),
    DN(G_5,12,0xC02),
    DN(Gs5,12,0xC03),
    DN(As5,12,0xC04),
    DN(C_6,12,0xC05),
    DN(Cs6,6,0xC06),
    DN(___,0,0x000),
    DN(Gs5,12,0xC06),
    DN(E_5,12,0xC06),
    DN(Gs5,6,0xC06),
    DN(___,0,0x000),
    DN(Fs5,6,0xC06),
    DN(___,0,0x000),
    DN(Ds5,6,0xC06),
    DN(___,0,0x000),
    DN(E_5,6,0xC06),
    DN(___,0,0x000),
    DN(F_5,12,0xC06),
    DN(F_5,12,0xC06),
    DN(F_5,6,0xC06),
    DN(___,0,0x000),
    DN(Fs5,12,0xC06),
    DN(Fs5,12,0xC06),
    DN(Fs5,6,0xC06),
    DN(___,0,0x000),
    DN(Ds5,12,0xC06),
    DN(Ds5,12,0xC06),
    DN(Ds5,6,0xC06),
    DN(___,0,0x000),
    DN(E_5,12,0xC06),
    DN(E_5,12,0xC06),
    DN(Fs5,12,0xC06),
    DN(Fs5,12,0xC06),
    DN(E_5,6,0xC06),
    DN(___,0,0x000),
    DN(Cs6,12,0xC06),
    DN(B_5,12,0xC06),
    DN(As5,12,0xC06),
    DN(Gs5,12,0xC06),
    DN(G_5,6,0xC06),
    DN(___,0,0x000),
    DN(G_5,12,0xC06),
    DN(G_5,12,0xC06),
    DN(G_5,6,0xC06),
    DN(___,0,0x000),
    DN(Gs5,12,0xC06),
    DN(As5,12,0xC06),
    DN(Gs5,12,0xC06),
    DN(Fs5,12,0xC06),
};
const unsigned char P94[] = {
    DN(E_6,6,0xC06),
    DN(___,0,0x000),
    DN(Ds6,12,0xC06),
    DN(Ds6,12,0xC06),
    DN(Ds6,6,0xC06),
    DN(___,0,0x000),
    DN(Cs6,12,0xC06),
    DN(Cs6,12,0xC06),
    DN(Cs6,6,0xC06),
    DN(___,0,0x000),
    DN(C_6,12,0xC06),
    DN(Ds6,12,0xC06),
    DN(Cs6,12,0xC06),
    DN(Ds6,12,0xC06),
    DN(C_6,6,0xC06),
    DN(___,0,0x000),
    DN(___,0,0x000),
    DN(___,0,0x000),
    DN(___,0,0x000),
    DN(___,0,0x000),
    DN(___,0,0x000),
    DN(___,0,0x000),
    DN(E_6,12,0xC06),
    DN(Cs6,12,0xC06),
    DN(E_6,6,0xC06),
    DN(___,0,0x000),
    DN(Ds6,6,0xC06),
    DN(___,0,0x000),
    DN(C_6,6,0xC06),
    DN(___,0,0x000),
    DN(Cs6,6,0xC06),
    DN(___,0,0x000),
    DN(B_5,12,0xC06),
    DN(B_5,12,0xC06),
    DN(B_5,6,0xC06),
    DN(___,0,0x000),
    DN(As5,12,0xC06),
    DN(As5,12,0xC06),
    DN(As5,6,0xC06),
    DN(___,0,0x000),
    DN(A_5,12,0xC06),
    DN(A_5,12,0xC06),
    DN(A_5,6,0xC06),
    DN(___,0,0x000),
    DN(Gs5,12,0xC06),
    DN(Cs6,12,0xC06),
    DN(A_5,12,0xC06),
    DN(Cs6,12,0xC06),
    DN(Gs5,6,0xC06),
    DN(___,0,0x000),
    DN(___,0,0x000),
    DN(___,0,0x000),
    DN(___,0,0x000),
    DN(___,0,0x000),
    DN(___,0,0x000),
    DN(___,0,0x000),
    DN(Cs6,12,0xC06),
    DN(As5,12,0xC06),
    DN(Cs6,6,0xC06),
    DN(___,0,0x000),
    DN(C_6,6,0xC06),
    DN(___,0,0x000),
    DN(___,0,0x000),
    DN(___,0,0x000),
};
const unsigned char P95[] = {
    DN(As6,6,0xF0C),
    DN(___,0,0xE02),
    DN(Ds5,6,0x000),
    DN(___,0,0xE02),
    DN(Gs6,6,0x000),
    DN(___,0,0xE02),
    DN(Ds5,6,0x000),
    DN(___,0,0xE02),
    DN(G_6,6,0x000),
    DN(___,0,0xE02),
    DN(Gs5,6,0x000),
    DN(___,0,0xE02),
    DN(Gs5,6,0x000),
    DN(___,0,0xE02),
    DN(Gs5,6,0x000),
    DN(___,0,0xE02),
    DN(___,0,0x000),
    DN(___,0,0x000),
    DN(___,0,0x000),
    DN(___,0,0x000),
    DN(Cs5,6,0x000),
    DN(___,0,0xE02),
    DN(Cs6,6,0x000),
    DN(___,0,0xE02),
    DN(Cs5,6,0x000),
    DN(___,0,0xE02),
    DN(As6,6,0x000),
    DN(___,0,0xE02),
    DN(Cs5,6,0x000),
    DN(___,0,0xE02),
    DN(G_6,6,0x000),
    DN(___,0,0xE02),
    DN(Cs5,6,0x000),
    DN(___,0,0xE02),
    DN(Gs6,6,0x000),
    DN(___,0,0xE02),
    DN(Cs5,6,0x000),
    DN(___,0,0xE02),
    DN(Cs6,6,0x000),
    DN(___,0,0xE02),
    DN(Cs5,6,0x000),
    DN(___,0,0xE02),
    DN(A_6,6,0x000),
    DN(___,0,0xE02),
    DN(Cs5,6,0x000),
    DN(___,0,0xE02),
    DN(Cs5,6,0x000),
    DN(___,0,0xE02),
    DN(Cs5,6,0x000),
    DN(___,0,0xE02),
    DN(Cs6,6,0x000),
    DN(B_5,6,0x000),
    DN(As5,6,0x000),
    DN(Gs5,6,0x000),
    DN(Ds5,6,0x000),
    DN(___,0,0xE02),
    DN(As6,6,0x000),
    DN(___,0,0xE02),
    DN(As6,6,0x000),
    DN(___,0,0xE02),
    DN(Gs5,6,0x000),
    DN(___,0,0x000),
    DN(___,0,0xE02),
    DN(___,0,0x000),
};
const unsigned char P96[] = {
    DN(C_8,1,0xE01),
    DN(___,0,0x000),
    DN(___,0,0x000),
    DN(___,0,0x000),
    DN(C_8,1,0xE01),
    DN(___,0,0x000),
    DN(___,0,0x000),
    DN(___,0,0x000),
    DN(C_8,1,0xE01),
    DN(___,0,0x000),
    DN(___,0,0x000),
    DN(___,0,0x000),
    DN(C_8,1,0xE01),
    DN(___,0,0x000),
    DN(C_8,1,0xE01),
    DN(___,0,0x000),
    DN(___,0,0xF06),
    DN(___,0,0x000),
    DN(___,0,0x000),
    DN(___,0,0x000),
    DN(___,0,0xF0C),
    DN(___,0,0x000),
    DN(C_8,1,0xE01),
    DN(___,0,0x000),
    DN(___,0,0x000),
    DN(___,0,0x000),
    DN(C_8,1,0xE01),
    DN(___,0,0x000),
    DN(___,0,0x000),
    DN(___,0,0x000),
    DN(C_8,1,0xE01),
    DN(___,0,0x000),
    DN(___,0,0x000),
    DN(___,0,0x000),
    DN(C_8,1,0xE01),
    DN(___,0,0x000),
    DN(___,0,0x000),
    DN(___,0,0x000),
    DN(C_8,1,0xE01),
    DN(___,0,0x000),
    DN(___,0,0x000),
    DN(___,0,0x000),
    DN(C_8,1,0xE01),
    DN(___,0,0x000),
    DN(___,0,0x000),
    DN(___,0,0x000),
    DN(C_8,1,0xE01),
    DN(___,0,0x000),
    DN(C_8,1,0xE01),
    DN(___,0,0x000),
    DN(___,0,0xF06),
    DN(___,0,0x000),
    DN(___,0,0x000),
    DN(___,0,0x000),
    DN(___,0,0xF0C),
    DN(___,0,0x000),
    DN(C_8,1,0xE01),
    DN(___,0,0x000),
    DN(C_8,1,0xE01),
    DN(___,0,0x000),
    DN(___,0,0xF06),
    DN(___,0,0x000),
    DN(___,0,0x000),
    DN(___,0,0xD25),
};
const unsigned char P97[] = {
    DN(Gs6,12,0xC06),
    DN(Gs6,12,0xC06),
    DN(As6,12,0xC06),
    DN(As6,12,0xC06),
    DN(C_7,6,0xC06),
    DN(___,0,0x000),
    DN(Gs5,8,0xC06),
    DN(___,0,0x000),
    DN(___,0,0x000),
    DN(Cs7,12,0xC06),
    DN(Cs7,12,0xC06),
    DN(Ds7,12,0xC06),
    DN(Ds7,12,0xC06),
    DN(E_7,6,0xC06),
    DN(___,0,0x000),
    DN(Gs5,8,0xC06),
    DN(___,0,0x000),
    DN(___,0,0x000),
    DN(Ds7,12,0xC06),
    DN(Ds7,12,0xC06),
    DN(E_7,12,0xC06),
    DN(E_7,12,0xC06),
    DN(Fs7,6,0xC06),
    DN(___,0,0x000),
    DN(Gs5,8,0xC06),
    DN(___,0,0x000),
    DN(___,0,0x000),
    DN(E_7,12,0xC06),
    DN(E_7,12,0xC06),
    DN(Fs7,12,0xC06),
    DN(Fs7,12,0xC06),
    DN(E_7,6,0xC06),
    DN(___,0,0x000),
    DN(___,0,0x000),
    DN(___,0,0x000),
    DN(___,0,0x000),
    DN(F_5,6,0xC06),
    DN(___,0,0x000),
    DN(F_5,12,0xC06),
    DN(F_5,12,0xC06),
    DN(F_5,6,0xC06),
    DN(___,0,0x000),
    DN(Fs5,12,0xC06),
    DN(Gs5,12,0xC06),
    DN(Fs5,12,0xC06),
    DN(E_5,12,0xC06),
    DN(Ds5,6,0xC06),
    DN(___,0,0x000),
    DN(Ds5,12,0xC06),
    DN(Ds5,12,0xC06),
    DN(Ds5,6,0xC06),
    DN(___,0,0x000),
    DN(E_5,6,0xC06),
    DN(___,0,0x000),
    DN(___,0,0x000),
    DN(___,0,0x000),
    DN(Ds5,6,0xC06),
    DN(___,0,0x000),
    DN(E_5,6,0xC06),
    DN(___,0,0x000),
    DN(___,0,0x000),
    DN(___,0,0x000),
    DN(___,0,0x000),
    DN(___,0,0x000),
};
const unsigned char P98[] = {
    DN(C_7,12,0xC06),
    DN(C_7,12,0xC06),
    DN(Cs7,12,0xC06),
    DN(Cs7,12,0xC06),
    DN(Ds7,6,0xC06),
    DN(___,0,0x000),
    DN(Gs5,6,0xC06),
    DN(___,0,0x000),
    DN(___,0,0x000),
    DN(Gs6,12,0xC06),
    DN(As6,12,0xC06),
    DN(C_7,12,0xC06),
    DN(C_7,12,0xC06),
    DN(Cs7,6,0xC06),
    DN(___,0,0x000),
    DN(Gs5,6,0xC06),
    DN(___,0,0x000),
    DN(___,0,0x000),
    DN(Gs5,12,0xC06),
    DN(C_7,12,0xC06),
    DN(Cs7,12,0xC06),
    DN(Cs7,12,0xC06),
    DN(Ds7,6,0xC06),
    DN(___,0,0x000),
    DN(Gs5,6,0xC06),
    DN(___,0,0x000),
    DN(___,0,0x000),
    DN(Gs5,12,0xC06),
    DN(Cs7,12,0xC06),
    DN(Ds7,12,0xC06),
    DN(Ds7,12,0xC06),
    DN(Gs7,6,0xC06),
    DN(___,0,0x000),
    DN(___,0,0x000),
    DN(___,0,0x000),
    DN(___,0,0x000),
    DN(___,0,0x000),
    DN(___,0,0x000),
    DN(B_5,12,0xC06),
    DN(Gs5,12,0xC06),
    DN(B_5,6,0xC06),
    DN(___,0,0x000),
    DN(As5,6,0xC06),
    DN(___,0,0x000),
    DN(___,0,0x000),
    DN(___,0,0x000),
    DN(___,0,0x000),
    DN(___,0,0x000),
    DN(A_5,12,0xC06),
    DN(Fs5,12,0xC06),
    DN(A_5,6,0xC06),
    DN(___,0,0x000),
    DN(Gs5,6,0xC06),
    DN(___,0,0x000),
    DN(___,0,0x000),
    DN(___,0,0x000),
    DN(Gs5,6,0xC06),
    DN(___,0,0x000),
    DN(Cs6,6,0xC06),
    DN(___,0,0x000),
    DN(___,0,0x000),
    DN(___,0,0x000),
    DN(___,0,0x000),
    DN(___,0,0x000),
};
const unsigned char P99[] = {
    DN(Gs5,6,0xE0B),
    DN(Gs5,6,0xE0B),
    DN(Gs5,6,0xE0B),
    DN(Gs5,6,0xE0B),
    DN(Gs5,6,0x000),
    DN(___,0,0xE02),
    DN(G_6,6,0x000),
    DN(Gs6,6,0x000),
    DN(___,0,0xE02),
    DN(Gs6,6,0xE0B),
    DN(Gs6,6,0xE0B),
    DN(Gs6,6,0xE0B),
    DN(Gs6,6,0xE0B),
    DN(Gs6,6,0x000),
    DN(___,0,0xE02),
    DN(G_6,6,0x000),
    DN(Gs6,6,0x000),
    DN(___,0,0xE02),
    DN(Gs6,6,0xE0B),
    DN(Gs6,6,0xE0B),
    DN(Gs6,6,0xE0B),
    DN(Gs6,6,0xE0B),
    DN(Gs6,6,0x000),
    DN(___,0,0xE02),
    DN(G_6,6,0x000),
    DN(Gs6,6,0x000),
    DN(___,0,0xE02),
    DN(Gs7,6,0xE0B),
    DN(Gs7,6,0xE0B),
    DN(Gs7,6,0xE0B),
    DN(Gs7,6,0xE0B),
    DN(Gs7,6,0x000),
    DN(___,0,0xE02),
    DN(___,0,0x000),
    DN(___,0,0x000),
    DN(___,0,0x000),
    DN(Cs5,6,0x000),
    DN(___,0,0xE02),
    DN(Gs6,6,0x000),
    DN(___,0,0xE02),
    DN(Gs5,6,0x000),
    DN(___,0,0xE02),
    DN(Fs4,6,0x000),
    DN(___,0,0x000),
    DN(___,0,0xE02),
    DN(___,0,0x000),
    DN(B_4,6,0x000),
    DN(___,0,0xE02),
    DN(Fs5,6,0x000),
    DN(___,0,0xE02),
    DN(Fs5,6,0x000),
    DN(___,0,0xE02),
    DN(Gs5,6,0x000),
    DN(___,0,0xE02),
    DN(___,0,0x000),
    DN(___,0,0x000),
    DN(Gs5,6,0x000),
    DN(___,0,0xE02),
    DN(Cs5,6,0x000),
    DN(___,0,0xE02),
    DN(___,0,0x000),
    DN(___,0,0x000),
    DN(___,0,0x000),
    DN(___,0,0x000),
};
const unsigned char P100[] = {
    DN(C_8,1,0xE01),
    DN(C_8,1,0xE01),
    DN(C_8,1,0xE01),
    DN(C_8,1,0xE01),
    DN(C_8,1,0xE01),
    DN(___,0,0x000),
    DN(___,0,0xF06),
    DN(___,0,0x000),
    DN(___,0,0xF0C),
    DN(C_8,1,0xE01),
    DN(C_8,1,0xE01),
    DN(C_8,1,0xE01),
    DN(C_8,1,0xE01),
    DN(C_8,1,0xE01),
    DN(___,0,0x000),
    DN(___,0,0xF06),
    DN(___,0,0x000),
    DN(___,0,0xF0C),
    DN(C_8,1,0xE01),
    DN(C_8,1,0xE01),
    DN(C_8,1,0xE01),
    DN(C_8,1,0xE01),
    DN(C_8,1,0xE01),
    DN(___,0,0x000),
    DN(___,0,0xF06),
    DN(___,0,0x000),
    DN(___,0,0xF0C),
    DN(C_8,1,0xE01),
    DN(C_8,1,0xE01),
    DN(C_8,1,0xE01),
    DN(C_8,1,0xE01),
    DN(C_8,1,0xE01),
    DN(___,0,0xD01),
    DN(___,0,0x000),
    DN(___,0,0x000),
    DN(___,0,0x000),
    DN(___,0,0xF0C),
    DN(___,0,0x000),
    DN(C_8,1,0xE01),
    DN(___,0,0x000),
    DN(C_8,1,0xE01),
    DN(___,0,0x000),
    DN(___,0,0xF06),
    DN(___,0,0x000),
    DN(___,0,0x000),
    DN(___,0,0x000),
    DN(___,0,0xF0C),
    DN(___,0,0x000),
    DN(C_8,1,0xE01),
    DN(___,0,0x000),
    DN(___,0,0x000),
    DN(___,0,0x000),
    DN(C_8,1,0xE01),
    DN(___,0,0x000),
    DN(___,0,0x000),
    DN(___,0,0x000),
    DN(C_8,1,0xE01),
    DN(___,0,0x000),
    DN(C_8,1,0xE01),
    DN(___,0,0x000),
    DN(___,0,0x000),
    DN(___,0,0xD01),
    DN(___,0,0x000),
    DN(___,0,0x000),
};
const unsigned char P101[] = {
    DN(Gs5,12,0xC06),
    DN(Gs5,12,0xC06),
    DN(As5,12,0xC06),
    DN(As5,12,0xC06),
    DN(C_6,12,0xC06),
    DN(C_6,12,0xC06),
    DN(Cs6,12,0xC06),
    DN(Cs6,12,0xC06),
    DN(Cs6,12,0xC06),
    DN(Cs6,12,0xC06),
    DN(As5,12,0xC06),
    DN(As5,12,0xC06),
    DN(C_6,6,0xC06),
    DN(___,0,0x000),
    DN(Gs7,11,0xC04),
    DN(___,0,0x000),
    DN(Cs5,10,0xC06),
    DN(E_5,10,0xC06),
    DN(Gs5,10,0xC06),
    DN(Cs5,10,0xC06),
    DN(E_5,10,0xC06),
    DN(Gs5,10,0xC06),
    DN(Cs5,10,0xC06),
    DN(E_5,10,0xC06),
    DN(Gs5,10,0xC06),
    DN(Cs5,10,0xC06),
    DN(E_5,10,0xC06),
    DN(Gs5,10,0xC06),
    DN(B_4,10,0xC06),
    DN(Ds5,10,0xC06),
    DN(Fs5,10,0xC06),
    DN(B_4,10,0xC06),
    DN(Ds5,10,0xC06),
    DN(Fs5,10,0xC06),
    DN(Fs5,6,0xC06),
    DN(___,0,0x000),
    DN(___,0,0x000),
    DN(B_6,6,0xC06),
    DN(___,0,0x000),
    DN(___,0,0x000),
    DN(___,0,0x000),
    DN(___,0,0x000),
    DN(___,0,0x000),
    DN(___,0,0x000),
    DN(___,0,0x000),
    DN(___,0,0x000),
    DN(___,0,0x000),
    DN(___,0,0x000),
    DN(Gs7,11,0xC04),
    DN(___,0,0x000),
    DN(Gs4,11,0xC06),
    DN(___,0,0x000),
    DN(___,0,0x000),
    DN(___,0,0x000),
    DN(___,0,0x000),
    DN(___,0,0x000),
    DN(___,0,0x000),
    DN(___,0,0x000),
    DN(___,0,0x000),
    DN(___,0,0x000),
    DN(___,0,0x000),
    DN(___,0,0x000),
    DN(___,0,0x000),
    DN(___,0,0x000),
};
const unsigned char P102[] = {
    DN(C_6,12,0xC06),
    DN(C_6,12,0xC06),
    DN(Cs6,12,0xC06),
    DN(Cs6,12,0xC06),
    DN(Ds6,12,0xC06),
    DN(Ds6,12,0xC06),
    DN(E_6,12,0xC06),
    DN(E_6,12,0xC06),
    DN(Fs6,12,0xC06),
    DN(Fs6,12,0xC06),
    DN(Cs6,12,0xC06),
    DN(Cs6,12,0xC06),
    DN(Ds6,6,0xC06),
    DN(___,0,0x000),
    DN(___,0,0x000),
    DN(___,0,0x000),
    DN(___,0,0x000),
    DN(___,0,0x000),
    DN(___,0,0x000),
    DN(C_6,6,0xC06),
    DN(___,0,0xE04),
    DN(___,0,0x000),
    DN(Cs6,6,0xC06),
    DN(___,0,0x000),
    DN(___,0,0x000),
    DN(___,0,0x000),
    DN(___,0,0x000),
    DN(___,0,0x000),
    DN(___,0,0x000),
    DN(___,0,0x000),
    DN(___,0,0x000),
    DN(As5,6,0xC06),
    DN(___,0,0xE04),
    DN(___,0,0x000),
    DN(B_5,6,0xC06),
    DN(___,0,0x000),
    DN(___,0,0x000),
    DN(___,0,0x000),
    DN(___,0,0x000),
    DN(___,0,0x000),
    DN(___,0,0x000),
    DN(___,0,0x000),
    DN(___,0,0x000),
    DN(___,0,0x000),
    DN(___,0,0x000),
    DN(___,0,0x000),
    DN(___,0,0x000),
    DN(___,0,0x000),
    DN(Gs7,6,0xC04),
    DN(___,0,0x000),
    DN(Gs4,6,0xC06),
    DN(___,0,0x000),
    DN(___,0,0x000),
    DN(___,0,0x000),
    DN(___,0,0x000),
    DN(___,0,0x000),
    DN(___,0,0x000),
    DN(___,0,0x000),
    DN(___,0,0x000),
    DN(___,0,0x000),
    DN(___,0,0x000),
    DN(___,0,0x000),
    DN(___,0,0x000),
    DN(___,0,0x000),
};
const unsigned char P103[] = {
    DN(Gs5,6,0xE0B),
    DN(Gs5,6,0xE0B),
    DN(Gs5,6,0xE0B),
    DN(Gs5,6,0xE0B),
    DN(Gs6,6,0xE0B),
    DN(Gs6,6,0xE0B),
    DN(Gs6,6,0xE0B),
    DN(Gs6,6,0xE0B),
    DN(As6,6,0xE0B),
    DN(As6,6,0xE0B),
    DN(As6,6,0xE0B),
    DN(As6,6,0xE0B),
    DN(Gs6,6,0x000),
    DN(___,0,0xE02),
    DN(Gs5,6,0x000),
    DN(___,0,0xE02),
    DN(Cs5,6,0x000),
    DN(___,0,0x000),
    DN(___,0,0xE00),
    DN(Cs5,6,0x000),
    DN(___,0,0x000),
    DN(___,0,0xE00),
    DN(Cs5,6,0x000),
    DN(___,0,0x000),
    DN(___,0,0xE00),
    DN(Cs5,6,0x000),
    DN(___,0,0x000),
    DN(___,0,0xE00),
    DN(B_4,6,0x000),
    DN(___,0,0x000),
    DN(___,0,0xE00),
    DN(___,0,0x000),
    DN(___,0,0x000),
    DN(___,0,0x000),
    DN(B_4,6,0x000),
    DN(___,0,0x000),
    DN(___,0,0xE00),
    DN(B_5,6,0x000),
    DN(___,0,0xE02),
    DN(___,0,0x000),
    DN(___,0,0x000),
    DN(___,0,0x000),
    DN(___,0,0x000),
    DN(___,0,0x000),
    DN(___,0,0x000),
    DN(___,0,0x000),
    DN(___,0,0x000),
    DN(___,0,0x000),
    DN(Gs7,6,0x000),
    DN(___,0,0xE00),
    DN(___,0,0x000),
    DN(___,0,0x000),
    DN(___,0,0x000),
    DN(___,0,0x000),
    DN(___,0,0x000),
    DN(___,0,0x000),
    DN(___,0,0x000),
    DN(___,0,0x000),
    DN(___,0,0x000),
    DN(___,0,0x000),
    DN(___,0,0x000),
    DN(___,0,0x000),
    DN(___,0,0x000),
    DN(___,0,0x000),
};
const unsigned char P104[] = {
    DN(C_8,1,0xE01),
    DN(___,0,0x000),
    DN(___,0,0x000),
    DN(___,0,0x000),
    DN(___,0,0x000),
    DN(___,0,0x000),
    DN(___,0,0x000),
    DN(___,0,0x000),
    DN(C_8,1,0xE01),
    DN(___,0,0x000),
    DN(___,0,0x000),
    DN(___,0,0x000),
    DN(___,0,0x000),
    DN(___,0,0x000),
    DN(___,0,0x000),
    DN(___,0,0x000),
    DN(___,0,0xF08),
    DN(___,0,0x000),
    DN(___,0,0x000),
    DN(C_8,1,0xE01),
    DN(___,0,0x000),
    DN(___,0,0x000),
    DN(C_8,1,0xE01),
    DN(___,0,0x000),
    DN(___,0,0x000),
    DN(C_8,1,0xE01),
    DN(___,0,0x000),
    DN(___,0,0x000),
    DN(___,0,0x000),
    DN(___,0,0x000),
    DN(___,0,0x000),
    DN(C_8,1,0xE01),
    DN(___,0,0x000),
    DN(___,0,0x000),
    DN(C_8,1,0xE01),
    DN(___,0,0x000),
    DN(___,0,0x000),
    DN(___,0,0xF0C),
    DN(___,0,0xD01),
    DN(___,0,0x000),
    DN(___,0,0x000),
    DN(___,0,0x000),
    DN(___,0,0x000),
    DN(___,0,0x000),
    DN(___,0,0x000),
    DN(___,0,0x000),
    DN(___,0,0x000),
    DN(___,0,0x000),
    DN(___,0,0xF0C),
    DN(___,0,0x000),
    DN(___,0,0x000),
    DN(___,0,0xB28),
    DN(___,0,0x000),
    DN(___,0,0x000),
    DN(___,0,0x000),
    DN(___,0,0x000),
    DN(___,0,0x000),
    DN(___,0,0x000),
    DN(___,0,0x000),
    DN(___,0,0x000),
    DN(___,0,0x000),
    DN(___,0,0x000),
    DN(___,0,0x000),
    DN(___,0,0x000),
};
const unsigned char P105[] = {
    DN(C_6,11,0xC04),
    DN(___,0,0x000),
    DN(___,0,0x000),
    DN(___,0,0x000),
    DN(B_5,11,0xC04),
    DN(___,0,0x000),
    DN(___,0,0x000),
    DN(___,0,0x000),
    DN(C_6,11,0xC04),
    DN(___,0,0x000),
    DN(___,0,0x000),
    DN(___,0,0x000),
    DN(B_5,11,0xC04),
    DN(___,0,0x000),
    DN(___,0,0x000),
    DN(___,0,0x000),
    DN(E_6,11,0xC04),
    DN(___,0,0x000),
    DN(___,0,0x000),
    DN(___,0,0x000),
    DN(Ds6,11,0xC04),
    DN(___,0,0x000),
    DN(___,0,0x000),
    DN(___,0,0x000),
    DN(E_6,11,0xC04),
    DN(___,0,0x000),
    DN(___,0,0x000),
    DN(___,0,0x000),
    DN(Ds6,11,0xC04),
    DN(___,0,0x000),
    DN(___,0,0x000),
    DN(___,0,0x000),
    DN(As6,11,0xC04),
    DN(___,0,0x000),
    DN(___,0,0x000),
    DN(___,0,0x000),
    DN(Gs6,11,0xC04),
    DN(___,0,0x000),
    DN(___,0,0x000),
    DN(___,0,0x000),
    DN(As6,11,0xC04),
    DN(___,0,0x000),
    DN(___,0,0x000),
    DN(___,0,0x000),
    DN(Gs6,11,0xC04),
    DN(___,0,0x000),
    DN(___,0,0x000),
    DN(___,0,0x000),
    DN(As6,11,0xC04),
    DN(___,0,0x000),
    DN(___,0,0x000),
    DN(___,0,0x000),
    DN(Fs6,11,0xC04),
    DN(___,0,0x000),
    DN(___,0,0x000),
    DN(___,0,0x000),
    DN(As6,11,0xC04),
    DN(___,0,0x000),
    DN(___,0,0x000),
    DN(___,0,0x000),
    DN(Fs6,11,0xC04),
    DN(___,0,0x000),
    DN(___,0,0x000),
    DN(___,0,0x000),
};
const unsigned char P106[] = {
    DN(___,0,0x000),
    DN(Ds6,10,0xC04),
    DN(Fs6,10,0xC04),
    DN(A_6,10,0xC04),
    DN(___,0,0x000),
    DN(Ds6,10,0xC04),
    DN(Fs6,10,0xC04),
    DN(Gs6,10,0xC04),
    DN(___,0,0x000),
    DN(Ds6,10,0xC04),
    DN(Fs6,10,0xC04),
    DN(A_6,10,0xC04),
    DN(___,0,0x000),
    DN(Ds6,10,0xC04),
    DN(Fs6,10,0xC04),
    DN(Gs6,10,0xC04),
    DN(___,0,0x000),
    DN(Fs6,10,0xC04),
    DN(As6,10,0xC04),
    DN(Cs7,10,0xC04),
    DN(___,0,0x000),
    DN(Fs6,10,0xC04),
    DN(As6,10,0xC04),
    DN(C_7,10,0xC04),
    DN(___,0,0x000),
    DN(C_7,10,0xC04),
    DN(Fs7,10,0xC04),
    DN(A_7,10,0xC04),
    DN(___,0,0x000),
    DN(Fs6,10,0xC04),
    DN(As6,10,0xC04),
    DN(C_7,10,0xC04),
    DN(___,0,0x000),
    DN(Fs6,10,0xC04),
    DN(As6,10,0xC04),
    DN(C_7,10,0xC04),
    DN(___,0,0x000),
    DN(C_7,10,0xC04),
    DN(Fs7,10,0xC04),
    DN(Gs7,10,0xC04),
    DN(___,0,0x000),
    DN(C_7,10,0xC04),
    DN(Fs7,10,0xC04),
    DN(A_7,10,0xC04),
    DN(___,0,0x000),
    DN(C_7,10,0xC04),
    DN(Fs7,10,0xC04),
    DN(Gs7,10,0xC04),
    DN(___,0,0x000),
    DN(Ds7,10,0xC04),
    DN(Fs7,10,0xC04),
    DN(Cs8,10,0xC04),
    DN(___,0,0x000),
    DN(Ds7,10,0xC04),
    DN(Fs7,10,0xC04),
    DN(C_8,10,0xC04),
    DN(___,0,0x000),
    DN(Ds7,10,0xC04),
    DN(Fs7,10,0xC04),
    DN(Cs8,10,0xC04),
    DN(___,0,0x000),
    DN(Ds7,10,0xC04),
    DN(Fs7,10,0xC04),
    DN(C_8,10,0xC04),
};
const unsigned char P107[] = {
    DN(___,0,0xF06),
    DN(___,0,0x000),
    DN(___,0,0x000),
    DN(___,0,0x000),
    DN(___,0,0x000),
    DN(___,0,0x000),
    DN(___,0,0x000),
    DN(___,0,0x000),
    DN(___,0,0x000),
    DN(___,0,0x000),
    DN(___,0,0x000),
    DN(___,0,0x000),
    DN(___,0,0x000),
    DN(___,0,0x000),
    DN(___,0,0x000),
    DN(___,0,0x000),
    DN(___,0,0x000),
    DN(___,0,0x000),
    DN(___,0,0x000),
    DN(___,0,0x000),
    DN(___,0,0x000),
    DN(___,0,0x000),
    DN(___,0,0x000),
    DN(___,0,0x000),
    DN(___,0,0x000),
    DN(___,0,0x000),
    DN(___,0,0x000),
    DN(___,0,0x000),
    DN(___,0,0x000),
    DN(___,0,0x000),
    DN(___,0,0x000),
    DN(___,0,0x000),
    DN(Ds7,6,0x000),
    DN(___,0,0x000),
    DN(___,0,0xE02),
    DN(___,0,0x000),
    DN(C_7,6,0x000),
    DN(___,0,0x000),
    DN(___,0,0xE02),
    DN(___,0,0x000),
    DN(Ds7,6,0x000),
    DN(___,0,0x000),
    DN(___,0,0xE02),
    DN(___,0,0x000),
    DN(C_7,6,0x000),
    DN(___,0,0x000),
    DN(___,0,0xE02),
    DN(___,0,0x000),
    DN(Ds7,6,0x000),
    DN(___,0,0x000),
    DN(___,0,0xE02),
    DN(___,0,0x000),
    DN(Gs6,6,0x000),
    DN(___,0,0x000),
    DN(___,0,0xE02),
    DN(___,0,0x000),
    DN(Ds7,6,0x000),
    DN(___,0,0x000),
    DN(___,0,0xE02),
    DN(___,0,0x000),
    DN(Gs6,6,0x000),
    DN(___,0,0x000),
    DN(___,0,0xE02),
    DN(___,0,0xD31),
};
const unsigned char P108[] = {
    DN(___,0,0xE00),
    DN(___,0,0x000),
    DN(___,0,0x000),
    DN(___,0,0x000),
    DN(___,0,0x000),
    DN(___,0,0x000),
    DN(___,0,0x000),
    DN(___,0,0x000),
    DN(___,0,0x000),
    DN(___,0,0x000),
    DN(___,0,0x000),
    DN(___,0,0x000),
    DN(___,0,0x000),
    DN(___,0,0x000),
    DN(___,0,0x000),
    DN(___,0,0x000),
    DN(___,0,0x000),
    DN(___,0,0x000),
    DN(___,0,0x000),
    DN(___,0,0x000),
    DN(___,0,0x000),
    DN(___,0,0x000),
    DN(___,0,0x000),
    DN(___,0,0x000),
    DN(___,0,0x000),
    DN(___,0,0x000),
    DN(___,0,0x000),
    DN(___,0,0x000),
    DN(___,0,0x000),
    DN(___,0,0x000),
    DN(___,0,0x000),
    DN(___,0,0x000),
    DN(___,0,0x000),
    DN(___,0,0x000),
    DN(___,0,0x000),
    DN(___,0,0x000),
    DN(___,0,0x000),
    DN(___,0,0x000),
    DN(___,0,0x000),
    DN(___,0,0x000),
    DN(___,0,0x000),
    DN(___,0,0x000),
    DN(___,0,0x000),
    DN(___,0,0x000),
    DN(___,0,0x000),
    DN(___,0,0x000),
    DN(___,0,0x000),
    DN(___,0,0x000),
    DN(___,0,0x000),
    DN(___,0,0x000),
    DN(___,0,0x000),
    DN(___,0,0x000),
    DN(___,0,0x000),
    DN(___,0,0x000),
    DN(___,0,0x000),
    DN(___,0,0x000),
    DN(___,0,0x000),
    DN(___,0,0x000),
    DN(___,0,0x000),
    DN(___,0,0x000),
    DN(___,0,0x000),
    DN(___,0,0x000),
    DN(___,0,0x000),
    DN(___,0,0x000),
};
const unsigned char P109[] = {
    DN(___,0,0xE00),
    DN(___,0,0x000),
    DN(Fs5,3,0xC04),
    DN(A_5,3,0xC04),
    DN(Fs5,3,0xC04),
    DN(B_5,3,0xC04),
    DN(Fs5,3,0xC04),
    DN(E_6,3,0xC04),
    DN(Fs5,3,0xC04),
    DN(Ds6,3,0xC04),
    DN(Fs5,3,0xC04),
    DN(Cs6,3,0xC04),
    DN(Fs5,3,0xC04),
    DN(Ds6,3,0xC04),
    DN(Fs5,3,0xC04),
    DN(B_5,3,0xC04),
    DN(Fs5,3,0xC04),
    DN(___,0,0xE00),
    DN(Fs5,3,0xC04),
    DN(___,0,0xE00),
    DN(Fs5,3,0xC04),
    DN(A_5,3,0xC04),
    DN(Fs5,3,0xC04),
    DN(B_5,3,0xC04),
    DN(Fs5,3,0xC04),
    DN(___,0,0xE00),
    DN(E_5,3,0xC04),
    DN(A_5,3,0xC04),
    DN(E_5,3,0xC04),
    DN(B_5,3,0xC04),
    DN(E_5,3,0xC04),
    DN(Cs6,3,0xC04),
    DN(E_5,3,0xC04),
    DN(D_6,3,0xC04),
    DN(E_5,3,0xC04),
    DN(Cs6,3,0xC04),
    DN(E_5,3,0xC04),
    DN(B_5,3,0xC04),
    DN(E_5,3,0xC04),
    DN(A_5,3,0xC04),
    DN(E_5,3,0xC04),
    DN(Cs6,3,0xC04),
    DN(E_5,3,0xC04),
    DN(___,0,0xE00),
    DN(E_5,3,0xC04),
    DN(A_5,3,0xC04),
    DN(E_5,3,0xC04),
    DN(B_5,3,0xC04),
    DN(E_5,3,0xC04),
    DN(___,0,0xE00),
    DN(Fs5,3,0xC04),
    DN(A_5,3,0xC04),
    DN(Fs5,3,0xC04),
    DN(B_5,3,0xC04),
    DN(Fs5,3,0xC04),
    DN(E_6,3,0xC04),
    DN(Fs5,3,0xC04),
    DN(Ds6,3,0xC04),
    DN(Fs5,3,0xC04),
    DN(Cs6,3,0xC04),
    DN(Fs5,3,0xC04),
    DN(Ds6,3,0xC04),
    DN(Fs5,3,0xC04),
    DN(B_5,3,0xC04),
};
const unsigned char P110[] = {
    DN(___,0,0xE00),
    DN(Fs5,13,0xC00),
    DN(A_5,13,0xC00),
    DN(Fs5,13,0xC00),
    DN(B_5,13,0xC00),
    DN(Fs5,13,0xC00),
    DN(E_6,13,0xC00),
    DN(Fs5,13,0xC00),
    DN(Ds6,13,0xC00),
    DN(Fs5,13,0xC00),
    DN(Cs6,13,0xC00),
    DN(Fs5,13,0xC00),
    DN(Ds6,13,0xC00),
    DN(Fs5,13,0xC00),
    DN(B_5,13,0xC00),
    DN(Fs5,13,0xC00),
    DN(___,0,0xE00),
    DN(Fs5,13,0xC00),
    DN(___,0,0xE00),
    DN(Fs5,13,0xC00),
    DN(A_5,13,0xC00),
    DN(Fs5,13,0xC00),
    DN(B_5,13,0xC00),
    DN(Fs5,13,0xC00),
    DN(___,0,0xE00),
    DN(E_5,13,0xC00),
    DN(A_5,13,0xC00),
    DN(E_5,13,0xC00),
    DN(B_5,13,0xC00),
    DN(E_5,13,0xC00),
    DN(Cs6,13,0xC00),
    DN(E_5,13,0xC00),
    DN(D_6,13,0xC00),
    DN(E_5,13,0xC00),
    DN(Cs6,13,0xC00),
    DN(E_5,13,0xC00),
    DN(B_5,13,0xC00),
    DN(E_5,13,0xC00),
    DN(A_5,13,0xC00),
    DN(E_5,13,0xC00),
    DN(Cs6,13,0xC00),
    DN(E_5,13,0xC00),
    DN(___,0,0xE00),
    DN(E_5,13,0xC00),
    DN(A_5,13,0xC00),
    DN(E_5,13,0xC00),
    DN(B_5,13,0xC00),
    DN(E_5,13,0xC00),
    DN(___,0,0xE00),
    DN(Fs5,13,0xC00),
    DN(A_5,13,0xC00),
    DN(Fs5,13,0xC00),
    DN(B_5,13,0xC00),
    DN(Fs5,13,0xC00),
    DN(E_6,13,0xC00),
    DN(Fs5,13,0xC00),
    DN(Ds6,13,0xC00),
    DN(Fs5,13,0xC00),
    DN(Cs6,13,0xC00),
    DN(Fs5,13,0xC00),
    DN(Ds6,13,0xC00),
    DN(Fs5,13,0xC00),
    DN(B_5,13,0xC00),
    DN(Fs5,13,0xC00),
};
const unsigned char P111[] = {
    DN(B_5,6,0xF0C),
    DN(___,0,0xE02),
    DN(___,0,0x000),
    DN(B_5,6,0xE0B),
    DN(B_4,6,0x000),
    DN(___,0,0xE02),
    DN(Fs5,6,0x000),
    DN(___,0,0xE02),
    DN(___,0,0x000),
    DN(Fs5,6,0xE0B),
    DN(Fs5,6,0x000),
    DN(___,0,0xE02),
    DN(B_5,6,0x000),
    DN(___,0,0xE02),
    DN(Fs5,6,0x000),
    DN(___,0,0xE02),
    DN(B_5,6,0x000),
    DN(___,0,0xE02),
    DN(Fs5,6,0x000),
    DN(___,0,0xE02),
    DN(B_5,6,0x000),
    DN(___,0,0xE02),
    DN(Fs5,6,0x000),
    DN(___,0,0xE02),
    DN(A_5,6,0x000),
    DN(___,0,0xE02),
    DN(___,0,0x000),
    DN(A_5,6,0xE0B),
    DN(A_5,6,0x000),
    DN(___,0,0xE02),
    DN(E_5,6,0x000),
    DN(___,0,0xE02),
    DN(___,0,0x000),
    DN(E_5,6,0xE0B),
    DN(E_5,6,0x000),
    DN(___,0,0xE02),
    DN(A_5,6,0x000),
    DN(___,0,0xE02),
    DN(E_5,6,0x000),
    DN(___,0,0xE02),
    DN(A_5,6,0x000),
    DN(___,0,0xE02),
    DN(E_5,6,0x000),
    DN(___,0,0xE02),
    DN(A_5,6,0x000),
    DN(___,0,0xE02),
    DN(E_5,6,0x000),
    DN(___,0,0xE02),
    DN(B_5,6,0x000),
    DN(___,0,0xE02),
    DN(___,0,0x000),
    DN(___,0,0x000),
    DN(Fs5,6,0x000),
    DN(___,0,0xE02),
    DN(B_5,6,0x000),
    DN(___,0,0xE02),
    DN(Fs5,6,0x000),
    DN(___,0,0xE02),
    DN(B_5,6,0x000),
    DN(___,0,0xE02),
    DN(Fs5,6,0x000),
    DN(___,0,0xE02),
    DN(B_5,6,0x000),
    DN(___,0,0xE02),
};
const unsigned char P112[] = {
    DN(Fs5,3,0xC04),
    DN(___,0,0xE00),
    DN(Fs5,3,0xC04),
    DN(___,0,0xE00),
    DN(Fs5,3,0xC04),
    DN(A_5,3,0xC04),
    DN(Fs5,3,0xC04),
    DN(B_5,3,0xC04),
    DN(Fs5,3,0xC04),
    DN(___,0,0xE00),
    DN(Fs5,3,0xC04),
    DN(A_5,3,0xC04),
    DN(Fs5,3,0xC04),
    DN(Cs6,3,0xC04),
    DN(Fs5,3,0xC04),
    DN(E_6,3,0xC04),
    DN(Fs5,3,0xC04),
    DN(Ds6,3,0xC04),
    DN(Fs5,3,0xC04),
    DN(Cs6,3,0xC04),
    DN(Fs5,3,0xC04),
    DN(Gs5,3,0xC04),
    DN(Fs5,3,0xC04),
    DN(Cs6,3,0xC04),
    DN(Fs5,3,0xC04),
    DN(B_5,3,0xC04),
    DN(Fs5,3,0xC04),
    DN(___,0,0xE00),
    DN(Fs5,3,0xC04),
    DN(Fs5,3,0xC04),
    DN(Fs5,7,0xC04),
    DN(___,0,0x000),
    DN(___,0,0x000),
    DN(Fs6,3,0xC04),
    DN(Fs5,3,0xC04),
    DN(A_5,3,0xC04),
    DN(B_5,3,0xC04),
    DN(Cs6,3,0xC04),
    DN(E_6,3,0xC04),
    DN(Fs6,3,0xC04),
    DN(Fs6,7,0xC04),
    DN(___,0,0x000),
    DN(___,0,0x000),
    DN(___,0,0x000),
    DN(___,0,0x000),
    DN(Fs5,3,0xC04),
    DN(Fs6,3,0xC04),
    DN(A_6,3,0xC04),
    DN(Gs6,3,0xC04),
    DN(Fs6,3,0xC04),
    DN(E_6,3,0xC04),
    DN(Fs6,3,0xC04),
    DN(Fs6,3,0xC04),
    DN(Fs6,7,0xC04),
    DN(___,0,0x000),
    DN(___,0,0x000),
    DN(Fs5,7,0xC04),
    DN(___,0,0x000),
    DN(___,0,0x000),
    DN(___,0,0x000),
    DN(___,0,0x000),
    DN(___,0,0x000),
    DN(___,0,0x000),
    DN(___,0,0x000),
};
const unsigned char P113[] = {
    DN(___,0,0xE00),
    DN(Fs5,13,0xC00),
    DN(___,0,0xE00),
    DN(Fs5,13,0xC00),
    DN(A_5,13,0xC00),
    DN(Fs5,13,0xC00),
    DN(B_5,13,0xC00),
    DN(Fs5,13,0xC00),
    DN(___,0,0xE00),
    DN(Fs5,13,0xC00),
    DN(A_5,13,0xC00),
    DN(Fs5,13,0xC00),
    DN(Cs6,13,0xC00),
    DN(Fs5,13,0xC00),
    DN(E_6,13,0xC00),
    DN(Fs5,13,0xC00),
    DN(Ds6,13,0xC00),
    DN(Fs5,13,0xC00),
    DN(Cs6,13,0xC00),
    DN(Fs5,13,0xC00),
    DN(Gs5,13,0xC00),
    DN(Fs5,13,0xC00),
    DN(Cs6,13,0xC00),
    DN(Fs5,13,0xC00),
    DN(B_5,13,0xC00),
    DN(Fs5,13,0xC00),
    DN(___,0,0xE00),
    DN(Fs5,13,0xC00),
    DN(Fs5,13,0xC00),
    DN(Fs5,7,0xC06),
    DN(___,0,0x000),
    DN(___,0,0x000),
    DN(Fs6,13,0xC00),
    DN(Fs5,13,0xC00),
    DN(A_5,13,0xC00),
    DN(B_5,13,0xC00),
    DN(Cs6,13,0xC00),
    DN(E_6,13,0xC00),
    DN(Fs6,13,0xC00),
    DN(Fs6,7,0xC06),
    DN(___,0,0x000),
    DN(___,0,0x000),
    DN(___,0,0x000),
    DN(___,0,0x000),
    DN(Fs5,13,0xC00),
    DN(Fs6,13,0xC00),
    DN(A_6,13,0xC00),
    DN(Gs6,13,0xC00),
    DN(Fs6,13,0xC00),
    DN(E_6,13,0xC00),
    DN(Fs6,13,0xC00),
    DN(Fs6,7,0xC06),
    DN(___,0,0x000),
    DN(___,0,0x000),
    DN(Fs5,13,0xC00),
    DN(___,0,0x000),
    DN(Fs5,7,0xC06),
    DN(___,0,0xB30),
    DN(___,0,0x000),
    DN(___,0,0x000),
    DN(___,0,0x000),
    DN(___,0,0x000),
    DN(___,0,0x000),
    DN(___,0,0x000),
};
const unsigned char P114[] = {
    DN(Fs5,6,0xF0C),
    DN(___,0,0xE02),
    DN(B_5,6,0x000),
    DN(___,0,0xE02),
    DN(Fs5,6,0x000),
    DN(___,0,0xE02),
    DN(B_5,6,0x000),
    DN(___,0,0xE02),
    DN(A_5,6,0xF0C),
    DN(___,0,0xE02),
    DN(___,0,0x000),
    DN(A_5,6,0xE0B),
    DN(A_5,6,0x000),
    DN(___,0,0xE02),
    DN(E_5,6,0x000),
    DN(___,0,0xE02),
    DN(___,0,0x000),
    DN(E_5,6,0xE0B),
    DN(E_5,6,0x000),
    DN(___,0,0xE02),
    DN(A_5,6,0x000),
    DN(___,0,0xE02),
    DN(E_5,6,0x000),
    DN(___,0,0xE02),
    DN(A_5,6,0x000),
    DN(___,0,0xE02),
    DN(E_5,6,0x000),
    DN(___,0,0xE02),
    DN(A_5,6,0x000),
    DN(___,0,0xE02),
    DN(E_5,6,0x000),
    DN(___,0,0xE02),
    DN(B_5,6,0x000),
    DN(___,0,0xE02),
    DN(Fs5,6,0x000),
    DN(___,0,0xE02),
    DN(B_5,6,0x000),
    DN(___,0,0xE02),
    DN(A_5,6,0x000),
    DN(___,0,0xE02),
    DN(E_5,6,0x000),
    DN(___,0,0xE02),
    DN(A_5,6,0x000),
    DN(___,0,0xE02),
    DN(B_5,6,0x000),
    DN(___,0,0xE02),
    DN(Fs5,6,0x000),
    DN(___,0,0xE02),
    DN(B_5,6,0x000),
    DN(___,0,0xE02),
    DN(A_5,6,0x000),
    DN(___,0,0xE02),
    DN(E_5,6,0x000),
    DN(___,0,0xE02),
    DN(A_5,6,0xF06),
    DN(___,0,0x000),
    DN(___,0,0xE02),
    DN(___,0,0x000),
    DN(___,0,0x000),
    DN(___,0,0x000),
    DN(___,0,0x000),
    DN(___,0,0x000),
    DN(___,0,0x000),
    DN(___,0,0x000),
};
const unsigned char P115[] = {
    DN(___,0,0xE00),
    DN(___,0,0x8FF),
    DN(___,0,0x000),
    DN(___,0,0x000),
    DN(___,0,0x000),
    DN(___,0,0x000),
    DN(___,0,0x000),
    DN(___,0,0x000),
    DN(___,0,0x000),
    DN(___,0,0x000),
    DN(___,0,0x000),
    DN(___,0,0x000),
    DN(___,0,0x000),
    DN(___,0,0x000),
    DN(___,0,0x000),
    DN(___,0,0x000),
    DN(___,0,0x000),
    DN(___,0,0x000),
    DN(___,0,0x000),
    DN(___,0,0x000),
    DN(___,0,0x000),
    DN(___,0,0x000),
    DN(___,0,0x000),
    DN(___,0,0x000),
    DN(___,0,0x000),
    DN(___,0,0x000),
    DN(___,0,0x000),
    DN(___,0,0x000),
    DN(___,0,0x000),
    DN(___,0,0x000),
    DN(___,0,0x000),
    DN(___,0,0x000),
    DN(___,0,0x000),
    DN(C_5,2,0xC06),
    DN(D_5,2,0xC06),
    DN(Ds5,6,0xC06),
    DN(Ds5,6,0xC03),
    DN(G_5,6,0xC06),
    DN(G_5,6,0xC03),
    DN(F_5,2,0xC06),
    DN(___,0,0x000),
    DN(F_5,6,0xC04),
    DN(A_5,6,0xC06),
    DN(A_5,2,0xC06),
    DN(A_5,6,0xC03),
    DN(F_5,2,0xC06),
    DN(F_5,6,0xC03),
    DN(Ds5,2,0xC06),
    DN(___,0,0x000),
    DN(Ds5,6,0xC04),
    DN(G_5,6,0xC06),
    DN(G_5,2,0xC06),
    DN(G_5,6,0xC03),
    DN(Ds5,2,0xC06),
    DN(Ds5,6,0xC03),
    DN(D_5,2,0xC06),
    DN(___,0,0x000),
    DN(D_5,6,0xC04),
    DN(C_5,6,0xC06),
    DN(D_5,2,0xC06),
    DN(___,0,0x000),
    DN(D_5,6,0xC04),
    DN(___,0,0x000),
    DN(___,0,0x000),
};
const unsigned char P116[] = {
    DN(___,0,0xE00),
    DN(C_6,3,0xC06),
    DN(C_7,3,0xC06),
    DN(C_8,3,0xC06),
    DN(C_7,3,0xC06),
    DN(C_7,7,0xC03),
    DN(___,0,0x000),
    DN(___,0,0x000),
    DN(C_8,3,0xC06),
    DN(C_8,7,0xC02),
    DN(C_7,3,0xC06),
    DN(C_7,7,0xC02),
    DN(C_8,3,0xC06),
    DN(C_8,7,0xC03),
    DN(___,0,0x000),
    DN(___,0,0x000),
    DN(___,0,0x000),
    DN(C_6,3,0xC06),
    DN(C_7,3,0xC06),
    DN(C_8,3,0xC06),
    DN(C_7,3,0xC06),
    DN(C_7,7,0xC03),
    DN(___,0,0x000),
    DN(___,0,0x000),
    DN(C_8,3,0xC06),
    DN(C_8,7,0xC02),
    DN(C_7,3,0xC06),
    DN(C_7,7,0xC02),
    DN(C_8,3,0xC06),
    DN(C_8,7,0xC03),
    DN(___,0,0x000),
    DN(___,0,0x000),
    DN(___,0,0x000),
    DN(Ds5,2,0xC08),
    DN(F_5,2,0xC08),
    DN(G_5,6,0xC08),
    DN(G_5,6,0xC04),
    DN(As5,6,0xC08),
    DN(As5,6,0xC04),
    DN(A_5,2,0xC08),
    DN(___,0,0x000),
    DN(A_5,6,0xC06),
    DN(C_6,6,0xC08),
    DN(C_6,2,0xC08),
    DN(C_6,6,0xC04),
    DN(A_5,2,0xC08),
    DN(A_5,6,0xC04),
    DN(G_5,2,0xC08),
    DN(___,0,0x000),
    DN(G_5,6,0xC04),
    DN(As5,6,0xC08),
    DN(As5,2,0xC08),
    DN(As5,6,0xC04),
    DN(G_5,6,0xC08),
    DN(G_5,6,0xC04),
    DN(F_5,2,0xC08),
    DN(___,0,0x000),
    DN(F_5,6,0xC06),
    DN(Ds5,6,0xC08),
    DN(G_5,2,0xC08),
    DN(___,0,0x000),
    DN(G_5,6,0xC06),
    DN(___,0,0x000),
    DN(___,0,0x000),
};
const unsigned char P117[] = {
    DN(C_5,10,0xF0D),
    DN(___,0,0x000),
    DN(As4,10,0x000),
    DN(A_4,10,0x000),
    DN(G_4,10,0x000),
    DN(___,0,0xE02),
    DN(___,0,0x000),
    DN(___,0,0x000),
    DN(F_4,10,0xE0C),
    DN(F_4,10,0x000),
    DN(Ds4,10,0x000),
    DN(D_4,10,0x000),
    DN(C_4,10,0x000),
    DN(___,0,0xE02),
    DN(___,0,0x000),
    DN(___,0,0x000),
    DN(C_5,10,0x000),
    DN(___,0,0x000),
    DN(As4,10,0x000),
    DN(A_4,10,0x000),
    DN(G_4,10,0x000),
    DN(___,0,0xE02),
    DN(___,0,0x000),
    DN(___,0,0x000),
    DN(F_4,10,0xE0C),
    DN(F_4,10,0x000),
    DN(Ds4,10,0x000),
    DN(D_4,10,0x000),
    DN(C_4,10,0x000),
    DN(___,0,0xE02),
    DN(___,0,0x000),
    DN(___,0,0x000),
    DN(C_4,10,0xF0D),
    DN(___,0,0xE02),
    DN(___,0,0x000),
    DN(___,0,0x000),
    DN(___,0,0x000),
    DN(C_4,10,0x000),
    DN(___,0,0xE02),
    DN(___,0,0x000),
    DN(F_4,10,0xE0C),
    DN(F_4,10,0x000),
    DN(Ds4,10,0x000),
    DN(D_4,10,0x000),
    DN(C_4,10,0x000),
    DN(___,0,0xE02),
    DN(___,0,0x000),
    DN(___,0,0x000),
    DN(___,0,0x000),
    DN(___,0,0x000),
    DN(C_4,10,0x000),
    DN(___,0,0xE02),
    DN(___,0,0x000),
    DN(___,0,0x000),
    DN(___,0,0x000),
    DN(___,0,0x000),
    DN(F_4,10,0xE0C),
    DN(F_4,10,0x000),
    DN(Ds4,10,0x000),
    DN(D_4,10,0x000),
    DN(C_4,10,0x000),
    DN(___,0,0xE02),
    DN(___,0,0x000),
    DN(___,0,0x000),
};
const unsigned char P118[] = {
    DN(C_7,2,0xE02),
    DN(C_8,1,0xE02),
    DN(G_6,2,0x000),
    DN(C_7,2,0xE02),
    DN(C_7,2,0xE02),
    DN(C_8,1,0xE02),
    DN(G_6,2,0x000),
    DN(C_8,1,0xE02),
    DN(C_7,2,0xE02),
    DN(C_8,1,0xE02),
    DN(G_6,2,0x000),
    DN(C_8,1,0xE02),
    DN(C_7,2,0xE02),
    DN(C_8,1,0xE02),
    DN(G_6,2,0x000),
    DN(C_8,1,0xE02),
    DN(C_7,2,0xE02),
    DN(C_8,1,0xE02),
    DN(G_6,2,0x000),
    DN(C_7,2,0xE02),
    DN(C_7,2,0xE02),
    DN(C_8,1,0xE02),
    DN(G_6,2,0x000),
    DN(C_8,1,0xE02),
    DN(C_7,2,0xE02),
    DN(C_8,1,0xE02),
    DN(G_6,2,0x000),
    DN(C_8,1,0xE02),
    DN(C_7,2,0xE02),
    DN(C_8,1,0xE02),
    DN(B_6,2,0x000),
    DN(B_6,2,0x000),
    DN(C_7,2,0xE02),
    DN(C_8,1,0xE02),
    DN(G_6,2,0x000),
    DN(C_7,2,0xE02),
    DN(C_7,2,0xE02),
    DN(C_8,1,0xE02),
    DN(G_6,2,0x000),
    DN(C_8,1,0xE02),
    DN(C_7,2,0xE02),
    DN(C_8,1,0xE02),
    DN(G_6,2,0x000),
    DN(C_8,1,0xE02),
    DN(C_7,2,0xE02),
    DN(C_8,1,0xE02),
    DN(G_6,2,0x000),
    DN(C_8,1,0xE02),
    DN(C_7,2,0xE02),
    DN(C_8,1,0xE02),
    DN(G_6,2,0x000),
    DN(C_7,2,0xE02),
    DN(C_7,2,0xE02),
    DN(C_8,1,0xE02),
    DN(G_6,2,0x000),
    DN(C_8,1,0xE02),
    DN(C_7,2,0xE02),
    DN(C_8,1,0xE02),
    DN(G_6,2,0x000),
    DN(C_8,1,0xE02),
    DN(C_7,2,0xE02),
    DN(C_8,1,0xE02),
    DN(B_6,2,0x000),
    DN(B_6,2,0x000),
};
const unsigned char P119[] = {
    DN(C_7,2,0xE02),
    DN(C_8,1,0xE02),
    DN(G_6,2,0x000),
    DN(C_7,2,0xE02),
    DN(C_7,2,0xE02),
    DN(C_8,1,0xE02),
    DN(G_6,2,0x000),
    DN(C_8,1,0xE02),
    DN(C_7,2,0xE02),
    DN(C_8,1,0xE02),
    DN(G_6,2,0x000),
    DN(C_8,1,0xE02),
    DN(C_7,2,0xE02),
    DN(C_8,1,0xE02),
    DN(G_6,2,0x000),
    DN(C_8,1,0xE02),
    DN(C_7,2,0xE02),
    DN(C_8,1,0xE02),
    DN(G_6,2,0x000),
    DN(C_7,2,0xE02),
    DN(C_7,2,0xE02),
    DN(C_8,1,0xE02),
    DN(G_6,2,0x000),
    DN(C_8,1,0xE02),
    DN(C_7,2,0xE02),
    DN(C_8,1,0xE02),
    DN(G_6,2,0x000),
    DN(C_8,1,0xE02),
    DN(C_7,2,0xE02),
    DN(C_8,1,0xE02),
    DN(B_6,2,0x000),
    DN(B_6,2,0xD01),
    DN(___,0,0x000),
    DN(___,0,0x000),
    DN(___,0,0x000),
    DN(___,0,0x000),
    DN(___,0,0x000),
    DN(___,0,0x000),
    DN(___,0,0x000),
    DN(___,0,0x000),
    DN(___,0,0x000),
    DN(___,0,0x000),
    DN(___,0,0x000),
    DN(___,0,0x000),
    DN(___,0,0x000),
    DN(___,0,0x000),
    DN(___,0,0x000),
    DN(___,0,0x000),
    DN(___,0,0x000),
    DN(___,0,0x000),
    DN(___,0,0x000),
    DN(___,0,0x000),
    DN(___,0,0x000),
    DN(___,0,0x000),
    DN(___,0,0x000),
    DN(___,0,0x000),
    DN(___,0,0x000),
    DN(___,0,0x000),
    DN(___,0,0x000),
    DN(___,0,0x000),
    DN(___,0,0x000),
    DN(___,0,0x000),
    DN(___,0,0x000),
    DN(___,0,0x000),
};
const unsigned char P120[] = {
    DN(Ds6,11,0xC08),
    DN(___,0,0x000),
    DN(___,0,0x000),
    DN(F_6,11,0xC08),
    DN(___,0,0x000),
    DN(___,0,0x000),
    DN(C_6,11,0xC08),
    DN(___,0,0x000),
    DN(___,0,0x000),
    DN(Ds6,11,0xC08),
    DN(___,0,0x000),
    DN(___,0,0x000),
    DN(F_6,11,0xC08),
    DN(___,0,0x000),
    DN(C_6,11,0xC08),
    DN(___,0,0x000),
    DN(Ds6,2,0xC08),
    DN(Ds6,2,0xC07),
    DN(___,0,0x000),
    DN(Ds6,2,0xC06),
    DN(Ds6,2,0xC05),
    DN(___,0,0x000),
    DN(Ds6,2,0xC04),
    DN(Ds6,2,0xC03),
    DN(___,0,0x000),
    DN(Ds6,2,0xC02),
    DN(Ds6,2,0xC01),
    DN(___,0,0x000),
    DN(Ds6,2,0xC00),
    DN(___,0,0x000),
    DN(___,0,0x000),
    DN(___,0,0x000),
    DN(Ds6,11,0xC08),
    DN(___,0,0x000),
    DN(___,0,0x000),
    DN(F_6,11,0xC08),
    DN(___,0,0x000),
    DN(___,0,0x000),
    DN(C_6,11,0xC08),
    DN(___,0,0x000),
    DN(___,0,0x000),
    DN(Ds6,11,0xC08),
    DN(___,0,0x000),
    DN(___,0,0x000),
    DN(F_6,11,0xC08),
    DN(___,0,0x000),
    DN(C_6,11,0xC08),
    DN(___,0,0x000),
    DN(Ds6,2,0xC08),
    DN(Ds6,2,0xC07),
    DN(___,0,0x000),
    DN(Ds6,2,0xC06),
    DN(Ds6,2,0xC05),
    DN(___,0,0x000),
    DN(Ds6,2,0xC04),
    DN(Ds6,2,0xC03),
    DN(___,0,0x000),
    DN(Ds6,2,0xC02),
    DN(Ds6,2,0xC01),
    DN(___,0,0x000),
    DN(Ds6,2,0xC00),
    DN(___,0,0x000),
    DN(___,0,0x000),
    DN(___,0,0x000),
};
const unsigned char P121[] = {
    DN(G_6,7,0xC08),
    DN(G_6,3,0xC08),
    DN(G_6,7,0xC03),
    DN(Gs6,7,0xC08),
    DN(Gs6,3,0xC08),
    DN(Gs6,7,0xC03),
    DN(A_6,7,0xC08),
    DN(A_6,3,0xC08),
    DN(A_6,7,0xC03),
    DN(As6,7,0xC08),
    DN(As6,3,0xC08),
    DN(As6,7,0xC03),
    DN(B_6,7,0xC08),
    DN(B_6,7,0xC08),
    DN(C_7,7,0xC08),
    DN(___,0,0x000),
    DN(G_6,7,0xC08),
    DN(G_6,3,0xC08),
    DN(G_6,7,0xC03),
    DN(Gs6,7,0xC08),
    DN(Gs6,3,0xC08),
    DN(Gs6,7,0xC03),
    DN(A_6,7,0xC08),
    DN(A_6,3,0xC08),
    DN(A_6,7,0xC03),
    DN(As6,7,0xC08),
    DN(As6,3,0xC08),
    DN(As6,7,0xC03),
    DN(B_6,7,0xC08),
    DN(B_6,7,0xC08),
    DN(C_7,7,0xC08),
    DN(___,0,0x000),
    DN(G_6,7,0xC08),
    DN(G_6,3,0xC08),
    DN(G_6,7,0xC03),
    DN(Gs6,7,0xC08),
    DN(Gs6,3,0xC08),
    DN(Gs6,7,0xC03),
    DN(A_6,7,0xC08),
    DN(A_6,3,0xC08),
    DN(A_6,7,0xC03),
    DN(As6,7,0xC08),
    DN(As6,3,0xC08),
    DN(As6,7,0xC03),
    DN(B_6,7,0xC08),
    DN(B_6,7,0xC08),
    DN(C_7,7,0xC08),
    DN(___,0,0x000),
    DN(G_6,7,0xC08),
    DN(G_6,3,0xC08),
    DN(G_6,7,0xC03),
    DN(Gs6,7,0xC08),
    DN(Gs6,3,0xC08),
    DN(Gs6,7,0xC03),
    DN(A_6,7,0xC08),
    DN(A_6,3,0xC08),
    DN(A_6,7,0xC03),
    DN(As6,7,0xC08),
    DN(As6,3,0xC08),
    DN(As6,7,0xC03),
    DN(B_6,7,0xC08),
    DN(B_6,7,0xC08),
    DN(C_7,7,0xC08),
    DN(___,0,0x000),
};
const unsigned char P122[] = {
    DN(C_5,10,0xE0C),
    DN(C_5,10,0x000),
    DN(___,0,0xE02),
    DN(C_5,10,0xE0C),
    DN(C_5,10,0x000),
    DN(___,0,0xE02),
    DN(C_5,10,0xE0C),
    DN(C_5,10,0x000),
    DN(___,0,0xE02),
    DN(C_5,10,0xE0C),
    DN(C_5,10,0x000),
    DN(___,0,0xE02),
    DN(C_5,10,0xE0C),
    DN(C_5,10,0xE0C),
    DN(C_5,10,0x000),
    DN(___,0,0xE02),
    DN(C_5,10,0xE0C),
    DN(C_5,10,0x000),
    DN(___,0,0xE02),
    DN(C_5,10,0xE0C),
    DN(C_5,10,0x000),
    DN(___,0,0xE02),
    DN(C_5,10,0xE0C),
    DN(C_5,10,0x000),
    DN(___,0,0xE02),
    DN(C_5,10,0xE0C),
    DN(C_5,10,0x000),
    DN(___,0,0xE02),
    DN(C_5,10,0xE0C),
    DN(C_5,10,0xE0C),
    DN(C_5,10,0x000),
    DN(___,0,0xE02),
    DN(C_5,10,0xE0C),
    DN(C_5,10,0x000),
    DN(___,0,0xE02),
    DN(C_5,10,0xE0C),
    DN(C_5,10,0x000),
    DN(___,0,0xE02),
    DN(C_5,10,0xE0C),
    DN(C_5,10,0x000),
    DN(___,0,0xE02),
    DN(C_5,10,0xE0C),
    DN(C_5,10,0x000),
    DN(___,0,0xE02),
    DN(C_5,10,0xE0C),
    DN(C_5,10,0xE0C),
    DN(C_5,10,0x000),
    DN(___,0,0xE02),
    DN(C_5,10,0xE0C),
    DN(C_5,10,0x000),
    DN(___,0,0xE02),
    DN(C_5,10,0xE0C),
    DN(C_5,10,0x000),
    DN(___,0,0xE02),
    DN(C_5,10,0xE0C),
    DN(C_5,10,0x000),
    DN(___,0,0xE02),
    DN(C_5,10,0xE0C),
    DN(C_5,10,0x000),
    DN(___,0,0xE02),
    DN(C_5,10,0xE0C),
    DN(C_5,10,0xE0C),
    DN(C_5,10,0x000),
    DN(___,0,0xE02),
};
const unsigned char P123[] = {
    DN(E_6,11,0xC08),
    DN(___,0,0x000),
    DN(___,0,0x000),
    DN(Fs6,11,0xC08),
    DN(___,0,0x000),
    DN(___,0,0x000),
    DN(Cs6,11,0xC08),
    DN(___,0,0x000),
    DN(___,0,0x000),
    DN(E_6,11,0xC08),
    DN(___,0,0x000),
    DN(___,0,0x000),
    DN(Fs6,11,0xC08),
    DN(___,0,0x000),
    DN(Cs6,11,0xC08),
    DN(___,0,0x000),
    DN(E_6,2,0xC08),
    DN(E_6,2,0xC07),
    DN(___,0,0x000),
    DN(E_6,2,0xC06),
    DN(E_6,2,0xC05),
    DN(___,0,0x000),
    DN(E_6,2,0xC04),
    DN(E_6,2,0xC03),
    DN(___,0,0x000),
    DN(E_6,2,0xC02),
    DN(E_6,2,0xC01),
    DN(___,0,0x000),
    DN(E_6,2,0xC00),
    DN(___,0,0x000),
    DN(___,0,0x000),
    DN(___,0,0x000),
    DN(F_6,11,0xC08),
    DN(___,0,0x000),
    DN(___,0,0x000),
    DN(G_6,11,0xC08),
    DN(___,0,0x000),
    DN(___,0,0x000),
    DN(D_6,11,0xC08),
    DN(___,0,0x000),
    DN(___,0,0x000),
    DN(F_6,11,0xC08),
    DN(___,0,0x000),
    DN(___,0,0x000),
    DN(G_6,11,0xC08),
    DN(___,0,0x000),
    DN(D_6,11,0xC08),
    DN(___,0,0x000),
    DN(F_6,2,0xC08),
    DN(F_6,2,0xC07),
    DN(___,0,0x000),
    DN(F_6,2,0xC06),
    DN(F_6,2,0xC05),
    DN(___,0,0x000),
    DN(F_6,2,0xC04),
    DN(F_6,2,0xC03),
    DN(___,0,0x000),
    DN(F_6,2,0xC02),
    DN(F_6,2,0xC01),
    DN(___,0,0x000),
    DN(F_6,2,0xC00),
    DN(___,0,0x000),
    DN(___,0,0x000),
    DN(___,0,0xB32),
};
const unsigned char P124[] = {
    DN(Gs6,7,0xC08),
    DN(Gs6,3,0xC08),
    DN(Gs6,7,0xC03),
    DN(A_6,7,0xC08),
    DN(A_6,3,0xC08),
    DN(A_6,7,0xC03),
    DN(As6,7,0xC08),
    DN(As6,3,0xC08),
    DN(As6,7,0xC03),
    DN(B_6,7,0xC08),
    DN(B_6,3,0xC08),
    DN(B_6,7,0xC03),
    DN(C_7,7,0xC08),
    DN(C_7,7,0xC08),
    DN(Cs7,7,0xC08),
    DN(___,0,0x000),
    DN(Gs6,7,0xC08),
    DN(Gs6,3,0xC08),
    DN(Gs6,7,0xC03),
    DN(A_6,7,0xC08),
    DN(A_6,3,0xC08),
    DN(A_6,7,0xC03),
    DN(As6,7,0xC08),
    DN(As6,3,0xC08),
    DN(As6,7,0xC03),
    DN(B_6,7,0xC08),
    DN(B_6,3,0xC08),
    DN(B_6,7,0xC03),
    DN(C_7,7,0xC08),
    DN(C_7,7,0xC08),
    DN(Cs7,7,0xC08),
    DN(___,0,0x000),
    DN(A_6,7,0xC08),
    DN(A_6,3,0xC08),
    DN(A_6,7,0xC03),
    DN(As6,7,0xC08),
    DN(As6,3,0xC08),
    DN(As6,7,0xC03),
    DN(B_6,7,0xC08),
    DN(B_6,3,0xC08),
    DN(B_6,7,0xC03),
    DN(C_7,7,0xC08),
    DN(C_7,3,0xC08),
    DN(C_7,7,0xC03),
    DN(Cs7,7,0xC08),
    DN(Cs7,7,0xC08),
    DN(D_7,7,0xC08),
    DN(___,0,0x000),
    DN(A_6,7,0xC08),
    DN(A_6,3,0xC08),
    DN(A_6,7,0xC03),
    DN(As6,7,0xC08),
    DN(As6,3,0xC08),
    DN(As6,7,0xC03),
    DN(B_6,7,0xC08),
    DN(B_6,3,0xC08),
    DN(B_6,7,0xC03),
    DN(C_7,7,0xC08),
    DN(C_7,3,0xC08),
    DN(C_7,7,0xC03),
    DN(Cs7,7,0xC08),
    DN(Cs7,7,0xC08),
    DN(D_7,7,0xC08),
    DN(___,0,0x000),
};
const unsigned char P125[] = {
    DN(Cs5,10,0xE0C),
    DN(Cs5,10,0x000),
    DN(___,0,0xE02),
    DN(Cs5,10,0xE0C),
    DN(Cs5,10,0x000),
    DN(___,0,0xE02),
    DN(Cs5,10,0xE0C),
    DN(Cs5,10,0x000),
    DN(___,0,0xE02),
    DN(Cs5,10,0xE0C),
    DN(Cs5,10,0x000),
    DN(___,0,0xE02),
    DN(Cs5,10,0xE0C),
    DN(Cs5,10,0xE0C),
    DN(Cs5,10,0x000),
    DN(___,0,0xE02),
    DN(Cs5,10,0xE0C),
    DN(Cs5,10,0x000),
    DN(___,0,0xE02),
    DN(Cs5,10,0xE0C),
    DN(Cs5,10,0x000),
    DN(___,0,0xE02),
    DN(Cs5,10,0xE0C),
    DN(Cs5,10,0x000),
    DN(___,0,0xE02),
    DN(Cs5,10,0xE0C),
    DN(Cs5,10,0x000),
    DN(___,0,0xE02),
    DN(Cs5,10,0xE0C),
    DN(Cs5,10,0xE0C),
    DN(Cs5,10,0x000),
    DN(___,0,0xE02),
    DN(D_5,10,0xE0C),
    DN(D_5,10,0x000),
    DN(___,0,0xE02),
    DN(D_5,10,0xE0C),
    DN(D_5,10,0x000),
    DN(___,0,0xE02),
    DN(D_5,10,0xE0C),
    DN(D_5,10,0x000),
    DN(___,0,0xE02),
    DN(D_5,10,0xE0C),
    DN(D_5,10,0x000),
    DN(___,0,0xE02),
    DN(D_5,10,0xE0C),
    DN(D_5,10,0xE0C),
    DN(D_5,10,0x000),
    DN(___,0,0xE02),
    DN(D_5,10,0xC0F),
    DN(___,0,0x000),
    DN(___,0,0x000),
    DN(___,0,0x000),
    DN(___,0,0xC08),
    DN(___,0,0x000),
    DN(___,0,0x000),
    DN(___,0,0x000),
    DN(___,0,0xC04),
    DN(___,0,0x000),
    DN(___,0,0x000),
    DN(___,0,0x000),
    DN(___,0,0x000),
    DN(___,0,0x000),
    DN(___,0,0x000),
    DN(___,0,0x000),
};
const unsigned char P126[] = {
    DN(___,0,0xE00),
    DN(___,0,0x000),
    DN(___,0,0x000),
    DN(___,0,0x000),
    DN(___,0,0x000),
    DN(___,0,0x000),
    DN(___,0,0x000),
    DN(___,0,0x000),
    DN(___,0,0x000),
    DN(___,0,0x000),
    DN(___,0,0x000),
    DN(___,0,0x000),
    DN(___,0,0x000),
    DN(___,0,0x000),
    DN(___,0,0x000),
    DN(___,0,0x000),
    DN(___,0,0x000),
    DN(___,0,0x000),
    DN(___,0,0x000),
    DN(___,0,0x000),
    DN(___,0,0x000),
    DN(___,0,0x000),
    DN(___,0,0x000),
    DN(___,0,0x000),
    DN(___,0,0x000),
    DN(___,0,0x000),
    DN(___,0,0x000),
    DN(___,0,0x000),
    DN(___,0,0x000),
    DN(___,0,0x000),
    DN(___,0,0x000),
    DN(___,0,0x000),
    DN(___,0,0x000),
    DN(___,0,0x000),
    DN(___,0,0x000),
    DN(___,0,0x000),
    DN(___,0,0x000),
    DN(___,0,0x000),
    DN(___,0,0x000),
    DN(___,0,0x000),
    DN(___,0,0x000),
    DN(___,0,0x000),
    DN(___,0,0x000),
    DN(___,0,0x000),
    DN(___,0,0x000),
    DN(___,0,0x000),
    DN(___,0,0x000),
    DN(___,0,0x000),
    DN(___,0,0x000),
    DN(___,0,0x000),
    DN(___,0,0x000),
    DN(___,0,0x000),
    DN(___,0,0x000),
    DN(___,0,0x000),
    DN(___,0,0x000),
    DN(___,0,0x000),
    DN(___,0,0x000),
    DN(___,0,0x000),
    DN(A_5,2,0xC06),
    DN(___,0,0xE00),
    DN(D_6,2,0xC06),
    DN(___,0,0xE00),
    DN(F_6,2,0xC06),
    DN(___,0,0xE00),
};
const unsigned char P127[] = {
    DN(D_4,1,0xC08),
    DN(___,0,0xE00),
    DN(D_5,1,0xC08),
    DN(___,0,0xE00),
    DN(D_4,1,0xC08),
    DN(___,0,0xE00),
    DN(D_5,1,0xC08),
    DN(___,0,0xE00),
    DN(F_4,1,0xC08),
    DN(___,0,0xE00),
    DN(F_5,1,0xC08),
    DN(___,0,0xE00),
    DN(F_4,1,0xC08),
    DN(___,0,0xE00),
    DN(F_5,1,0xC08),
    DN(___,0,0xE00),
    DN(As3,1,0xC08),
    DN(___,0,0xE00),
    DN(As4,1,0xC08),
    DN(___,0,0xE00),
    DN(As3,1,0xC08),
    DN(___,0,0xE00),
    DN(As4,1,0xC08),
    DN(___,0,0xE00),
    DN(C_4,1,0xC08),
    DN(___,0,0xE00),
    DN(C_5,1,0xC08),
    DN(___,0,0xE00),
    DN(C_4,1,0xC08),
    DN(___,0,0xE00),
    DN(C_5,1,0xC08),
    DN(___,0,0xE00),
    DN(D_4,1,0xC08),
    DN(___,0,0xE00),
    DN(D_5,1,0xC08),
    DN(___,0,0xE00),
    DN(D_4,1,0xC08),
    DN(___,0,0xE00),
    DN(D_5,1,0xC08),
    DN(___,0,0xE00),
    DN(F_4,1,0xC08),
    DN(___,0,0xE00),
    DN(F_5,1,0xC08),
    DN(___,0,0xE00),
    DN(F_4,1,0xC08),
    DN(___,0,0xE00),
    DN(F_5,1,0xC08),
    DN(___,0,0xE00),
    DN(As3,1,0xC08),
    DN(___,0,0xE00),
    DN(As4,1,0xC08),
    DN(___,0,0xE00),
    DN(As3,1,0xC08),
    DN(___,0,0xE00),
    DN(As4,1,0xC08),
    DN(___,0,0xE00),
    DN(C_4,1,0xC08),
    DN(___,0,0xE00),
    DN(C_5,1,0xC08),
    DN(___,0,0xE00),
    DN(C_4,1,0xC08),
    DN(___,0,0xE00),
    DN(C_5,1,0xC08),
    DN(___,0,0xE00),
};
const unsigned char P128[] = {
    DN(C_3,6,0xF06),
    DN(___,0,0x000),
    DN(___,0,0x000),
    DN(___,0,0x000),
    DN(___,0,0x000),
    DN(___,0,0x000),
    DN(___,0,0x000),
    DN(___,0,0x000),
    DN(___,0,0x000),
    DN(___,0,0x000),
    DN(___,0,0x000),
    DN(___,0,0x000),
    DN(___,0,0x000),
    DN(___,0,0x000),
    DN(___,0,0x000),
    DN(___,0,0xE03),
    DN(C_3,6,0x000),
    DN(___,0,0x000),
    DN(___,0,0x000),
    DN(___,0,0x000),
    DN(___,0,0x000),
    DN(___,0,0x000),
    DN(___,0,0x000),
    DN(___,0,0x000),
    DN(___,0,0x000),
    DN(___,0,0x000),
    DN(___,0,0x000),
    DN(___,0,0x000),
    DN(___,0,0x000),
    DN(___,0,0x000),
    DN(___,0,0x000),
    DN(___,0,0xE03),
    DN(C_3,6,0x000),
    DN(___,0,0x000),
    DN(___,0,0x000),
    DN(___,0,0x000),
    DN(___,0,0x000),
    DN(___,0,0x000),
    DN(___,0,0x000),
    DN(___,0,0x000),
    DN(___,0,0x000),
    DN(___,0,0x000),
    DN(___,0,0x000),
    DN(___,0,0x000),
    DN(___,0,0x000),
    DN(___,0,0x000),
    DN(___,0,0x000),
    DN(___,0,0xE03),
    DN(C_3,6,0x000),
    DN(___,0,0x000),
    DN(___,0,0x000),
    DN(___,0,0x000),
    DN(___,0,0x000),
    DN(___,0,0x000),
    DN(___,0,0x000),
    DN(___,0,0x000),
    DN(___,0,0x000),
    DN(___,0,0x000),
    DN(___,0,0x000),
    DN(___,0,0x000),
    DN(___,0,0x000),
    DN(___,0,0x000),
    DN(___,0,0x000),
    DN(___,0,0xE03),
};
const unsigned char P129[] = {
    DN(C_8,1,0xE02),
    DN(___,0,0x000),
    DN(___,0,0x000),
    DN(___,0,0x000),
    DN(___,0,0x000),
    DN(___,0,0x000),
    DN(___,0,0x000),
    DN(___,0,0x000),
    DN(___,0,0x000),
    DN(___,0,0x000),
    DN(___,0,0x000),
    DN(___,0,0x000),
    DN(___,0,0x000),
    DN(___,0,0x000),
    DN(___,0,0x000),
    DN(___,0,0x000),
    DN(___,0,0x000),
    DN(___,0,0x000),
    DN(___,0,0x000),
    DN(___,0,0x000),
    DN(___,0,0x000),
    DN(___,0,0x000),
    DN(___,0,0x000),
    DN(___,0,0x000),
    DN(___,0,0x000),
    DN(___,0,0x000),
    DN(___,0,0x000),
    DN(___,0,0x000),
    DN(___,0,0x000),
    DN(___,0,0x000),
    DN(___,0,0x000),
    DN(___,0,0x000),
    DN(___,0,0x000),
    DN(___,0,0x000),
    DN(___,0,0x000),
    DN(___,0,0x000),
    DN(___,0,0x000),
    DN(___,0,0x000),
    DN(___,0,0x000),
    DN(___,0,0x000),
    DN(___,0,0x000),
    DN(___,0,0x000),
    DN(___,0,0x000),
    DN(___,0,0x000),
    DN(___,0,0x000),
    DN(___,0,0x000),
    DN(___,0,0x000),
    DN(___,0,0x000),
    DN(___,0,0x000),
    DN(___,0,0x000),
    DN(___,0,0x000),
    DN(___,0,0x000),
    DN(___,0,0x000),
    DN(___,0,0x000),
    DN(___,0,0x000),
    DN(___,0,0x000),
    DN(___,0,0x000),
    DN(___,0,0x000),
    DN(___,0,0x000),
    DN(___,0,0x000),
    DN(___,0,0x000),
    DN(___,0,0x000),
    DN(___,0,0x000),
    DN(___,0,0x000),
};
const unsigned char P130[] = {
    DN(E_6,2,0xC06),
    DN(___,0,0xE00),
    DN(A_5,2,0xC06),
    DN(___,0,0xE00),
    DN(D_6,2,0xC06),
    DN(___,0,0xE00),
    DN(A_5,2,0xC06),
    DN(___,0,0xE00),
    DN(C_6,2,0xC06),
    DN(___,0,0xE00),
    DN(A_5,2,0xC06),
    DN(___,0,0xE00),
    DN(D_6,2,0xC06),
    DN(___,0,0xE00),
    DN(A_5,2,0xC06),
    DN(___,0,0xE00),
    DN(E_6,2,0xC06),
    DN(___,0,0xE00),
    DN(A_5,2,0xC06),
    DN(___,0,0xE00),
    DN(D_6,2,0xC06),
    DN(___,0,0xE00),
    DN(A_5,2,0xC06),
    DN(___,0,0x000),
    DN(___,0,0xE00),
    DN(___,0,0x000),
    DN(A_5,2,0xC06),
    DN(___,0,0xE00),
    DN(D_6,2,0xC06),
    DN(___,0,0xE00),
    DN(F_6,2,0xC06),
    DN(___,0,0xE00),
    DN(E_6,2,0xC06),
    DN(___,0,0xE00),
    DN(A_5,2,0xC06),
    DN(___,0,0xE00),
    DN(D_6,2,0xC06),
    DN(___,0,0xE00),
    DN(A_5,2,0xC06),
    DN(___,0,0xE00),
    DN(C_6,2,0xC06),
    DN(___,0,0xE00),
    DN(A_5,2,0xC06),
    DN(___,0,0xE00),
    DN(D_6,2,0xC06),
    DN(___,0,0xE00),
    DN(A_5,2,0xC06),
    DN(___,0,0xE00),
    DN(E_6,2,0xC06),
    DN(___,0,0xE00),
    DN(A_5,2,0xC06),
    DN(___,0,0xE00),
    DN(F_6,2,0xC06),
    DN(___,0,0xE00),
    DN(G_6,2,0xC06),
    DN(___,0,0x000),
    DN(___,0,0xE00),
    DN(___,0,0x000),
    DN(A_5,2,0xC06),
    DN(___,0,0xE00),
    DN(D_6,2,0xC06),
    DN(___,0,0xE00),
    DN(F_6,2,0xC06),
    DN(___,0,0xE00),
};
const unsigned char P131[] = {
    DN(C_5,3,0xE03),
    DN(___,0,0x000),
    DN(___,0,0x000),
    DN(___,0,0x000),
    DN(C_6,4,0xE03),
    DN(___,0,0x000),
    DN(___,0,0x000),
    DN(___,0,0x000),
    DN(C_5,3,0xE03),
    DN(___,0,0x000),
    DN(___,0,0x000),
    DN(___,0,0x000),
    DN(C_6,4,0xE03),
    DN(C_8,1,0xE02),
    DN(C_8,1,0xE02),
    DN(C_8,1,0xE02),
    DN(C_5,3,0xE03),
    DN(___,0,0x000),
    DN(___,0,0x000),
    DN(___,0,0x000),
    DN(C_6,4,0xE03),
    DN(___,0,0x000),
    DN(___,0,0x000),
    DN(___,0,0x000),
    DN(C_5,3,0xE03),
    DN(___,0,0x000),
    DN(___,0,0x000),
    DN(___,0,0x000),
    DN(C_6,4,0xE03),
    DN(C_8,1,0xE02),
    DN(C_8,1,0xE02),
    DN(C_8,1,0xE02),
    DN(C_5,3,0xE03),
    DN(___,0,0x000),
    DN(___,0,0x000),
    DN(___,0,0x000),
    DN(C_6,4,0xE03),
    DN(___,0,0x000),
    DN(___,0,0x000),
    DN(___,0,0x000),
    DN(C_5,3,0xE03),
    DN(___,0,0x000),
    DN(___,0,0x000),
    DN(___,0,0x000),
    DN(C_6,4,0xE03),
    DN(C_8,1,0xE02),
    DN(C_8,1,0xE02),
    DN(C_8,1,0xE02),
    DN(C_5,3,0xE03),
    DN(___,0,0x000),
    DN(___,0,0x000),
    DN(___,0,0x000),
    DN(C_6,4,0xE03),
    DN(___,0,0x000),
    DN(___,0,0x000),
    DN(___,0,0x000),
    DN(C_5,3,0xE03),
    DN(___,0,0x000),
    DN(___,0,0x000),
    DN(___,0,0x000),
    DN(C_6,4,0xE03),
    DN(C_8,1,0xE02),
    DN(C_8,1,0xE02),
    DN(C_8,1,0xE02),
};
const unsigned char P132[] = {
    DN(A_5,6,0xF06),
    DN(___,0,0x000),
    DN(___,0,0x000),
    DN(___,0,0x000),
    DN(___,0,0x000),
    DN(___,0,0x000),
    DN(___,0,0x000),
    DN(___,0,0x000),
    DN(___,0,0x000),
    DN(___,0,0x000),
    DN(___,0,0x000),
    DN(___,0,0xE05),
    DN(G_5,6,0xE05),
    DN(A_5,6,0xE05),
    DN(As5,6,0xE05),
    DN(C_6,6,0xE05),
    DN(D_6,6,0x000),
    DN(___,0,0x000),
    DN(___,0,0x000),
    DN(___,0,0x000),
    DN(___,0,0x000),
    DN(___,0,0x000),
    DN(___,0,0x000),
    DN(___,0,0xE05),
    DN(C_6,6,0x000),
    DN(___,0,0x000),
    DN(___,0,0x000),
    DN(___,0,0xE05),
    DN(As5,6,0x000),
    DN(___,0,0x000),
    DN(___,0,0x000),
    DN(___,0,0xE05),
    DN(C_6,6,0x000),
    DN(___,0,0xE05),
    DN(A_5,6,0x000),
    DN(___,0,0xE05),
    DN(F_5,6,0x000),
    DN(___,0,0x000),
    DN(___,0,0x000),
    DN(___,0,0x000),
    DN(___,0,0x000),
    DN(___,0,0xE05),
    DN(F_5,6,0x000),
    DN(C_3,6,0xE05),
    DN(G_5,6,0x000),
    DN(C_3,6,0xE05),
    DN(A_5,6,0x000),
    DN(C_3,6,0xE05),
    DN(As5,6,0x000),
    DN(___,0,0x000),
    DN(___,0,0x000),
    DN(___,0,0x000),
    DN(___,0,0x000),
    DN(___,0,0xE03),
    DN(G_5,6,0x000),
    DN(___,0,0x000),
    DN(___,0,0x000),
    DN(___,0,0x000),
    DN(___,0,0x000),
    DN(___,0,0xE03),
    DN(E_5,6,0x000),
    DN(___,0,0x000),
    DN(___,0,0x000),
    DN(___,0,0xE03),
};
const unsigned char P133[] = {
    DN(A_5,6,0xF06),
    DN(___,0,0x000),
    DN(___,0,0x000),
    DN(___,0,0x000),
    DN(___,0,0x000),
    DN(___,0,0x000),
    DN(___,0,0x000),
    DN(___,0,0x000),
    DN(___,0,0x000),
    DN(___,0,0x000),
    DN(___,0,0x000),
    DN(___,0,0xE05),
    DN(E_6,6,0xE05),
    DN(F_6,6,0xE05),
    DN(G_6,6,0xE05),
    DN(A_6,6,0xE05),
    DN(As6,6,0x000),
    DN(___,0,0x000),
    DN(___,0,0x000),
    DN(___,0,0x000),
    DN(___,0,0x000),
    DN(___,0,0x000),
    DN(___,0,0x000),
    DN(___,0,0xE05),
    DN(A_6,6,0x000),
    DN(___,0,0x000),
    DN(___,0,0x000),
    DN(___,0,0xE05),
    DN(G_6,6,0x000),
    DN(___,0,0x000),
    DN(___,0,0x000),
    DN(___,0,0xE05),
    DN(A_6,6,0x000),
    DN(___,0,0xE05),
    DN(F_6,6,0x000),
    DN(___,0,0xE05),
    DN(C_7,6,0x000),
    DN(___,0,0x000),
    DN(___,0,0x000),
    DN(___,0,0x000),
    DN(___,0,0x000),
    DN(___,0,0xE05),
    DN(C_7,6,0x000),
    DN(___,0,0xE05),
    DN(E_7,6,0x000),
    DN(___,0,0xE05),
    DN(F_7,6,0x000),
    DN(___,0,0xE05),
    DN(G_7,6,0x000),
    DN(___,0,0x000),
    DN(___,0,0x000),
    DN(___,0,0x000),
    DN(___,0,0x000),
    DN(___,0,0xE03),
    DN(E_7,6,0x000),
    DN(___,0,0x000),
    DN(___,0,0x000),
    DN(___,0,0x000),
    DN(___,0,0x000),
    DN(___,0,0xE03),
    DN(C_7,6,0x000),
    DN(___,0,0x000),
    DN(___,0,0x000),
    DN(___,0,0xE03),
};
const unsigned char P134[] = {
    DN(F_6,2,0xC06),
    DN(___,0,0x000),
    DN(___,0,0x000),
    DN(___,0,0x000),
    DN(___,0,0x000),
    DN(___,0,0x000),
    DN(___,0,0x000),
    DN(___,0,0x000),
    DN(___,0,0x000),
    DN(___,0,0x000),
    DN(___,0,0x000),
    DN(___,0,0x000),
    DN(___,0,0x000),
    DN(___,0,0x000),
    DN(___,0,0x000),
    DN(___,0,0x000),
    DN(___,0,0x000),
    DN(___,0,0x000),
    DN(___,0,0x000),
    DN(___,0,0x000),
    DN(___,0,0x000),
    DN(___,0,0x000),
    DN(___,0,0x000),
    DN(___,0,0x000),
    DN(___,0,0x000),
    DN(___,0,0x000),
    DN(___,0,0x000),
    DN(___,0,0x000),
    DN(___,0,0x000),
    DN(___,0,0x000),
    DN(___,0,0x000),
    DN(___,0,0x000),
    DN(___,0,0xE00),
    DN(___,0,0x000),
    DN(C_6,2,0xC06),
    DN(___,0,0xE00),
    DN(___,0,0x000),
    DN(___,0,0x000),
    DN(Ds6,2,0xC06),
    DN(___,0,0xE00),
    DN(___,0,0x000),
    DN(___,0,0x000),
    DN(As5,2,0xC06),
    DN(___,0,0xE00),
    DN(___,0,0x000),
    DN(___,0,0x000),
    DN(C_6,2,0xC06),
    DN(___,0,0xE00),
    DN(C_6,2,0xC06),
    DN(___,0,0xE00),
    DN(Gs5,2,0xC06),
    DN(___,0,0xE00),
    DN(As5,2,0xC06),
    DN(___,0,0xE00),
    DN(C_6,2,0xC06),
    DN(___,0,0xE00),
    DN(Ds6,2,0xC06),
    DN(___,0,0xE00),
    DN(F_6,2,0xC06),
    DN(___,0,0x000),
    DN(___,0,0x000),
    DN(___,0,0x000),
    DN(Ds6,2,0xC06),
    DN(___,0,0xE00),
};
const unsigned char P135[] = {
    DN(F_4,1,0xC08),
    DN(___,0,0xE00),
    DN(F_4,1,0xC08),
    DN(Ds4,1,0xC08),
    DN(C_4,1,0xC08),
    DN(___,0,0xE00),
    DN(Ds4,1,0xC08),
    DN(___,0,0xE00),
    DN(F_4,1,0xC08),
    DN(___,0,0xE00),
    DN(F_4,1,0xC08),
    DN(Ds4,1,0xC08),
    DN(C_4,1,0xC08),
    DN(___,0,0xE00),
    DN(Ds4,1,0xC08),
    DN(___,0,0xE00),
    DN(F_4,1,0xC08),
    DN(___,0,0xE00),
    DN(F_4,1,0xC08),
    DN(Ds4,1,0xC08),
    DN(C_4,1,0xC08),
    DN(___,0,0xE00),
    DN(Ds4,1,0xC08),
    DN(___,0,0xE00),
    DN(F_4,1,0xC08),
    DN(___,0,0xE00),
    DN(Fs4,1,0xC08),
    DN(___,0,0xE00),
    DN(G_4,1,0xC08),
    DN(___,0,0xE00),
    DN(Gs4,1,0xC08),
    DN(___,0,0x000),
    DN(___,0,0x000),
    DN(___,0,0xE00),
    DN(Gs4,1,0xC08),
    DN(Fs4,1,0xC08),
    DN(Ds4,1,0xC08),
    DN(___,0,0xE00),
    DN(Fs4,1,0xC08),
    DN(___,0,0xE00),
    DN(Gs4,1,0xC08),
    DN(___,0,0xE00),
    DN(Gs4,1,0xC08),
    DN(Fs4,1,0xC08),
    DN(Ds4,1,0xC08),
    DN(___,0,0xE00),
    DN(Fs4,1,0xC08),
    DN(___,0,0xE00),
    DN(Gs4,1,0xC08),
    DN(___,0,0xE00),
    DN(Gs4,1,0xC08),
    DN(Fs4,1,0xC08),
    DN(Ds4,1,0xC08),
    DN(___,0,0xE00),
    DN(Fs4,1,0xC08),
    DN(___,0,0xE00),
    DN(Gs4,1,0xC08),
    DN(___,0,0xE00),
    DN(G_4,1,0xC08),
    DN(___,0,0xE00),
    DN(Fs4,1,0xC08),
    DN(___,0,0xE00),
    DN(F_4,1,0xC08),
    DN(___,0,0x000),
};
const unsigned char P136[] = {
    DN(As5,6,0xF06),
    DN(___,0,0x000),
    DN(___,0,0x000),
    DN(___,0,0x000),
    DN(___,0,0x000),
    DN(___,0,0x000),
    DN(___,0,0x000),
    DN(___,0,0x000),
    DN(___,0,0x000),
    DN(___,0,0x000),
    DN(___,0,0x000),
    DN(___,0,0x000),
    DN(___,0,0x000),
    DN(___,0,0x000),
    DN(___,0,0x000),
    DN(___,0,0x000),
    DN(___,0,0x000),
    DN(___,0,0x000),
    DN(___,0,0x000),
    DN(___,0,0x000),
    DN(___,0,0x000),
    DN(___,0,0x000),
    DN(___,0,0x000),
    DN(___,0,0x000),
    DN(___,0,0x000),
    DN(___,0,0x000),
    DN(___,0,0x000),
    DN(___,0,0x000),
    DN(___,0,0x000),
    DN(___,0,0x000),
    DN(___,0,0x000),
    DN(___,0,0x000),
    DN(C_3,6,0x000),
    DN(___,0,0x000),
    DN(___,0,0x000),
    DN(___,0,0x000),
    DN(___,0,0x000),
    DN(___,0,0x000),
    DN(___,0,0x000),
    DN(___,0,0x000),
    DN(___,0,0x000),
    DN(___,0,0x000),
    DN(___,0,0x000),
    DN(___,0,0x000),
    DN(___,0,0x000),
    DN(___,0,0x000),
    DN(___,0,0x000),
    DN(___,0,0xE05),
    DN(C_3,6,0x000),
    DN(___,0,0x000),
    DN(___,0,0x000),
    DN(___,0,0x000),
    DN(___,0,0x000),
    DN(___,0,0x000),
    DN(___,0,0x000),
    DN(___,0,0x000),
    DN(___,0,0x000),
    DN(___,0,0x000),
    DN(___,0,0x000),
    DN(___,0,0x000),
    DN(___,0,0x000),
    DN(___,0,0x000),
    DN(___,0,0x000),
    DN(___,0,0xE05),
};
const unsigned char P137[] = {
    DN(C_5,3,0xE03),
    DN(___,0,0x000),
    DN(C_8,1,0xE02),
    DN(C_8,1,0xE02),
    DN(C_6,4,0xE03),
    DN(___,0,0x000),
    DN(C_8,1,0xE02),
    DN(C_8,1,0xE02),
    DN(C_5,3,0xE03),
    DN(___,0,0x000),
    DN(C_8,1,0xE02),
    DN(C_8,1,0xE02),
    DN(C_6,4,0xE03),
    DN(___,0,0x000),
    DN(C_8,1,0xE02),
    DN(C_8,1,0xE02),
    DN(C_5,3,0xE03),
    DN(___,0,0x000),
    DN(C_8,1,0xE02),
    DN(C_8,1,0xE02),
    DN(C_6,4,0xE03),
    DN(___,0,0x000),
    DN(C_8,1,0xE02),
    DN(C_8,1,0xE02),
    DN(C_5,3,0xE03),
    DN(___,0,0x000),
    DN(C_8,1,0xE02),
    DN(C_8,1,0xE02),
    DN(C_6,4,0xE03),
    DN(___,0,0x000),
    DN(C_8,1,0xE02),
    DN(C_8,1,0xE02),
    DN(C_5,3,0xE03),
    DN(___,0,0x000),
    DN(C_8,1,0xE02),
    DN(C_8,1,0xE02),
    DN(C_6,4,0xE03),
    DN(___,0,0x000),
    DN(C_8,1,0xE02),
    DN(C_8,1,0xE02),
    DN(C_5,3,0xE03),
    DN(___,0,0x000),
    DN(C_8,1,0xE02),
    DN(C_8,1,0xE02),
    DN(C_6,4,0xE03),
    DN(___,0,0x000),
    DN(C_8,1,0xE02),
    DN(C_8,1,0xE02),
    DN(C_5,3,0xE03),
    DN(___,0,0x000),
    DN(C_8,1,0xE02),
    DN(C_8,1,0xE02),
    DN(C_6,4,0xE03),
    DN(___,0,0x000),
    DN(C_8,1,0xE02),
    DN(C_8,1,0xE02),
    DN(C_5,3,0xE03),
    DN(___,0,0x000),
    DN(C_8,1,0xE02),
    DN(C_8,1,0xE02),
    DN(C_6,4,0xE03),
    DN(___,0,0x000),
    DN(C_8,1,0xE02),
    DN(C_8,1,0xE02),
};
const unsigned char P138[] = {
    DN(F_6,2,0xC06),
    DN(___,0,0xE00),
    DN(C_6,2,0xC06),
    DN(___,0,0xE00),
    DN(___,0,0x000),
    DN(___,0,0x000),
    DN(Ds6,2,0xC06),
    DN(___,0,0xE00),
    DN(___,0,0x000),
    DN(___,0,0x000),
    DN(As5,2,0xC06),
    DN(___,0,0xE00),
    DN(___,0,0x000),
    DN(___,0,0x000),
    DN(C_6,2,0xC06),
    DN(___,0,0xE00),
    DN(C_6,2,0xC06),
    DN(___,0,0xE00),
    DN(Gs5,2,0xC06),
    DN(___,0,0xE00),
    DN(___,0,0x000),
    DN(___,0,0x000),
    DN(As5,2,0xC06),
    DN(___,0,0xE00),
    DN(Ds5,2,0xC06),
    DN(___,0,0x000),
    DN(___,0,0x000),
    DN(___,0,0x000),
    DN(F_5,2,0xC06),
    DN(___,0,0xE00),
    DN(___,0,0x000),
    DN(___,0,0x000),
    DN(F_6,2,0xC06),
    DN(___,0,0xE00),
    DN(C_6,2,0xC06),
    DN(___,0,0xE00),
    DN(___,0,0x000),
    DN(___,0,0x000),
    DN(Ds6,2,0xC06),
    DN(___,0,0xE00),
    DN(___,0,0x000),
    DN(___,0,0x000),
    DN(As5,2,0xC06),
    DN(___,0,0xE00),
    DN(___,0,0x000),
    DN(___,0,0x000),
    DN(C_6,2,0xC06),
    DN(___,0,0xE00),
    DN(C_6,2,0xC06),
    DN(___,0,0x000),
    DN(Gs5,6,0xC06),
    DN(___,0,0xE00),
    DN(As5,2,0xC06),
    DN(___,0,0xE00),
    DN(C_6,2,0xC06),
    DN(___,0,0xE00),
    DN(Ds6,2,0xC06),
    DN(___,0,0xE00),
    DN(F_6,2,0xC06),
    DN(___,0,0x000),
    DN(___,0,0x000),
    DN(___,0,0x000),
    DN(Ds6,2,0xC06),
    DN(___,0,0xE00),
};
const unsigned char P139[] = {
    DN(___,0,0xF06),
    DN(___,0,0xE00),
    DN(F_4,1,0xC08),
    DN(Ds4,1,0xC08),
    DN(C_4,1,0xC08),
    DN(___,0,0xE00),
    DN(Ds4,1,0xC08),
    DN(___,0,0xE00),
    DN(F_4,1,0xC08),
    DN(___,0,0xE00),
    DN(F_4,1,0xC08),
    DN(Ds4,1,0xC08),
    DN(C_4,1,0xC08),
    DN(___,0,0xE00),
    DN(Ds4,1,0xC08),
    DN(___,0,0xE00),
    DN(F_4,1,0xC08),
    DN(___,0,0xE00),
    DN(F_4,1,0xC08),
    DN(Ds4,1,0xC08),
    DN(C_4,1,0xC08),
    DN(___,0,0xE00),
    DN(Ds4,1,0xC08),
    DN(___,0,0xE00),
    DN(F_4,1,0xC08),
    DN(___,0,0xE00),
    DN(Fs4,1,0xC08),
    DN(___,0,0xE00),
    DN(G_4,1,0xC08),
    DN(___,0,0xE00),
    DN(Gs4,1,0xC08),
    DN(___,0,0x000),
    DN(___,0,0x000),
    DN(___,0,0xE00),
    DN(Gs4,1,0xC08),
    DN(Fs4,1,0xC08),
    DN(Ds4,1,0xC08),
    DN(___,0,0xE00),
    DN(Fs4,1,0xC08),
    DN(___,0,0xE00),
    DN(Gs4,1,0xC08),
    DN(___,0,0xE00),
    DN(Gs4,1,0xC08),
    DN(Fs4,1,0xC08),
    DN(Ds4,1,0xC08),
    DN(___,0,0xE00),
    DN(Fs4,1,0xC08),
    DN(___,0,0xE00),
    DN(Gs4,1,0xC08),
    DN(___,0,0xE00),
    DN(Gs4,1,0xC08),
    DN(Fs4,1,0xC08),
    DN(Ds4,1,0xC08),
    DN(___,0,0xE00),
    DN(Fs4,1,0xC08),
    DN(___,0,0xE00),
    DN(Gs4,1,0xC08),
    DN(___,0,0xE00),
    DN(G_4,1,0xC08),
    DN(___,0,0xE00),
    DN(Fs4,1,0xC08),
    DN(___,0,0xE00),
    DN(F_4,1,0xC08),
    DN(___,0,0x000),
};
const unsigned char P140[] = {
    DN(F_5,6,0xE05),
    DN(G_5,6,0xE05),
    DN(Gs5,6,0xE05),
    DN(G_5,6,0xE05),
    DN(F_5,6,0x000),
    DN(___,0,0xE00),
    DN(C_3,6,0x000),
    DN(___,0,0x000),
    DN(F_5,6,0xE05),
    DN(G_5,6,0xE05),
    DN(Gs5,6,0xE05),
    DN(As5,6,0xE05),
    DN(C_6,6,0x000),
    DN(___,0,0xE00),
    DN(C_3,6,0x000),
    DN(___,0,0x000),
    DN(As5,6,0xE05),
    DN(C_6,6,0xE05),
    DN(Cs6,6,0xE05),
    DN(Ds6,6,0xE05),
    DN(F_6,6,0x000),
    DN(___,0,0xE00),
    DN(C_3,6,0x000),
    DN(___,0,0x000),
    DN(F_6,6,0xE05),
    DN(G_6,6,0xE05),
    DN(Gs6,6,0xE05),
    DN(As6,6,0xE05),
    DN(C_7,6,0x000),
    DN(___,0,0x000),
    DN(C_3,6,0x000),
    DN(___,0,0x000),
    DN(C_7,6,0x000),
    DN(___,0,0xE05),
    DN(C_7,6,0x000),
    DN(C_3,6,0x000),
    DN(C_7,6,0x000),
    DN(C_3,6,0x000),
    DN(Cs7,6,0x000),
    DN(C_3,6,0x000),
    DN(As6,6,0x000),
    DN(___,0,0x000),
    DN(___,0,0x000),
    DN(___,0,0xE05),
    DN(As6,6,0x000),
    DN(___,0,0x000),
    DN(___,0,0x000),
    DN(___,0,0x000),
    DN(___,0,0x000),
    DN(___,0,0xE05),
    DN(Ds7,6,0x000),
    DN(___,0,0x000),
    DN(As6,6,0x000),
    DN(___,0,0x000),
    DN(C_7,6,0x000),
    DN(___,0,0x000),
    DN(Gs6,6,0x000),
    DN(___,0,0x000),
    DN(___,0,0x000),
    DN(___,0,0xE05),
    DN(C_7,6,0x000),
    DN(___,0,0x000),
    DN(___,0,0x000),
    DN(___,0,0xE05),
};
const unsigned char P141[] = {
    DN(F_6,2,0xC06),
    DN(___,0,0xE00),
    DN(C_6,2,0xC06),
    DN(___,0,0xE00),
    DN(___,0,0x000),
    DN(___,0,0x000),
    DN(Ds6,2,0xC06),
    DN(___,0,0xE00),
    DN(___,0,0x000),
    DN(___,0,0x000),
    DN(As5,2,0xC06),
    DN(___,0,0xE00),
    DN(___,0,0x000),
    DN(___,0,0x000),
    DN(C_6,2,0xC06),
    DN(___,0,0xE00),
    DN(C_6,2,0xC06),
    DN(___,0,0x000),
    DN(Gs5,2,0xC06),
    DN(___,0,0xE00),
    DN(___,0,0x000),
    DN(___,0,0x000),
    DN(As5,2,0xC06),
    DN(___,0,0xE00),
    DN(Ds5,2,0xC06),
    DN(___,0,0x000),
    DN(___,0,0x000),
    DN(___,0,0x000),
    DN(F_5,2,0xC06),
    DN(___,0,0xE00),
    DN(___,0,0x000),
    DN(___,0,0x000),
    DN(F_6,2,0xC06),
    DN(___,0,0xE00),
    DN(C_6,2,0xC06),
    DN(___,0,0xE00),
    DN(___,0,0x000),
    DN(___,0,0x000),
    DN(Ds6,2,0xC06),
    DN(___,0,0xE00),
    DN(___,0,0x000),
    DN(___,0,0x000),
    DN(As5,2,0xC06),
    DN(___,0,0xE00),
    DN(___,0,0x000),
    DN(___,0,0x000),
    DN(C_6,2,0xC06),
    DN(___,0,0x000),
    DN(___,0,0x000),
    DN(___,0,0xE00),
    DN(Cs6,2,0xC06),
    DN(___,0,0xE00),
    DN(Ds6,2,0xC06),
    DN(___,0,0xE00),
    DN(Fs6,2,0xC06),
    DN(___,0,0xE00),
    DN(C_6,2,0xC06),
    DN(___,0,0xE00),
    DN(Cs6,2,0xC06),
    DN(___,0,0xE00),
    DN(D_6,2,0xC06),
    DN(___,0,0xE00),
    DN(E_6,2,0xC06),
    DN(___,0,0x000),
};
const unsigned char P142[] = {
    DN(___,0,0xF06),
    DN(___,0,0xE00),
    DN(F_4,1,0xC08),
    DN(Ds4,1,0xC08),
    DN(C_4,1,0xC08),
    DN(___,0,0xE00),
    DN(Ds4,1,0xC08),
    DN(___,0,0xE00),
    DN(F_4,1,0xC08),
    DN(___,0,0xE00),
    DN(F_4,1,0xC08),
    DN(Ds4,1,0xC08),
    DN(C_4,1,0xC08),
    DN(___,0,0xE00),
    DN(Ds4,1,0xC08),
    DN(___,0,0xE00),
    DN(F_4,1,0xC08),
    DN(___,0,0xE00),
    DN(F_4,1,0xC08),
    DN(Ds4,1,0xC08),
    DN(C_4,1,0xC08),
    DN(___,0,0xE00),
    DN(Ds4,1,0xC08),
    DN(___,0,0xE00),
    DN(F_4,1,0xC08),
    DN(___,0,0xE00),
    DN(Fs4,1,0xC08),
    DN(___,0,0xE00),
    DN(G_4,1,0xC08),
    DN(___,0,0xE00),
    DN(Gs4,1,0xC08),
    DN(___,0,0x000),
    DN(___,0,0x000),
    DN(___,0,0xE00),
    DN(Gs4,1,0xC08),
    DN(Fs4,1,0xC08),
    DN(Ds4,1,0xC08),
    DN(___,0,0xE00),
    DN(Fs4,1,0xC08),
    DN(___,0,0xE00),
    DN(Gs4,1,0xC08),
    DN(___,0,0xE00),
    DN(Gs4,1,0xC08),
    DN(Fs4,1,0xC08),
    DN(Ds4,1,0xC08),
    DN(___,0,0xE00),
    DN(Fs4,1,0xC08),
    DN(___,0,0xE00),
    DN(Gs4,1,0xC08),
    DN(___,0,0xE00),
    DN(Gs4,1,0xC08),
    DN(Fs4,1,0xC08),
    DN(Ds4,1,0xC08),
    DN(___,0,0xE00),
    DN(Fs4,1,0xC08),
    DN(___,0,0xE00),
    DN(Gs4,1,0xC08),
    DN(___,0,0xE00),
    DN(A_4,6,0xC08),
    DN(___,0,0xE00),
    DN(As4,6,0xC08),
    DN(___,0,0xE00),
    DN(B_4,6,0xC08),
    DN(___,0,0x000),
};
const unsigned char P143[] = {
    DN(F_5,6,0xE05),
    DN(G_5,6,0xE05),
    DN(Gs5,6,0xE05),
    DN(G_5,6,0xE05),
    DN(F_5,6,0x000),
    DN(___,0,0xE00),
    DN(C_3,6,0x000),
    DN(___,0,0x000),
    DN(F_5,6,0xE05),
    DN(G_5,6,0xE05),
    DN(Gs5,6,0xE05),
    DN(As5,6,0xE05),
    DN(C_6,6,0x000),
    DN(___,0,0xE00),
    DN(C_3,6,0x000),
    DN(___,0,0x000),
    DN(As5,6,0xE05),
    DN(C_6,6,0xE05),
    DN(Cs6,6,0xE05),
    DN(Ds6,6,0xE05),
    DN(F_6,6,0x000),
    DN(___,0,0x000),
    DN(C_3,6,0x000),
    DN(___,0,0x000),
    DN(F_6,6,0xE05),
    DN(G_6,6,0xE05),
    DN(Gs6,6,0xE05),
    DN(As6,6,0xE05),
    DN(C_7,6,0x000),
    DN(___,0,0x000),
    DN(___,0,0x000),
    DN(___,0,0xE05),
    DN(C_7,6,0x000),
    DN(___,0,0xE05),
    DN(C_7,6,0x000),
    DN(C_3,6,0x000),
    DN(C_7,6,0x000),
    DN(___,0,0xE00),
    DN(Cs7,6,0x000),
    DN(___,0,0xE00),
    DN(As6,6,0x000),
    DN(___,0,0x000),
    DN(___,0,0x000),
    DN(___,0,0xE05),
    DN(C_7,6,0x000),
    DN(___,0,0x000),
    DN(___,0,0x000),
    DN(___,0,0x000),
    DN(___,0,0x000),
    DN(C_3,6,0x000),
    DN(Cs6,6,0x000),
    DN(___,0,0xE05),
    DN(Ds6,6,0x000),
    DN(___,0,0xE05),
    DN(Fs6,6,0x000),
    DN(___,0,0xE05),
    DN(Gs6,6,0x000),
    DN(___,0,0xE05),
    DN(A_6,6,0x000),
    DN(___,0,0xE05),
    DN(As6,6,0x000),
    DN(___,0,0xE05),
    DN(B_6,6,0x000),
    DN(___,0,0x000),
};
const unsigned char P144[] = {
    DN(___,0,0x000),
    DN(___,0,0x000),
    DN(___,0,0x000),
    DN(___,0,0x000),
    DN(___,0,0x000),
    DN(___,0,0x000),
    DN(___,0,0x000),
    DN(___,0,0x000),
    DN(___,0,0x000),
    DN(___,0,0x000),
    DN(D_6,2,0xC06),
    DN(___,0,0xE00),
    DN(Cs6,2,0xC06),
    DN(___,0,0xE00),
    DN(B_5,2,0xC06),
    DN(___,0,0x000),
    DN(___,0,0x000),
    DN(___,0,0x000),
    DN(___,0,0x000),
    DN(___,0,0x000),
    DN(___,0,0x000),
    DN(___,0,0x000),
    DN(___,0,0x000),
    DN(___,0,0x000),
    DN(E_6,2,0xC06),
    DN(___,0,0xE00),
    DN(F_6,2,0xC06),
    DN(___,0,0xE00),
    DN(Fs6,2,0xC06),
    DN(___,0,0xE00),
    DN(G_6,2,0xC06),
    DN(___,0,0x000),
    DN(___,0,0x000),
    DN(___,0,0x000),
    DN(___,0,0x000),
    DN(___,0,0x000),
    DN(___,0,0x000),
    DN(___,0,0x000),
    DN(___,0,0x000),
    DN(___,0,0x000),
    DN(___,0,0x000),
    DN(___,0,0x000),
    DN(Fs6,2,0xC06),
    DN(___,0,0xE00),
    DN(G_6,2,0xC06),
    DN(___,0,0xE00),
    DN(A_6,2,0xC06),
    DN(___,0,0x000),
    DN(___,0,0x000),
    DN(___,0,0x000),
    DN(G_6,2,0xC06),
    DN(___,0,0xE00),
    DN(A_6,2,0xC06),
    DN(___,0,0xE00),
    DN(B_6,2,0xC06),
    DN(___,0,0x000),
    DN(___,0,0x000),
    DN(___,0,0x000),
    DN(___,0,0x000),
    DN(___,0,0x000),
    DN(___,0,0x000),
    DN(___,0,0x000),
    DN(___,0,0x000),
    DN(___,0,0x000),
};
const unsigned char P145[] = {
    DN(___,0,0xF06),
    DN(___,0,0xE00),
    DN(B_4,1,0xC08),
    DN(A_4,1,0xC08),
    DN(Fs4,1,0xC08),
    DN(___,0,0xE00),
    DN(A_4,1,0xC08),
    DN(___,0,0xE00),
    DN(B_4,1,0xC08),
    DN(___,0,0xE00),
    DN(B_4,1,0xC08),
    DN(A_4,1,0xC08),
    DN(Fs4,1,0xC08),
    DN(___,0,0xE00),
    DN(A_4,1,0xC08),
    DN(___,0,0xE00),
    DN(B_4,1,0xC08),
    DN(___,0,0xE00),
    DN(B_4,1,0xC08),
    DN(A_4,1,0xC08),
    DN(Fs4,1,0xC08),
    DN(___,0,0xE00),
    DN(A_4,1,0xC08),
    DN(___,0,0xE00),
    DN(B_4,1,0xC08),
    DN(___,0,0xE00),
    DN(C_5,1,0xC08),
    DN(___,0,0xE00),
    DN(Cs5,1,0xC08),
    DN(___,0,0xE00),
    DN(D_4,1,0xC08),
    DN(___,0,0x000),
    DN(___,0,0x000),
    DN(___,0,0xE00),
    DN(D_4,1,0xC08),
    DN(C_4,1,0xC08),
    DN(A_3,1,0xC08),
    DN(___,0,0xE00),
    DN(C_4,1,0xC08),
    DN(___,0,0xE00),
    DN(D_4,1,0xC08),
    DN(___,0,0xE00),
    DN(D_4,1,0xC08),
    DN(C_4,1,0xC08),
    DN(A_3,1,0xC08),
    DN(___,0,0xE00),
    DN(C_4,1,0xC08),
    DN(___,0,0xE00),
    DN(E_4,1,0xC08),
    DN(___,0,0xE00),
    DN(E_4,1,0xC08),
    DN(D_4,1,0xC08),
    DN(B_3,1,0xC08),
    DN(___,0,0xE00),
    DN(D_4,1,0xC08),
    DN(___,0,0xE00),
    DN(Fs4,1,0xC08),
    DN(___,0,0xE00),
    DN(Fs4,1,0xC08),
    DN(E_4,1,0xC08),
    DN(Cs4,1,0xC08),
    DN(___,0,0x000),
    DN(___,0,0x000),
    DN(___,0,0x000),
};
const unsigned char P146[] = {
    DN(___,0,0x000),
    DN(___,0,0x000),
    DN(___,0,0x000),
    DN(___,0,0x000),
    DN(___,0,0x000),
    DN(___,0,0x000),
    DN(___,0,0x000),
    DN(___,0,0x000),
    DN(___,0,0x000),
    DN(___,0,0x000),
    DN(A_6,6,0x000),
    DN(___,0,0xE00),
    DN(Gs6,6,0x000),
    DN(___,0,0xE00),
    DN(Fs6,6,0x000),
    DN(___,0,0x000),
    DN(___,0,0x000),
    DN(___,0,0x000),
    DN(___,0,0x000),
    DN(___,0,0x000),
    DN(___,0,0x000),
    DN(___,0,0x000),
    DN(___,0,0x000),
    DN(___,0,0x000),
    DN(B_6,6,0x000),
    DN(___,0,0xE00),
    DN(C_7,6,0x000),
    DN(___,0,0xE00),
    DN(Cs7,6,0x000),
    DN(___,0,0xE00),
    DN(D_7,6,0x000),
    DN(___,0,0x000),
    DN(___,0,0x000),
    DN(___,0,0x000),
    DN(___,0,0x000),
    DN(___,0,0x000),
    DN(___,0,0x000),
    DN(___,0,0x000),
    DN(___,0,0x000),
    DN(___,0,0x000),
    DN(___,0,0x000),
    DN(___,0,0x000),
    DN(C_7,6,0x000),
    DN(___,0,0xE00),
    DN(D_7,6,0x000),
    DN(___,0,0xE00),
    DN(E_7,6,0x000),
    DN(___,0,0x000),
    DN(___,0,0x000),
    DN(___,0,0x000),
    DN(D_7,6,0x000),
    DN(___,0,0xE00),
    DN(E_7,6,0x000),
    DN(___,0,0xE00),
    DN(Fs7,6,0x000),
    DN(___,0,0x000),
    DN(___,0,0x000),
    DN(___,0,0x000),
    DN(___,0,0x000),
    DN(___,0,0x000),
    DN(___,0,0x000),
    DN(___,0,0x000),
    DN(___,0,0x000),
    DN(___,0,0xB3B),
};
const unsigned char P189[] = {
    DN(E_6,7,0xC06),
    DN(D_6,7,0xC06),
    DN(E_6,7,0xC06),
    DN(D_6,7,0xC06),
    DN(E_6,7,0xC06),
    DN(F_6,7,0xC06),
    DN(E_6,7,0xC06),
    DN(D_6,7,0xC06),
    DN(E_6,7,0xC06),
    DN(___,0,0x000),
    DN(___,0,0x000),
    DN(___,0,0x000),
    DN(___,0,0x000),
    DN(___,0,0x000),
    DN(___,0,0x000),
    DN(___,0,0x000),
    DN(___,0,0x000),
    DN(___,0,0x000),
    DN(___,0,0x000),
    DN(___,0,0x000),
    DN(___,0,0x000),
    DN(___,0,0x000),
    DN(___,0,0x000),
    DN(___,0,0x000),
    DN(___,0,0x000),
    DN(___,0,0x000),
    DN(___,0,0x000),
    DN(___,0,0x000),
    DN(___,0,0x000),
    DN(___,0,0x000),
    DN(___,0,0x000),
    DN(___,0,0x000),
    DN(___,0,0x000),
    DN(___,0,0x000),
    DN(___,0,0x000),
    DN(___,0,0x000),
    DN(___,0,0x000),
    DN(___,0,0x000),
    DN(___,0,0x000),
    DN(___,0,0x000),
    DN(___,0,0x000),
    DN(___,0,0x000),
    DN(___,0,0x000),
    DN(___,0,0x000),
    DN(___,0,0x000),
    DN(___,0,0x000),
    DN(___,0,0x000),
    DN(___,0,0x000),
    DN(___,0,0x000),
    DN(___,0,0x000),
    DN(___,0,0x000),
    DN(___,0,0x000),
    DN(___,0,0x000),
    DN(___,0,0x000),
    DN(___,0,0x000),
    DN(___,0,0x000),
    DN(___,0,0x000),
    DN(___,0,0x000),
    DN(___,0,0x000),
    DN(___,0,0x000),
    DN(___,0,0x000),
    DN(___,0,0x000),
    DN(___,0,0x000),
    DN(___,0,0x000),
};
const unsigned char P190[] = {
    DN(B_6,7,0xC06),
    DN(A_6,7,0xC06),
    DN(B_6,7,0xC06),
    DN(A_6,7,0xC06),
    DN(B_6,7,0xC06),
    DN(C_7,7,0xC06),
    DN(B_6,7,0xC06),
    DN(A_6,7,0xC06),
    DN(B_6,7,0xC06),
    DN(___,0,0x000),
    DN(___,0,0x000),
    DN(___,0,0x000),
    DN(___,0,0x000),
    DN(___,0,0x000),
    DN(___,0,0x000),
    DN(___,0,0x000),
    DN(___,0,0x000),
    DN(___,0,0x000),
    DN(___,0,0x000),
    DN(___,0,0x000),
    DN(___,0,0x000),
    DN(___,0,0x000),
    DN(___,0,0x000),
    DN(___,0,0x000),
    DN(___,0,0x000),
    DN(___,0,0x000),
    DN(___,0,0x000),
    DN(___,0,0x000),
    DN(___,0,0x000),
    DN(___,0,0x000),
    DN(___,0,0x000),
    DN(___,0,0x000),
    DN(___,0,0x000),
    DN(___,0,0x000),
    DN(___,0,0x000),
    DN(___,0,0x000),
    DN(___,0,0x000),
    DN(___,0,0x000),
    DN(___,0,0x000),
    DN(___,0,0x000),
    DN(___,0,0x000),
    DN(___,0,0x000),
    DN(___,0,0x000),
    DN(___,0,0x000),
    DN(___,0,0x000),
    DN(___,0,0x000),
    DN(___,0,0x000),
    DN(___,0,0x000),
    DN(___,0,0x000),
    DN(___,0,0x000),
    DN(___,0,0x000),
    DN(___,0,0x000),
    DN(___,0,0x000),
    DN(___,0,0x000),
    DN(___,0,0x000),
    DN(___,0,0x000),
    DN(___,0,0x000),
    DN(___,0,0x000),
    DN(___,0,0x000),
    DN(___,0,0x000),
    DN(___,0,0x000),
    DN(___,0,0x000),
    DN(___,0,0x000),
    DN(___,0,0x000),
};
const unsigned char P191[] = {
    DN(C_7,12,0xF08),
    DN(B_6,12,0x000),
    DN(C_7,12,0x000),
    DN(B_6,12,0x000),
    DN(C_7,12,0x000),
    DN(D_7,12,0x000),
    DN(C_7,12,0x000),
    DN(B_6,12,0x000),
    DN(C_7,12,0x000),
    DN(___,0,0x000),
    DN(___,0,0xE00),
    DN(___,0,0x000),
    DN(___,0,0x000),
    DN(___,0,0x000),
    DN(___,0,0x000),
    DN(___,0,0x000),
    DN(___,0,0x000),
    DN(___,0,0x000),
    DN(___,0,0x000),
    DN(___,0,0x000),
    DN(___,0,0x000),
    DN(___,0,0x000),
    DN(___,0,0x000),
    DN(___,0,0x000),
    DN(___,0,0x000),
    DN(___,0,0x000),
    DN(___,0,0x000),
    DN(___,0,0x000),
    DN(___,0,0x000),
    DN(___,0,0x000),
    DN(___,0,0x000),
    DN(___,0,0x000),
    DN(___,0,0x000),
    DN(___,0,0x000),
    DN(___,0,0x000),
    DN(___,0,0x000),
    DN(___,0,0x000),
    DN(___,0,0x000),
    DN(___,0,0x000),
    DN(___,0,0x000),
    DN(___,0,0x000),
    DN(___,0,0x000),
    DN(___,0,0x000),
    DN(___,0,0x000),
    DN(___,0,0x000),
    DN(___,0,0x000),
    DN(___,0,0x000),
    DN(___,0,0x000),
    DN(___,0,0x000),
    DN(___,0,0x000),
    DN(___,0,0x000),
    DN(___,0,0x000),
    DN(___,0,0x000),
    DN(___,0,0x000),
    DN(___,0,0x000),
    DN(___,0,0x000),
    DN(___,0,0x000),
    DN(___,0,0x000),
    DN(___,0,0x000),
    DN(___,0,0x000),
    DN(___,0,0x000),
    DN(___,0,0x000),
    DN(___,0,0x000),
    DN(___,0,0x000),
};

