#pragma bank 1
#include "hUGEDriver.h"

const unsigned char P193[] = {
    DN(G_4,7,0xC06),
    DN(___,0,0x000),
    DN(D_5,7,0xC06),
    DN(___,0,0x000),
    DN(___,0,0x000),
    DN(___,0,0x000),
    DN(G_4,7,0xC06),
    DN(___,0,0x000),
    DN(___,0,0x000),
    DN(___,0,0x000),
    DN(G_4,7,0xC06),
    DN(___,0,0x000),
    DN(Fs4,7,0xC06),
    DN(___,0,0x000),
    DN(___,0,0x000),
    DN(___,0,0x000),
    DN(___,0,0x000),
    DN(___,0,0x000),
    DN(Fs4,7,0xC06),
    DN(___,0,0x000),
    DN(B_4,7,0xC06),
    DN(___,0,0x000),
    DN(A_4,7,0xC06),
    DN(___,0,0x000),
    DN(E_4,7,0xC06),
    DN(___,0,0x000),
    DN(D_5,7,0xC06),
    DN(___,0,0x000),
    DN(___,0,0x000),
    DN(___,0,0x000),
    DN(E_4,7,0xC06),
    DN(___,0,0x000),
    DN(___,0,0x000),
    DN(___,0,0x000),
    DN(E_4,7,0xC06),
    DN(___,0,0x000),
    DN(B_3,7,0xC06),
    DN(___,0,0x000),
    DN(Cs4,7,0xC06),
    DN(___,0,0x000),
    DN(D_4,7,0xC06),
    DN(___,0,0x000),
    DN(Cs4,7,0xC06),
    DN(___,0,0x000),
    DN(D_4,7,0xC06),
    DN(___,0,0x000),
    DN(E_4,7,0xC06),
    DN(___,0,0x000),
    DN(___,0,0x000),
    DN(___,0,0x000),
    DN(___,0,0x000),
    DN(___,0,0x000),
    DN(___,0,0x000),
    DN(___,0,0x000),
    DN(___,0,0x000),
    DN(___,0,0x000),
    DN(___,0,0x000),
    DN(___,0,0x000),
    DN(___,0,0x000),
    DN(___,0,0x000),
    DN(___,0,0x000),
    DN(___,0,0x000),
    DN(___,0,0x000),
    DN(___,0,0x000),
};
const unsigned char P194[] = {
    DN(___,0,0x000),
    DN(B_5,7,0xC08),
    DN(___,0,0x000),
    DN(D_6,7,0xC08),
    DN(___,0,0xE03),
    DN(B_5,7,0xC08),
    DN(Fs6,7,0xC08),
    DN(___,0,0x000),
    DN(E_6,7,0xC08),
    DN(___,0,0x000),
    DN(D_6,7,0xC08),
    DN(___,0,0x000),
    DN(___,0,0x000),
    DN(E_6,7,0xC08),
    DN(___,0,0x000),
    DN(B_5,7,0xC08),
    DN(___,0,0xE03),
    DN(A_5,7,0xC08),
    DN(B_5,7,0xC08),
    DN(___,0,0x000),
    DN(D_6,7,0xC08),
    DN(___,0,0x000),
    DN(___,0,0x000),
    DN(___,0,0x000),
    DN(___,0,0x000),
    DN(B_5,7,0xC08),
    DN(___,0,0x000),
    DN(D_6,7,0xC08),
    DN(___,0,0xE03),
    DN(B_5,7,0xC08),
    DN(Fs6,7,0xC08),
    DN(___,0,0x000),
    DN(E_6,7,0xC08),
    DN(___,0,0x000),
    DN(D_6,7,0xC08),
    DN(___,0,0x000),
    DN(A_6,7,0xC08),
    DN(___,0,0x000),
    DN(G_6,7,0xC08),
    DN(___,0,0x000),
    DN(Fs6,7,0xC08),
    DN(___,0,0x000),
    DN(E_6,7,0xC08),
    DN(D_6,7,0xC08),
    DN(Cs6,7,0xC08),
    DN(___,0,0x000),
    DN(___,0,0x000),
    DN(___,0,0xD01),
    DN(___,0,0x000),
    DN(___,0,0x000),
    DN(___,0,0x000),
    DN(___,0,0x000),
    DN(___,0,0x000),
    DN(___,0,0x000),
    DN(___,0,0x000),
    DN(___,0,0x000),
    DN(___,0,0x000),
    DN(___,0,0x000),
    DN(___,0,0x000),
    DN(___,0,0x000),
    DN(___,0,0x000),
    DN(___,0,0x000),
    DN(___,0,0x000),
    DN(___,0,0x000),
};
const unsigned char P195[] = {
    DN(C_3,9,0xF03),
    DN(___,0,0xF0F),
    DN(___,0,0xF0C),
    DN(___,0,0xF06),
    DN(___,0,0xF0C),
    DN(___,0,0xF06),
    DN(___,0,0xF0C),
    DN(___,0,0xF06),
    DN(___,0,0xF0C),
    DN(___,0,0xF06),
    DN(___,0,0xF0C),
    DN(___,0,0xF06),
    DN(___,0,0xF03),
    DN(___,0,0xF0F),
    DN(___,0,0xF0C),
    DN(___,0,0xF06),
    DN(___,0,0xF0C),
    DN(___,0,0xF06),
    DN(___,0,0xF0C),
    DN(___,0,0xF06),
    DN(___,0,0xF0C),
    DN(___,0,0xF06),
    DN(___,0,0xF0C),
    DN(___,0,0xF06),
    DN(___,0,0xF03),
    DN(___,0,0xF0F),
    DN(___,0,0xF0C),
    DN(___,0,0xF06),
    DN(___,0,0xF0C),
    DN(___,0,0xF06),
    DN(___,0,0xF0C),
    DN(___,0,0xF06),
    DN(___,0,0xF0C),
    DN(___,0,0xF06),
    DN(___,0,0xF0C),
    DN(___,0,0xF06),
    DN(___,0,0xF0C),
    DN(___,0,0xF06),
    DN(___,0,0xF0C),
    DN(___,0,0xF06),
    DN(___,0,0xF0C),
    DN(___,0,0xF06),
    DN(___,0,0xF0C),
    DN(___,0,0xF06),
    DN(___,0,0xF0C),
    DN(___,0,0xF06),
    DN(___,0,0xF0C),
    DN(___,0,0xF06),
    DN(___,0,0x000),
    DN(___,0,0x000),
    DN(___,0,0x000),
    DN(___,0,0x000),
    DN(___,0,0x000),
    DN(___,0,0x000),
    DN(___,0,0x000),
    DN(___,0,0x000),
    DN(___,0,0x000),
    DN(___,0,0x000),
    DN(___,0,0x000),
    DN(___,0,0x000),
    DN(___,0,0x000),
    DN(___,0,0x000),
    DN(___,0,0x000),
    DN(___,0,0x000),
};
const unsigned char P196[] = {
    DN(C_8,1,0xC76),
    DN(___,0,0x000),
    DN(___,0,0x000),
    DN(___,0,0x000),
    DN(C_8,1,0xC16),
    DN(___,0,0x000),
    DN(___,0,0x000),
    DN(C_8,1,0xC14),
    DN(C_8,1,0xC64),
    DN(___,0,0x000),
    DN(C_8,1,0xC64),
    DN(___,0,0x000),
    DN(G_7,1,0xC75),
    DN(___,0,0x000),
    DN(___,0,0x000),
    DN(___,0,0x000),
    DN(C_8,1,0xC16),
    DN(___,0,0x000),
    DN(___,0,0x000),
    DN(C_8,1,0xC14),
    DN(C_8,1,0xC64),
    DN(C_8,1,0xC14),
    DN(C_8,1,0xC64),
    DN(C_8,1,0xC14),
    DN(G_7,1,0xC75),
    DN(___,0,0x000),
    DN(___,0,0x000),
    DN(___,0,0x000),
    DN(C_8,1,0xC16),
    DN(___,0,0x000),
    DN(D_7,1,0xC04),
    DN(___,0,0x000),
    DN(___,0,0xC74),
    DN(___,0,0x000),
    DN(___,0,0x000),
    DN(___,0,0x000),
    DN(C_8,1,0xC15),
    DN(___,0,0x000),
    DN(___,0,0x000),
    DN(___,0,0x000),
    DN(C_8,1,0xC16),
    DN(___,0,0x000),
    DN(C_8,1,0xC76),
    DN(___,0,0x000),
    DN(___,0,0x000),
    DN(C_7,1,0xC16),
    DN(C_7,2,0x000),
    DN(___,0,0x000),
    DN(___,0,0x000),
    DN(___,0,0x000),
    DN(___,0,0x000),
    DN(___,0,0x000),
    DN(___,0,0x000),
    DN(___,0,0x000),
    DN(___,0,0x000),
    DN(___,0,0x000),
    DN(___,0,0x000),
    DN(___,0,0x000),
    DN(___,0,0x000),
    DN(___,0,0x000),
    DN(___,0,0x000),
    DN(___,0,0x000),
    DN(___,0,0x000),
    DN(___,0,0x000),
};
const unsigned char P197[] = {
    DN(G_4,7,0xC06),
    DN(___,0,0x000),
    DN(D_5,7,0xC06),
    DN(___,0,0x000),
    DN(___,0,0x000),
    DN(___,0,0x000),
    DN(G_4,7,0xC06),
    DN(___,0,0x000),
    DN(___,0,0x000),
    DN(___,0,0x000),
    DN(G_4,7,0xC06),
    DN(___,0,0x000),
    DN(Fs4,7,0xC06),
    DN(___,0,0x000),
    DN(___,0,0x000),
    DN(___,0,0x000),
    DN(___,0,0x000),
    DN(___,0,0x000),
    DN(Fs4,7,0xC06),
    DN(___,0,0x000),
    DN(B_4,7,0xC06),
    DN(___,0,0x000),
    DN(A_4,7,0xC06),
    DN(___,0,0x000),
    DN(B_5,7,0xC08),
    DN(___,0,0x000),
    DN(___,0,0x000),
    DN(___,0,0x000),
    DN(___,0,0x000),
    DN(___,0,0x000),
    DN(B_5,7,0xC08),
    DN(___,0,0x000),
    DN(___,0,0x000),
    DN(___,0,0x000),
    DN(___,0,0x000),
    DN(___,0,0x000),
    DN(B_5,7,0xC08),
    DN(___,0,0x000),
    DN(___,0,0x000),
    DN(___,0,0x000),
    DN(___,0,0x000),
    DN(___,0,0x000),
    DN(A_4,7,0xC06),
    DN(___,0,0x000),
    DN(E_5,7,0xC06),
    DN(___,0,0x000),
    DN(G_5,7,0xC06),
    DN(___,0,0x000),
    DN(___,0,0x000),
    DN(___,0,0x000),
    DN(___,0,0x000),
    DN(___,0,0x000),
    DN(___,0,0x000),
    DN(___,0,0x000),
    DN(___,0,0x000),
    DN(___,0,0x000),
    DN(___,0,0x000),
    DN(___,0,0x000),
    DN(___,0,0x000),
    DN(___,0,0x000),
    DN(___,0,0x000),
    DN(___,0,0x000),
    DN(___,0,0x000),
    DN(___,0,0x000),
};
const unsigned char P198[] = {
    DN(___,0,0x000),
    DN(B_5,7,0xC08),
    DN(___,0,0x000),
    DN(D_6,7,0xC08),
    DN(___,0,0xE03),
    DN(B_5,7,0xC08),
    DN(Fs6,7,0xC08),
    DN(___,0,0x000),
    DN(E_6,7,0xC08),
    DN(___,0,0x000),
    DN(D_6,7,0xC08),
    DN(___,0,0x000),
    DN(___,0,0x000),
    DN(E_6,7,0xC08),
    DN(___,0,0x000),
    DN(B_5,7,0xC08),
    DN(___,0,0xE03),
    DN(A_5,7,0xC08),
    DN(B_5,7,0xC08),
    DN(___,0,0x000),
    DN(D_6,7,0xC08),
    DN(___,0,0x000),
    DN(___,0,0x000),
    DN(___,0,0x000),
    DN(E_4,7,0xC06),
    DN(___,0,0x000),
    DN(B_4,7,0xC06),
    DN(___,0,0x000),
    DN(D_5,7,0xC06),
    DN(___,0,0x000),
    DN(Fs4,7,0xC06),
    DN(___,0,0x000),
    DN(Cs5,7,0xC06),
    DN(___,0,0x000),
    DN(E_5,7,0xC06),
    DN(___,0,0x000),
    DN(G_4,7,0xC06),
    DN(___,0,0x000),
    DN(D_5,7,0xC06),
    DN(___,0,0x000),
    DN(Fs5,7,0xC06),
    DN(___,0,0x000),
    DN(A_5,7,0xC08),
    DN(___,0,0x000),
    DN(A_6,3,0xC38),
    DN(___,0,0xE00),
    DN(G_6,3,0xC38),
    DN(___,0,0xD01),
    DN(___,0,0x000),
    DN(___,0,0x000),
    DN(___,0,0x000),
    DN(___,0,0x000),
    DN(___,0,0x000),
    DN(___,0,0x000),
    DN(___,0,0x000),
    DN(___,0,0x000),
    DN(___,0,0x000),
    DN(___,0,0x000),
    DN(___,0,0x000),
    DN(___,0,0x000),
    DN(___,0,0x000),
    DN(___,0,0x000),
    DN(___,0,0x000),
    DN(___,0,0x000),
};
const unsigned char P199[] = {
    DN(C_8,1,0xC76),
    DN(___,0,0x000),
    DN(C_8,1,0xC16),
    DN(___,0,0x000),
    DN(C_8,1,0xC16),
    DN(C_8,1,0xC16),
    DN(C_7,2,0x000),
    DN(___,0,0x000),
    DN(C_8,1,0xC57),
    DN(___,0,0x000),
    DN(C_8,1,0xC16),
    DN(___,0,0x000),
    DN(C_8,1,0xC76),
    DN(___,0,0x000),
    DN(C_8,1,0xC16),
    DN(___,0,0x000),
    DN(C_8,1,0xC16),
    DN(C_8,1,0xC16),
    DN(C_7,2,0x000),
    DN(___,0,0x000),
    DN(C_8,1,0xC57),
    DN(___,0,0x000),
    DN(___,0,0x000),
    DN(___,0,0x000),
    DN(D_7,1,0xC75),
    DN(___,0,0x000),
    DN(___,0,0x000),
    DN(C_8,1,0xC16),
    DN(C_8,1,0xC16),
    DN(___,0,0x000),
    DN(C_8,1,0xC76),
    DN(___,0,0x000),
    DN(___,0,0x000),
    DN(C_8,1,0xC76),
    DN(___,0,0xE00),
    DN(___,0,0x000),
    DN(G_7,1,0xC75),
    DN(___,0,0x000),
    DN(___,0,0x000),
    DN(C_8,1,0xC16),
    DN(C_8,1,0xC16),
    DN(___,0,0x000),
    DN(C_8,1,0xC76),
    DN(___,0,0x000),
    DN(C_8,1,0xC16),
    DN(___,0,0x000),
    DN(C_7,2,0x000),
    DN(___,0,0x000),
    DN(___,0,0x000),
    DN(___,0,0x000),
    DN(___,0,0x000),
    DN(___,0,0x000),
    DN(___,0,0x000),
    DN(___,0,0x000),
    DN(___,0,0x000),
    DN(___,0,0x000),
    DN(___,0,0x000),
    DN(___,0,0x000),
    DN(___,0,0x000),
    DN(___,0,0x000),
    DN(___,0,0x000),
    DN(___,0,0x000),
    DN(___,0,0x000),
    DN(___,0,0x000),
};
const unsigned char P200[] = {
    DN(B_4,2,0xC07),
    DN(___,0,0x000),
    DN(G_5,7,0xC06),
    DN(___,0,0x000),
    DN(Fs5,7,0xC06),
    DN(___,0,0x000),
    DN(D_5,2,0xC07),
    DN(___,0,0x000),
    DN(Fs5,7,0xC06),
    DN(___,0,0x000),
    DN(G_5,7,0xC06),
    DN(___,0,0x000),
    DN(Fs5,2,0xC07),
    DN(___,0,0x000),
    DN(___,0,0x000),
    DN(___,0,0x000),
    DN(___,0,0x000),
    DN(___,0,0x000),
    DN(___,0,0x000),
    DN(___,0,0x000),
    DN(A_5,7,0xC06),
    DN(___,0,0x000),
    DN(A_5,7,0xC06),
    DN(___,0,0x000),
    DN(B_4,2,0xC07),
    DN(___,0,0x000),
    DN(G_5,7,0xC06),
    DN(___,0,0x000),
    DN(___,0,0x000),
    DN(___,0,0x000),
    DN(D_5,2,0xC07),
    DN(___,0,0x000),
    DN(Fs5,7,0xC06),
    DN(___,0,0x000),
    DN(G_5,7,0xC06),
    DN(___,0,0x000),
    DN(Fs5,2,0xC07),
    DN(___,0,0x000),
    DN(___,0,0x000),
    DN(___,0,0x000),
    DN(___,0,0x000),
    DN(___,0,0x000),
    DN(Cs5,7,0xC06),
    DN(___,0,0x000),
    DN(___,0,0x000),
    DN(___,0,0x000),
    DN(___,0,0x000),
    DN(___,0,0x000),
    DN(___,0,0x000),
    DN(___,0,0x000),
    DN(___,0,0x000),
    DN(___,0,0x000),
    DN(___,0,0x000),
    DN(___,0,0x000),
    DN(___,0,0x000),
    DN(___,0,0x000),
    DN(___,0,0x000),
    DN(___,0,0x000),
    DN(___,0,0x000),
    DN(___,0,0x000),
    DN(___,0,0x000),
    DN(___,0,0x000),
    DN(___,0,0x000),
    DN(___,0,0x000),
};
const unsigned char P201[] = {
    DN(G_4,6,0xF03),
    DN(___,0,0xF0F),
    DN(___,0,0xF0C),
    DN(___,0,0xF06),
    DN(C_3,9,0xF0C),
    DN(___,0,0xF06),
    DN(G_4,6,0xF0C),
    DN(___,0,0xF06),
    DN(D_5,6,0xF0C),
    DN(C_3,9,0xF06),
    DN(Cs5,6,0xF0C),
    DN(___,0,0xF06),
    DN(Fs4,6,0xF03),
    DN(___,0,0xF0F),
    DN(___,0,0xF0C),
    DN(___,0,0xF06),
    DN(C_3,9,0xF0C),
    DN(Fs4,6,0xF06),
    DN(Fs4,6,0xF0C),
    DN(C_3,9,0xF06),
    DN(E_4,6,0xF0C),
    DN(C_3,9,0xF06),
    DN(D_4,6,0xF0C),
    DN(___,0,0xF06),
    DN(E_4,6,0xF03),
    DN(___,0,0xF0F),
    DN(___,0,0xF0C),
    DN(___,0,0xF06),
    DN(C_3,9,0xF0C),
    DN(E_4,6,0xF06),
    DN(E_4,6,0xF0C),
    DN(___,0,0xF06),
    DN(B_4,6,0xF0C),
    DN(C_3,9,0xF06),
    DN(A_4,6,0xF0C),
    DN(___,0,0xF06),
    DN(B_3,6,0xF0C),
    DN(___,0,0xF06),
    DN(___,0,0xF0C),
    DN(___,0,0xF06),
    DN(___,0,0xF0C),
    DN(___,0,0xF06),
    DN(Cs4,6,0xF0C),
    DN(___,0,0xF06),
    DN(___,0,0xF0C),
    DN(___,0,0xF06),
    DN(___,0,0xF0C),
    DN(___,0,0xF06),
    DN(___,0,0x000),
    DN(___,0,0x000),
    DN(___,0,0x000),
    DN(___,0,0x000),
    DN(___,0,0x000),
    DN(___,0,0x000),
    DN(___,0,0x000),
    DN(___,0,0x000),
    DN(___,0,0x000),
    DN(___,0,0x000),
    DN(___,0,0x000),
    DN(___,0,0x000),
    DN(___,0,0x000),
    DN(___,0,0x000),
    DN(___,0,0x000),
    DN(___,0,0x000),
};
const unsigned char P202[] = {
    DN(E_7,1,0xC76),
    DN(___,0,0x000),
    DN(___,0,0x000),
    DN(___,0,0x000),
    DN(C_7,2,0x000),
    DN(___,0,0x000),
    DN(___,0,0x000),
    DN(C_8,1,0xC16),
    DN(C_8,1,0xC76),
    DN(___,0,0x000),
    DN(C_7,2,0x000),
    DN(___,0,0x000),
    DN(G_7,1,0xC75),
    DN(___,0,0x000),
    DN(___,0,0x000),
    DN(C_8,1,0xC16),
    DN(C_7,2,0x000),
    DN(___,0,0x000),
    DN(C_8,1,0xC16),
    DN(___,0,0x000),
    DN(C_8,1,0xC16),
    DN(___,0,0x000),
    DN(C_7,1,0xC16),
    DN(___,0,0x000),
    DN(G_7,1,0xC76),
    DN(___,0,0x000),
    DN(C_8,1,0xC16),
    DN(___,0,0x000),
    DN(C_7,2,0x000),
    DN(___,0,0x000),
    DN(C_8,1,0xC16),
    DN(C_8,1,0xC16),
    DN(G_7,1,0xC76),
    DN(___,0,0x000),
    DN(C_7,2,0x000),
    DN(___,0,0x000),
    DN(G_7,1,0xC56),
    DN(___,0,0x000),
    DN(___,0,0x000),
    DN(C_8,1,0xC16),
    DN(C_7,2,0x000),
    DN(___,0,0x000),
    DN(C_8,1,0xC16),
    DN(___,0,0x000),
    DN(G_7,1,0xC76),
    DN(___,0,0x000),
    DN(C_7,2,0x000),
    DN(___,0,0x000),
    DN(___,0,0x000),
    DN(___,0,0x000),
    DN(___,0,0x000),
    DN(___,0,0x000),
    DN(___,0,0x000),
    DN(___,0,0x000),
    DN(___,0,0x000),
    DN(___,0,0x000),
    DN(___,0,0x000),
    DN(___,0,0x000),
    DN(___,0,0x000),
    DN(___,0,0x000),
    DN(___,0,0x000),
    DN(___,0,0x000),
    DN(___,0,0x000),
    DN(___,0,0x000),
};
const unsigned char P203[] = {
    DN(B_4,2,0xC07),
    DN(___,0,0x000),
    DN(G_5,7,0xC06),
    DN(___,0,0x000),
    DN(Fs5,7,0xC06),
    DN(___,0,0x000),
    DN(D_5,2,0xC07),
    DN(___,0,0x000),
    DN(Fs5,7,0xC06),
    DN(___,0,0x000),
    DN(G_5,7,0xC06),
    DN(___,0,0x000),
    DN(Fs5,2,0xC07),
    DN(___,0,0x000),
    DN(___,0,0x000),
    DN(___,0,0x000),
    DN(___,0,0x000),
    DN(___,0,0x000),
    DN(___,0,0x000),
    DN(___,0,0x000),
    DN(A_5,7,0xC06),
    DN(___,0,0x000),
    DN(E_5,2,0xC07),
    DN(___,0,0x000),
    DN(B_5,7,0xC08),
    DN(___,0,0x000),
    DN(___,0,0x000),
    DN(___,0,0x000),
    DN(___,0,0x000),
    DN(___,0,0x000),
    DN(B_5,7,0xC08),
    DN(___,0,0x000),
    DN(___,0,0x000),
    DN(___,0,0x000),
    DN(___,0,0x000),
    DN(___,0,0x000),
    DN(B_5,7,0xC08),
    DN(___,0,0x000),
    DN(___,0,0x000),
    DN(___,0,0x000),
    DN(___,0,0x000),
    DN(___,0,0x000),
    DN(B_5,7,0xC08),
    DN(___,0,0x000),
    DN(___,0,0x000),
    DN(___,0,0x000),
    DN(___,0,0x000),
    DN(___,0,0x000),
    DN(B_5,7,0xC08),
    DN(___,0,0x000),
    DN(___,0,0x000),
    DN(___,0,0x000),
    DN(___,0,0x000),
    DN(___,0,0x000),
    DN(B_5,7,0xC08),
    DN(___,0,0x000),
    DN(___,0,0x000),
    DN(___,0,0x000),
    DN(___,0,0x000),
    DN(___,0,0x000),
    DN(___,0,0x000),
    DN(___,0,0x000),
    DN(___,0,0x000),
    DN(___,0,0x000),
};
const unsigned char P204[] = {
    DN(___,0,0x000),
    DN(B_5,7,0xC08),
    DN(___,0,0x000),
    DN(D_6,7,0xC08),
    DN(___,0,0xE03),
    DN(B_5,7,0xC08),
    DN(Fs6,7,0xC08),
    DN(___,0,0x000),
    DN(E_6,7,0xC08),
    DN(___,0,0x000),
    DN(D_6,7,0xC08),
    DN(___,0,0x000),
    DN(___,0,0x000),
    DN(E_6,7,0xC08),
    DN(___,0,0x000),
    DN(B_5,7,0xC08),
    DN(___,0,0xE03),
    DN(A_5,7,0xC08),
    DN(B_5,7,0xC08),
    DN(___,0,0x000),
    DN(D_6,7,0xC08),
    DN(___,0,0x000),
    DN(A_5,7,0xC06),
    DN(___,0,0x000),
    DN(D_5,2,0xC07),
    DN(___,0,0x000),
    DN(___,0,0x000),
    DN(___,0,0x000),
    DN(___,0,0x000),
    DN(___,0,0x000),
    DN(Cs5,2,0xC07),
    DN(___,0,0x000),
    DN(___,0,0x000),
    DN(___,0,0x000),
    DN(___,0,0x000),
    DN(___,0,0x000),
    DN(B_4,2,0xC07),
    DN(___,0,0x000),
    DN(___,0,0x000),
    DN(___,0,0x000),
    DN(___,0,0x000),
    DN(___,0,0x000),
    DN(A_4,2,0xC07),
    DN(___,0,0x000),
    DN(___,0,0x000),
    DN(___,0,0x000),
    DN(___,0,0x000),
    DN(___,0,0x000),
    DN(G_4,2,0xC07),
    DN(___,0,0x000),
    DN(___,0,0x000),
    DN(___,0,0x000),
    DN(___,0,0x000),
    DN(___,0,0x000),
    DN(Fs4,2,0xC07),
    DN(___,0,0x000),
    DN(___,0,0x000),
    DN(___,0,0x000),
    DN(___,0,0x000),
    DN(___,0,0xD01),
    DN(___,0,0x000),
    DN(___,0,0x000),
    DN(___,0,0x000),
    DN(___,0,0x000),
};
const unsigned char P205[] = {
    DN(G_4,6,0xF03),
    DN(___,0,0xF0F),
    DN(___,0,0xF0C),
    DN(___,0,0xF06),
    DN(C_3,9,0xF0C),
    DN(___,0,0xF06),
    DN(G_4,6,0xF0C),
    DN(___,0,0xF06),
    DN(D_5,6,0xF0C),
    DN(C_3,9,0xF06),
    DN(Cs5,6,0xF0C),
    DN(___,0,0xF06),
    DN(Fs4,6,0xF03),
    DN(___,0,0xF0F),
    DN(___,0,0xF0C),
    DN(___,0,0xF06),
    DN(C_3,9,0xF0C),
    DN(Fs4,6,0xF06),
    DN(Fs4,6,0xF0C),
    DN(C_3,9,0xF06),
    DN(E_4,6,0xF0C),
    DN(C_3,9,0xF06),
    DN(D_4,6,0xF0C),
    DN(___,0,0xF06),
    DN(E_4,6,0xF0C),
    DN(___,0,0xF06),
    DN(___,0,0xF0C),
    DN(___,0,0xF06),
    DN(___,0,0xF0C),
    DN(___,0,0xF06),
    DN(Fs4,6,0xF0C),
    DN(___,0,0xF06),
    DN(___,0,0xF0C),
    DN(___,0,0xF06),
    DN(___,0,0xF0C),
    DN(___,0,0xF06),
    DN(G_4,6,0xF0C),
    DN(___,0,0xF06),
    DN(___,0,0xF0C),
    DN(___,0,0xF06),
    DN(___,0,0xF0C),
    DN(___,0,0xF06),
    DN(A_4,6,0xF0C),
    DN(___,0,0xF06),
    DN(___,0,0xF0C),
    DN(___,0,0xF06),
    DN(___,0,0xF0C),
    DN(___,0,0xF06),
    DN(B_4,6,0xF0C),
    DN(___,0,0xF06),
    DN(___,0,0xF0C),
    DN(___,0,0xF06),
    DN(___,0,0xF0C),
    DN(___,0,0xF06),
    DN(Cs5,6,0xF0C),
    DN(___,0,0xF06),
    DN(___,0,0xF0C),
    DN(___,0,0xF06),
    DN(___,0,0xF0C),
    DN(___,0,0xF06),
    DN(___,0,0x000),
    DN(___,0,0x000),
    DN(___,0,0x000),
    DN(___,0,0x000),
};
const unsigned char P206[] = {
    DN(E_7,1,0xC76),
    DN(___,0,0x000),
    DN(___,0,0x000),
    DN(___,0,0x000),
    DN(C_7,2,0x000),
    DN(___,0,0x000),
    DN(___,0,0x000),
    DN(C_8,1,0xC16),
    DN(C_8,1,0xC76),
    DN(___,0,0x000),
    DN(C_7,2,0x000),
    DN(___,0,0x000),
    DN(G_7,1,0xC75),
    DN(___,0,0x000),
    DN(___,0,0x000),
    DN(C_8,1,0xC16),
    DN(C_7,2,0x000),
    DN(___,0,0x000),
    DN(C_8,1,0xC16),
    DN(___,0,0x000),
    DN(C_8,1,0xC16),
    DN(___,0,0x000),
    DN(C_7,1,0xC16),
    DN(___,0,0x000),
    DN(G_7,1,0xC76),
    DN(___,0,0x000),
    DN(C_8,1,0xC16),
    DN(___,0,0x000),
    DN(C_7,2,0x000),
    DN(___,0,0x000),
    DN(C_8,1,0xC16),
    DN(C_8,1,0xC16),
    DN(C_7,2,0x000),
    DN(___,0,0x000),
    DN(C_8,1,0xC18),
    DN(___,0,0x000),
    DN(G_7,1,0xC76),
    DN(___,0,0x000),
    DN(C_8,1,0xC16),
    DN(___,0,0x000),
    DN(C_7,2,0x000),
    DN(___,0,0x000),
    DN(C_8,1,0xC16),
    DN(C_7,2,0x000),
    DN(G_7,1,0xC56),
    DN(___,0,0x000),
    DN(C_8,1,0xC16),
    DN(___,0,0x000),
    DN(G_7,1,0xC76),
    DN(___,0,0x000),
    DN(C_8,1,0xC16),
    DN(___,0,0x000),
    DN(C_7,2,0x000),
    DN(___,0,0x000),
    DN(C_8,1,0xC16),
    DN(C_8,1,0xC16),
    DN(C_7,2,0x000),
    DN(___,0,0x000),
    DN(C_8,1,0xC18),
    DN(___,0,0x000),
    DN(___,0,0x000),
    DN(___,0,0x000),
    DN(___,0,0x000),
    DN(___,0,0x000),
};
const unsigned char P207[] = {
    DN(B_5,7,0xC08),
    DN(___,0,0x000),
    DN(___,0,0x000),
    DN(___,0,0x000),
    DN(___,0,0x000),
    DN(___,0,0x000),
    DN(B_5,7,0xC08),
    DN(___,0,0x000),
    DN(___,0,0x000),
    DN(___,0,0x000),
    DN(___,0,0x000),
    DN(___,0,0x000),
    DN(B_5,7,0xC08),
    DN(___,0,0x000),
    DN(___,0,0x000),
    DN(___,0,0x000),
    DN(___,0,0x000),
    DN(___,0,0x000),
    DN(B_5,7,0xC08),
    DN(___,0,0x000),
    DN(___,0,0x000),
    DN(___,0,0x000),
    DN(___,0,0x000),
    DN(___,0,0x000),
    DN(B_5,7,0xC08),
    DN(___,0,0x000),
    DN(___,0,0x000),
    DN(___,0,0x000),
    DN(___,0,0x000),
    DN(___,0,0x000),
    DN(B_5,7,0xC08),
    DN(___,0,0x000),
    DN(___,0,0x000),
    DN(___,0,0x000),
    DN(___,0,0x000),
    DN(___,0,0x000),
    DN(B_5,7,0xC08),
    DN(___,0,0x000),
    DN(___,0,0x000),
    DN(___,0,0x000),
    DN(___,0,0x000),
    DN(___,0,0x000),
    DN(B_5,7,0xC08),
    DN(___,0,0x000),
    DN(___,0,0x000),
    DN(___,0,0x000),
    DN(___,0,0x000),
    DN(___,0,0x000),
    DN(B_5,7,0xC08),
    DN(___,0,0x000),
    DN(___,0,0x000),
    DN(___,0,0x000),
    DN(___,0,0x000),
    DN(___,0,0x000),
    DN(A_5,7,0xC08),
    DN(___,0,0x000),
    DN(___,0,0x000),
    DN(___,0,0x000),
    DN(___,0,0x000),
    DN(___,0,0x000),
    DN(___,0,0x000),
    DN(___,0,0x000),
    DN(___,0,0x000),
    DN(___,0,0x000),
};
const unsigned char P208[] = {
    DN(G_4,2,0xC07),
    DN(___,0,0x000),
    DN(___,0,0x000),
    DN(___,0,0x000),
    DN(___,0,0x000),
    DN(___,0,0x000),
    DN(A_4,2,0xC07),
    DN(___,0,0x000),
    DN(___,0,0x000),
    DN(___,0,0x000),
    DN(___,0,0x000),
    DN(___,0,0x000),
    DN(B_4,2,0xC07),
    DN(___,0,0x000),
    DN(___,0,0x000),
    DN(___,0,0x000),
    DN(___,0,0x000),
    DN(___,0,0x000),
    DN(Cs5,2,0xC07),
    DN(___,0,0x000),
    DN(___,0,0x000),
    DN(___,0,0x000),
    DN(___,0,0x000),
    DN(___,0,0x000),
    DN(D_5,2,0xC07),
    DN(___,0,0x000),
    DN(___,0,0x000),
    DN(___,0,0x000),
    DN(___,0,0x000),
    DN(___,0,0x000),
    DN(E_5,2,0xC07),
    DN(___,0,0x000),
    DN(___,0,0x000),
    DN(___,0,0x000),
    DN(___,0,0x000),
    DN(___,0,0x000),
    DN(G_5,2,0xC07),
    DN(___,0,0x000),
    DN(___,0,0x000),
    DN(___,0,0x000),
    DN(___,0,0x000),
    DN(___,0,0x000),
    DN(A_5,2,0xC07),
    DN(___,0,0x000),
    DN(___,0,0x000),
    DN(___,0,0x000),
    DN(___,0,0x000),
    DN(___,0,0x000),
    DN(B_5,2,0xC07),
    DN(___,0,0x000),
    DN(___,0,0x000),
    DN(___,0,0x000),
    DN(___,0,0x000),
    DN(___,0,0x000),
    DN(Cs6,2,0xC07),
    DN(___,0,0x000),
    DN(___,0,0x000),
    DN(___,0,0x000),
    DN(___,0,0x000),
    DN(___,0,0xD01),
    DN(___,0,0x000),
    DN(___,0,0x000),
    DN(___,0,0x000),
    DN(___,0,0x000),
};
const unsigned char P209[] = {
    DN(D_5,6,0xF0C),
    DN(___,0,0xF06),
    DN(___,0,0xF0C),
    DN(___,0,0xF06),
    DN(___,0,0xF0C),
    DN(___,0,0xF06),
    DN(E_5,6,0xF0C),
    DN(___,0,0xF06),
    DN(___,0,0xF0C),
    DN(___,0,0xF06),
    DN(___,0,0xF0C),
    DN(___,0,0xF06),
    DN(E_4,6,0xF0C),
    DN(___,0,0xF06),
    DN(___,0,0xF0C),
    DN(___,0,0xF06),
    DN(___,0,0xF0C),
    DN(___,0,0xF06),
    DN(Fs4,6,0xF0C),
    DN(___,0,0xF06),
    DN(___,0,0xF0C),
    DN(___,0,0xF06),
    DN(___,0,0xF0C),
    DN(___,0,0xF06),
    DN(G_4,6,0xF0C),
    DN(___,0,0xF06),
    DN(___,0,0xF0C),
    DN(___,0,0xF06),
    DN(___,0,0xF0C),
    DN(___,0,0xF06),
    DN(A_4,6,0xF0C),
    DN(___,0,0xF06),
    DN(___,0,0xF0C),
    DN(___,0,0xF06),
    DN(___,0,0xF0C),
    DN(___,0,0xF06),
    DN(B_4,6,0xF0C),
    DN(___,0,0xF06),
    DN(___,0,0xF0C),
    DN(___,0,0xF06),
    DN(___,0,0xF0C),
    DN(___,0,0xF06),
    DN(Cs5,6,0xF0C),
    DN(___,0,0xF06),
    DN(___,0,0xF0C),
    DN(___,0,0xF06),
    DN(___,0,0xF0C),
    DN(___,0,0xF06),
    DN(D_5,6,0xF0C),
    DN(___,0,0xF06),
    DN(___,0,0xF0C),
    DN(___,0,0xF06),
    DN(___,0,0xF0C),
    DN(___,0,0xF06),
    DN(A_4,6,0xF0C),
    DN(___,0,0xF06),
    DN(___,0,0xF0C),
    DN(___,0,0xF06),
    DN(___,0,0xF0C),
    DN(___,0,0xF06),
    DN(___,0,0x000),
    DN(___,0,0x000),
    DN(___,0,0x000),
    DN(___,0,0x000),
};
const unsigned char P210[] = {
    DN(G_7,1,0xC76),
    DN(___,0,0x000),
    DN(C_8,1,0xC16),
    DN(___,0,0x000),
    DN(C_7,2,0x000),
    DN(___,0,0x000),
    DN(C_8,1,0xC16),
    DN(C_7,2,0x000),
    DN(G_7,1,0xC56),
    DN(___,0,0x000),
    DN(C_7,2,0x000),
    DN(___,0,0x000),
    DN(G_7,1,0xC78),
    DN(___,0,0x000),
    DN(___,0,0x000),
    DN(___,0,0x000),
    DN(C_7,2,0x000),
    DN(___,0,0x000),
    DN(D_7,1,0xC78),
    DN(___,0,0x000),
    DN(C_7,2,0x000),
    DN(___,0,0x000),
    DN(C_8,1,0xC14),
    DN(___,0,0x000),
    DN(B_6,1,0xC78),
    DN(___,0,0x000),
    DN(___,0,0x000),
    DN(___,0,0x000),
    DN(C_7,2,0x000),
    DN(___,0,0x000),
    DN(C_8,1,0xC78),
    DN(C_8,1,0xC16),
    DN(C_7,2,0x000),
    DN(___,0,0x000),
    DN(C_8,1,0xC16),
    DN(___,0,0x000),
    DN(G_7,1,0xC76),
    DN(___,0,0x000),
    DN(___,0,0x000),
    DN(C_8,1,0xC16),
    DN(C_7,2,0x000),
    DN(___,0,0x000),
    DN(F_7,1,0xC76),
    DN(C_8,1,0xC16),
    DN(C_7,2,0x000),
    DN(___,0,0x000),
    DN(___,0,0x000),
    DN(C_8,1,0xC16),
    DN(D_7,1,0xC76),
    DN(___,0,0x000),
    DN(C_8,1,0xC16),
    DN(___,0,0x000),
    DN(C_7,2,0x000),
    DN(___,0,0x000),
    DN(F_7,1,0xC76),
    DN(C_8,1,0xC16),
    DN(As6,2,0x000),
    DN(___,0,0x000),
    DN(G_6,2,0x000),
    DN(___,0,0x000),
    DN(___,0,0x000),
    DN(___,0,0x000),
    DN(___,0,0x000),
    DN(___,0,0x000),
};
const unsigned char P211[] = {
    DN(B_4,7,0xC77),
    DN(___,0,0x000),
    DN(___,0,0x000),
    DN(___,0,0x000),
    DN(___,0,0x000),
    DN(___,0,0x000),
    DN(___,0,0x000),
    DN(___,0,0x000),
    DN(___,0,0x000),
    DN(___,0,0x000),
    DN(___,0,0x000),
    DN(___,0,0x000),
    DN(A_4,7,0xC77),
    DN(___,0,0x000),
    DN(___,0,0x000),
    DN(___,0,0x000),
    DN(___,0,0x000),
    DN(___,0,0x000),
    DN(A_5,7,0xC07),
    DN(___,0,0x000),
    DN(___,0,0x000),
    DN(___,0,0x000),
    DN(A_4,7,0xC07),
    DN(___,0,0x000),
    DN(G_4,7,0xC77),
    DN(___,0,0x000),
    DN(___,0,0x000),
    DN(___,0,0x000),
    DN(___,0,0x000),
    DN(___,0,0x000),
    DN(___,0,0x000),
    DN(___,0,0x000),
    DN(___,0,0x000),
    DN(___,0,0x000),
    DN(___,0,0x000),
    DN(___,0,0x000),
    DN(Fs5,7,0xC07),
    DN(___,0,0x000),
    DN(___,0,0x000),
    DN(___,0,0x000),
    DN(___,0,0x000),
    DN(___,0,0x000),
    DN(Fs5,7,0xC07),
    DN(___,0,0x000),
    DN(___,0,0x000),
    DN(___,0,0x000),
    DN(___,0,0x000),
    DN(___,0,0x000),
    DN(___,0,0x000),
    DN(___,0,0x000),
    DN(___,0,0x000),
    DN(___,0,0x000),
    DN(___,0,0x000),
    DN(___,0,0x000),
    DN(___,0,0x000),
    DN(___,0,0x000),
    DN(___,0,0x000),
    DN(___,0,0x000),
    DN(___,0,0x000),
    DN(___,0,0x000),
    DN(___,0,0x000),
    DN(___,0,0x000),
    DN(___,0,0x000),
    DN(___,0,0x000),
};
const unsigned char P212[] = {
    DN(D_6,7,0xC08),
    DN(___,0,0x000),
    DN(___,0,0x000),
    DN(Fs5,7,0xC08),
    DN(___,0,0x000),
    DN(A_5,7,0xC08),
    DN(___,0,0x000),
    DN(B_5,7,0xC08),
    DN(___,0,0x000),
    DN(___,0,0x000),
    DN(A_5,7,0xC08),
    DN(___,0,0x000),
    DN(Cs6,7,0xC08),
    DN(___,0,0x000),
    DN(E_5,7,0xC08),
    DN(___,0,0x000),
    DN(Fs5,7,0xC08),
    DN(___,0,0x000),
    DN(Fs6,7,0xC08),
    DN(___,0,0x000),
    DN(___,0,0x000),
    DN(___,0,0x000),
    DN(Cs6,7,0xC08),
    DN(___,0,0x000),
    DN(B_5,7,0xC08),
    DN(___,0,0x000),
    DN(D_5,7,0xC08),
    DN(___,0,0x000),
    DN(Fs5,7,0xC08),
    DN(___,0,0x000),
    DN(G_5,7,0xC08),
    DN(___,0,0x000),
    DN(___,0,0x000),
    DN(___,0,0x000),
    DN(Fs5,7,0xC08),
    DN(G_5,7,0xC08),
    DN(A_5,7,0xC08),
    DN(___,0,0x000),
    DN(___,0,0x000),
    DN(___,0,0x000),
    DN(___,0,0x000),
    DN(___,0,0x000),
    DN(As5,7,0xC08),
    DN(___,0,0x000),
    DN(___,0,0x000),
    DN(___,0,0x000),
    DN(___,0,0x000),
    DN(___,0,0xD01),
    DN(___,0,0x000),
    DN(___,0,0x000),
    DN(___,0,0x000),
    DN(___,0,0x000),
    DN(___,0,0x000),
    DN(___,0,0x000),
    DN(___,0,0x000),
    DN(___,0,0x000),
    DN(___,0,0x000),
    DN(___,0,0x000),
    DN(___,0,0x000),
    DN(___,0,0x000),
    DN(___,0,0x000),
    DN(___,0,0x000),
    DN(___,0,0x000),
    DN(___,0,0x000),
};
const unsigned char P213[] = {
    DN(Fs7,2,0xC04),
    DN(___,0,0x000),
    DN(___,0,0x000),
    DN(___,0,0xF0C),
    DN(___,0,0xF06),
    DN(___,0,0xF0C),
    DN(___,0,0xF06),
    DN(___,0,0xF12),
    DN(___,0,0xF0C),
    DN(___,0,0xF06),
    DN(___,0,0xF0C),
    DN(___,0,0xF06),
    DN(___,0,0xF0C),
    DN(___,0,0xF06),
    DN(___,0,0xF0C),
    DN(___,0,0xF06),
    DN(___,0,0xF0C),
    DN(___,0,0xF06),
    DN(___,0,0xF0C),
    DN(___,0,0xF06),
    DN(___,0,0xF0C),
    DN(___,0,0xF06),
    DN(___,0,0xF0C),
    DN(___,0,0xF06),
    DN(___,0,0xF0C),
    DN(___,0,0xF06),
    DN(___,0,0xF0C),
    DN(___,0,0xF06),
    DN(___,0,0xF0C),
    DN(___,0,0xF06),
    DN(___,0,0xF0C),
    DN(___,0,0xF06),
    DN(___,0,0xF0C),
    DN(___,0,0xF06),
    DN(___,0,0xF0C),
    DN(___,0,0xF06),
    DN(___,0,0xF0C),
    DN(___,0,0xF06),
    DN(___,0,0xF0C),
    DN(___,0,0xF06),
    DN(___,0,0xF0C),
    DN(___,0,0xF06),
    DN(___,0,0xF0C),
    DN(___,0,0xF06),
    DN(___,0,0xF0C),
    DN(___,0,0xF06),
    DN(___,0,0xF0C),
    DN(___,0,0xF06),
    DN(___,0,0x000),
    DN(___,0,0x000),
    DN(___,0,0x000),
    DN(___,0,0x000),
    DN(___,0,0x000),
    DN(___,0,0x000),
    DN(___,0,0x000),
    DN(___,0,0x000),
    DN(___,0,0x000),
    DN(___,0,0x000),
    DN(___,0,0x000),
    DN(___,0,0x000),
    DN(___,0,0x000),
    DN(___,0,0x000),
    DN(___,0,0x000),
    DN(___,0,0x000),
};
const unsigned char P214[] = {
    DN(G_7,1,0xC56),
    DN(___,0,0x000),
    DN(C_8,1,0xC19),
    DN(___,0,0x000),
    DN(C_8,1,0xC16),
    DN(C_8,1,0xC16),
    DN(___,0,0x000),
    DN(C_8,1,0xC16),
    DN(G_7,1,0xC56),
    DN(G_7,1,0xC16),
    DN(C_8,1,0xC16),
    DN(___,0,0x000),
    DN(G_7,1,0xC56),
    DN(C_8,1,0xC19),
    DN(___,0,0x000),
    DN(C_8,1,0xC16),
    DN(C_8,1,0xC16),
    DN(___,0,0x000),
    DN(C_8,1,0xC16),
    DN(___,0,0x000),
    DN(G_7,1,0xC56),
    DN(G_7,1,0xC16),
    DN(G_7,1,0xC56),
    DN(___,0,0x000),
    DN(G_7,1,0xC56),
    DN(C_8,1,0xC19),
    DN(___,0,0x000),
    DN(C_8,1,0xC16),
    DN(C_8,1,0xC16),
    DN(___,0,0x000),
    DN(C_8,1,0xC16),
    DN(___,0,0x000),
    DN(G_7,1,0xC56),
    DN(G_7,1,0xC16),
    DN(C_8,1,0xC16),
    DN(___,0,0x000),
    DN(G_7,1,0xC56),
    DN(C_8,1,0xC19),
    DN(___,0,0x000),
    DN(C_8,1,0xC16),
    DN(C_8,1,0xC16),
    DN(___,0,0x000),
    DN(C_8,1,0xC16),
    DN(___,0,0x000),
    DN(E_7,1,0xC66),
    DN(___,0,0x000),
    DN(___,0,0x000),
    DN(___,0,0x000),
    DN(G_7,1,0xC78),
    DN(C_8,1,0xC16),
    DN(C_8,1,0xC64),
    DN(C_8,1,0xC64),
    DN(C_8,1,0xC64),
    DN(C_8,1,0xC16),
    DN(C_8,1,0xC64),
    DN(C_8,1,0xC16),
    DN(C_8,1,0xC64),
    DN(C_8,1,0xC16),
    DN(C_8,1,0xC64),
    DN(G_7,1,0xC78),
    DN(C_8,1,0xC16),
    DN(C_8,1,0xC64),
    DN(C_8,1,0xC64),
    DN(C_8,1,0xC64),
};
const unsigned char P215[] = {
    DN(E_4,7,0xC77),
    DN(___,0,0x000),
    DN(___,0,0x000),
    DN(___,0,0x000),
    DN(___,0,0x000),
    DN(___,0,0x000),
    DN(___,0,0x000),
    DN(___,0,0x000),
    DN(___,0,0x000),
    DN(___,0,0x000),
    DN(___,0,0x000),
    DN(___,0,0x000),
    DN(Cs5,7,0xC77),
    DN(___,0,0x000),
    DN(___,0,0x000),
    DN(___,0,0x000),
    DN(___,0,0x000),
    DN(___,0,0x000),
    DN(B_5,7,0xC07),
    DN(___,0,0x000),
    DN(___,0,0x000),
    DN(___,0,0x000),
    DN(As4,7,0xC77),
    DN(___,0,0x000),
    DN(C_5,3,0xC06),
    DN(___,0,0x000),
    DN(___,0,0x000),
    DN(___,0,0x000),
    DN(___,0,0xC76),
    DN(___,0,0x000),
    DN(___,0,0x000),
    DN(___,0,0x000),
    DN(___,0,0x000),
    DN(___,0,0x000),
    DN(___,0,0x000),
    DN(___,0,0x000),
    DN(B_4,3,0xC06),
    DN(___,0,0x000),
    DN(___,0,0xC76),
    DN(___,0,0x000),
    DN(___,0,0x000),
    DN(___,0,0x000),
    DN(___,0,0x000),
    DN(___,0,0x000),
    DN(___,0,0x000),
    DN(___,0,0x000),
    DN(___,0,0x000),
    DN(___,0,0x000),
    DN(D_5,7,0xC78),
    DN(___,0,0x000),
    DN(___,0,0x000),
    DN(___,0,0x000),
    DN(___,0,0x000),
    DN(As5,7,0xC78),
    DN(___,0,0x000),
    DN(___,0,0x000),
    DN(D_6,7,0xC78),
    DN(___,0,0x000),
    DN(E_6,7,0xC78),
    DN(Fs6,7,0xC78),
    DN(A_6,7,0xC78),
    DN(___,0,0x000),
    DN(B_6,7,0xC78),
    DN(___,0,0x000),
};
const unsigned char P216[] = {
    DN(G_6,7,0xC08),
    DN(___,0,0x000),
    DN(___,0,0x000),
    DN(B_4,7,0xC07),
    DN(___,0,0x000),
    DN(D_5,7,0xC07),
    DN(___,0,0x000),
    DN(Fs5,7,0xC07),
    DN(D_5,7,0xC07),
    DN(___,0,0x000),
    DN(B_4,7,0xC07),
    DN(___,0,0x000),
    DN(Fs6,7,0xC08),
    DN(___,0,0x000),
    DN(A_4,7,0xC07),
    DN(___,0,0x000),
    DN(Fs4,7,0xC07),
    DN(___,0,0x000),
    DN(B_6,7,0xC08),
    DN(___,0,0x000),
    DN(A_4,7,0xC07),
    DN(___,0,0x000),
    DN(Fs6,7,0xC08),
    DN(___,0,0x000),
    DN(E_6,3,0xC07),
    DN(___,0,0x000),
    DN(___,0,0x000),
    DN(___,0,0x000),
    DN(___,0,0xC77),
    DN(___,0,0x000),
    DN(___,0,0x000),
    DN(___,0,0x000),
    DN(___,0,0x000),
    DN(___,0,0x000),
    DN(___,0,0x000),
    DN(___,0,0x000),
    DN(Fs6,3,0xC07),
    DN(___,0,0x000),
    DN(___,0,0xC77),
    DN(___,0,0x000),
    DN(___,0,0x000),
    DN(___,0,0x000),
    DN(___,0,0x000),
    DN(___,0,0x000),
    DN(___,0,0x000),
    DN(___,0,0x000),
    DN(___,0,0x000),
    DN(___,0,0x000),
    DN(Fs5,7,0xC78),
    DN(Fs4,2,0xC07),
    DN(___,0,0x000),
    DN(G_4,2,0xC07),
    DN(___,0,0x000),
    DN(As4,2,0xC07),
    DN(___,0,0x000),
    DN(Cs5,2,0xC07),
    DN(___,0,0x000),
    DN(E_5,2,0xC07),
    DN(___,0,0x000),
    DN(D_5,2,0xC07),
    DN(___,0,0x000),
    DN(Fs5,2,0xC07),
    DN(___,0,0x000),
    DN(___,0,0x000),
};
const unsigned char P217[] = {
    DN(C_3,9,0xF06),
    DN(___,0,0x000),
    DN(___,0,0x000),
    DN(___,0,0xF0C),
    DN(___,0,0xF06),
    DN(___,0,0xF0C),
    DN(___,0,0xF06),
    DN(___,0,0xF12),
    DN(___,0,0xF0C),
    DN(___,0,0xF06),
    DN(___,0,0xF0C),
    DN(___,0,0xF06),
    DN(___,0,0xF0C),
    DN(___,0,0xF06),
    DN(___,0,0xF0C),
    DN(___,0,0xF06),
    DN(___,0,0xF0C),
    DN(___,0,0xF06),
    DN(___,0,0xF0C),
    DN(___,0,0xF06),
    DN(___,0,0xF0C),
    DN(___,0,0xF06),
    DN(___,0,0xF0C),
    DN(___,0,0xF06),
    DN(___,0,0xF0C),
    DN(___,0,0xF06),
    DN(___,0,0xF0C),
    DN(___,0,0xF06),
    DN(___,0,0xF0C),
    DN(___,0,0xF06),
    DN(___,0,0xF0C),
    DN(___,0,0xF06),
    DN(___,0,0xF0C),
    DN(___,0,0xF06),
    DN(___,0,0xF0C),
    DN(___,0,0xF06),
    DN(___,0,0xF0C),
    DN(___,0,0xF06),
    DN(___,0,0xF0C),
    DN(___,0,0xF06),
    DN(___,0,0xF0C),
    DN(___,0,0xF06),
    DN(G_4,6,0xF09),
    DN(___,0,0xE00),
    DN(A_4,6,0x000),
    DN(___,0,0xE00),
    DN(As4,6,0x000),
    DN(___,0,0xE00),
    DN(B_4,6,0xF24),
    DN(___,0,0xF12),
    DN(___,0,0x000),
    DN(___,0,0x000),
    DN(___,0,0x000),
    DN(As4,6,0x000),
    DN(___,0,0x000),
    DN(___,0,0x000),
    DN(___,0,0x000),
    DN(___,0,0x000),
    DN(___,0,0x000),
    DN(A_4,6,0xF24),
    DN(___,0,0xF12),
    DN(___,0,0x000),
    DN(___,0,0x000),
    DN(___,0,0x000),
};
const unsigned char P219[] = {
    DN(D_7,7,0xC78),
    DN(___,0,0x000),
    DN(___,0,0x000),
    DN(Gs4,2,0xC07),
    DN(___,0,0x000),
    DN(___,0,0x000),
    DN(___,0,0x000),
    DN(___,0,0x000),
    DN(___,0,0x000),
    DN(___,0,0x000),
    DN(___,0,0x000),
    DN(___,0,0x000),
    DN(___,0,0xC77),
    DN(___,0,0x000),
    DN(___,0,0x000),
    DN(___,0,0x000),
    DN(E_4,2,0xC07),
    DN(___,0,0x000),
    DN(___,0,0x000),
    DN(___,0,0x000),
    DN(___,0,0x000),
    DN(___,0,0x000),
    DN(G_5,7,0xC06),
    DN(___,0,0x000),
    DN(___,0,0x000),
    DN(___,0,0x000),
    DN(___,0,0x000),
    DN(___,0,0x000),
    DN(E_4,2,0xC07),
    DN(___,0,0x000),
    DN(___,0,0x000),
    DN(___,0,0x000),
    DN(___,0,0x000),
    DN(___,0,0x000),
    DN(Fs5,7,0xC06),
    DN(___,0,0x000),
    DN(___,0,0x000),
    DN(___,0,0x000),
    DN(___,0,0x000),
    DN(___,0,0x000),
    DN(D_4,2,0xC07),
    DN(___,0,0x000),
    DN(___,0,0x000),
    DN(___,0,0x000),
    DN(___,0,0x000),
    DN(___,0,0x000),
    DN(D_5,7,0xC06),
    DN(___,0,0x000),
    DN(___,0,0x000),
    DN(___,0,0x000),
    DN(___,0,0x000),
    DN(___,0,0x000),
    DN(G_6,7,0xC08),
    DN(___,0,0x000),
    DN(___,0,0x000),
    DN(___,0,0x000),
    DN(___,0,0x000),
    DN(___,0,0x000),
    DN(G_5,7,0xC06),
    DN(___,0,0x000),
    DN(___,0,0x000),
    DN(___,0,0x000),
    DN(___,0,0x000),
    DN(___,0,0x000),
};
const unsigned char P220[] = {
    DN(B_4,2,0xC07),
    DN(___,0,0x000),
    DN(___,0,0x000),
    DN(B_6,7,0xC78),
    DN(D_7,7,0xC78),
    DN(Fs7,7,0xC78),
    DN(___,0,0x000),
    DN(___,0,0x000),
    DN(D_7,7,0xC78),
    DN(Fs7,7,0xC78),
    DN(B_7,7,0xC78),
    DN(___,0,0x000),
    DN(___,0,0x000),
    DN(___,0,0x000),
    DN(B_6,7,0xC08),
    DN(Cs7,7,0xC08),
    DN(D_7,7,0xC08),
    DN(___,0,0x000),
    DN(___,0,0x000),
    DN(___,0,0x000),
    DN(___,0,0x000),
    DN(___,0,0x000),
    DN(B_5,7,0xC06),
    DN(___,0,0x000),
    DN(___,0,0x000),
    DN(___,0,0x000),
    DN(B_6,7,0xC08),
    DN(Cs7,7,0xC08),
    DN(D_7,7,0xC08),
    DN(___,0,0x000),
    DN(___,0,0x000),
    DN(___,0,0x000),
    DN(___,0,0x000),
    DN(___,0,0x000),
    DN(A_5,7,0xC06),
    DN(___,0,0x000),
    DN(___,0,0x000),
    DN(___,0,0x000),
    DN(B_6,7,0xC08),
    DN(Cs7,7,0xC08),
    DN(D_7,7,0xC08),
    DN(___,0,0x000),
    DN(___,0,0x000),
    DN(___,0,0x000),
    DN(___,0,0x000),
    DN(___,0,0x000),
    DN(Fs5,7,0xC06),
    DN(___,0,0x000),
    DN(___,0,0x000),
    DN(___,0,0x000),
    DN(___,0,0x000),
    DN(___,0,0x000),
    DN(E_7,7,0xC08),
    DN(___,0,0x000),
    DN(___,0,0x000),
    DN(___,0,0x000),
    DN(___,0,0x000),
    DN(___,0,0x000),
    DN(C_6,7,0xC06),
    DN(___,0,0x000),
    DN(___,0,0x000),
    DN(___,0,0x000),
    DN(___,0,0x000),
    DN(___,0,0xB45),
};
const unsigned char P221[] = {
    DN(Gs4,6,0xF12),
    DN(___,0,0x000),
    DN(___,0,0x000),
    DN(___,0,0xF03),
    DN(___,0,0x000),
    DN(___,0,0xF0C),
    DN(___,0,0xF12),
    DN(___,0,0x000),
    DN(___,0,0xF03),
    DN(___,0,0x000),
    DN(___,0,0xF0C),
    DN(___,0,0xF12),
    DN(___,0,0xF30),
    DN(___,0,0xF06),
    DN(___,0,0xF0C),
    DN(___,0,0xF06),
    DN(E_4,6,0xF0C),
    DN(___,0,0xF06),
    DN(___,0,0xF0C),
    DN(___,0,0xF06),
    DN(C_3,9,0xF0C),
    DN(___,0,0xF06),
    DN(___,0,0xF0C),
    DN(___,0,0xF06),
    DN(E_4,6,0xF0C),
    DN(___,0,0xF06),
    DN(C_3,9,0xF0C),
    DN(___,0,0xF06),
    DN(A_4,6,0xF0C),
    DN(___,0,0xF06),
    DN(___,0,0xF0C),
    DN(___,0,0xF06),
    DN(C_3,9,0xF0C),
    DN(___,0,0xF06),
    DN(A_4,6,0xF0C),
    DN(C_3,9,0xF06),
    DN(B_4,6,0xF0C),
    DN(C_3,9,0xF06),
    DN(Cs5,6,0xF0C),
    DN(C_3,9,0xF06),
    DN(D_5,6,0xF0C),
    DN(___,0,0xF06),
    DN(___,0,0xF0C),
    DN(___,0,0xF06),
    DN(___,0,0xF0C),
    DN(___,0,0xF06),
    DN(___,0,0xF0C),
    DN(___,0,0xF06),
    DN(___,0,0xF0C),
    DN(___,0,0xF06),
    DN(___,0,0xF0C),
    DN(___,0,0xF06),
    DN(C_5,6,0xF0C),
    DN(___,0,0xF06),
    DN(___,0,0xF0C),
    DN(___,0,0xF06),
    DN(___,0,0xF0C),
    DN(___,0,0xF06),
    DN(___,0,0xF0C),
    DN(___,0,0xF06),
    DN(___,0,0xF0C),
    DN(___,0,0xF06),
    DN(___,0,0xF0C),
    DN(___,0,0xF06),
};
const unsigned char P222[] = {
    DN(C_8,1,0xC16),
    DN(C_8,1,0xC64),
    DN(C_8,1,0xC16),
    DN(C_8,1,0xC64),
    DN(___,0,0x000),
    DN(___,0,0x000),
    DN(C_8,1,0xC16),
    DN(A_7,1,0xC76),
    DN(F_7,1,0xC16),
    DN(___,0,0x000),
    DN(___,0,0x000),
    DN(___,0,0x000),
    DN(F_7,1,0xC16),
    DN(G_7,1,0xC16),
    DN(G_7,1,0xC16),
    DN(___,0,0x000),
    DN(G_7,1,0xC76),
    DN(___,0,0x000),
    DN(___,0,0x000),
    DN(C_8,1,0xC16),
    DN(C_7,2,0x000),
    DN(___,0,0x000),
    DN(___,0,0x000),
    DN(C_8,1,0xC16),
    DN(C_7,2,0x000),
    DN(___,0,0x000),
    DN(___,0,0x000),
    DN(___,0,0x000),
    DN(G_7,1,0xC76),
    DN(___,0,0x000),
    DN(___,0,0x000),
    DN(C_8,1,0xC16),
    DN(C_7,2,0x000),
    DN(___,0,0x000),
    DN(C_8,1,0xC16),
    DN(C_7,2,0x000),
    DN(___,0,0x000),
    DN(___,0,0x000),
    DN(C_8,1,0xC16),
    DN(___,0,0x000),
    DN(G_7,1,0xC76),
    DN(___,0,0x000),
    DN(___,0,0x000),
    DN(C_8,1,0xC16),
    DN(C_7,2,0x000),
    DN(___,0,0x000),
    DN(___,0,0x000),
    DN(C_8,1,0xC16),
    DN(C_7,2,0x000),
    DN(___,0,0x000),
    DN(___,0,0x000),
    DN(___,0,0x000),
    DN(G_7,1,0xC76),
    DN(___,0,0x000),
    DN(___,0,0x000),
    DN(C_8,1,0xC16),
    DN(C_7,2,0x000),
    DN(___,0,0x000),
    DN(C_8,1,0xC16),
    DN(C_7,2,0x000),
    DN(As6,2,0x000),
    DN(___,0,0x000),
    DN(G_6,2,0x000),
    DN(___,0,0x000),
};
