#pragma bank 2
#include "hUGEDriver.h"

const unsigned char P0[] = {
    DN(D_5,7,0xC08),
    DN(___,0,0x000),
    DN(Ds5,7,0xC08),
    DN(___,0,0x000),
    DN(D_5,7,0xC08),
    DN(___,0,0x000),
    DN(Ds5,7,0xC08),
    DN(___,0,0x000),
    DN(As4,7,0xC08),
    DN(___,0,0x000),
    DN(Fs5,7,0xC08),
    DN(___,0,0x000),
    DN(___,0,0xE00),
    DN(___,0,0x000),
    DN(___,0,0x000),
    DN(___,0,0x000),
    DN(D_5,7,0xC08),
    DN(___,0,0x000),
    DN(Ds5,7,0xC08),
    DN(___,0,0x000),
    DN(D_5,7,0xC08),
    DN(___,0,0x000),
    DN(Ds5,7,0xC08),
    DN(___,0,0x000),
    DN(As4,7,0xC08),
    DN(___,0,0x000),
    DN(Fs5,7,0xC08),
    DN(___,0,0x000),
    DN(___,0,0xE00),
    DN(___,0,0x000),
    DN(___,0,0x000),
    DN(___,0,0x000),
    DN(___,0,0x000),
    DN(___,0,0x000),
    DN(D_5,7,0xC08),
    DN(___,0,0x000),
    DN(___,0,0xE00),
    DN(___,0,0x000),
    DN(D_5,7,0xC08),
    DN(___,0,0x000),
    DN(___,0,0xE00),
    DN(___,0,0x000),
    DN(C_5,7,0xC08),
    DN(___,0,0x000),
    DN(___,0,0xE00),
    DN(___,0,0x000),
    DN(D_5,7,0xC08),
    DN(___,0,0x000),
    DN(D_5,7,0xC08),
    DN(___,0,0x000),
    DN(C_5,7,0xC08),
    DN(___,0,0x000),
    DN(C_5,7,0xC08),
    DN(___,0,0x000),
    DN(B_4,7,0xC08),
    DN(___,0,0x000),
    DN(D_5,7,0xC08),
    DN(___,0,0x000),
    DN(___,0,0x000),
    DN(___,0,0x000),
    DN(___,0,0x000),
    DN(___,0,0xE00),
    DN(___,0,0x000),
    DN(___,0,0x000),
};
const unsigned char P1[] = {
    DN(F_5,7,0xC08),
    DN(___,0,0x000),
    DN(Fs5,7,0xC08),
    DN(___,0,0x000),
    DN(F_5,7,0xC08),
    DN(___,0,0x000),
    DN(Fs5,7,0xC08),
    DN(___,0,0x000),
    DN(Ds5,7,0xC08),
    DN(___,0,0x000),
    DN(Ds6,7,0xC08),
    DN(___,0,0x000),
    DN(___,0,0xE00),
    DN(___,0,0x000),
    DN(___,0,0x000),
    DN(___,0,0x000),
    DN(F_5,7,0xC08),
    DN(___,0,0x000),
    DN(Fs5,7,0xC08),
    DN(___,0,0x000),
    DN(F_5,7,0xC08),
    DN(___,0,0x000),
    DN(Fs5,7,0xC08),
    DN(___,0,0x000),
    DN(Ds5,7,0xC08),
    DN(___,0,0x000),
    DN(Ds6,7,0xC08),
    DN(___,0,0x000),
    DN(___,0,0xE00),
    DN(___,0,0x000),
    DN(___,0,0x000),
    DN(___,0,0x000),
    DN(___,0,0x000),
    DN(___,0,0x000),
    DN(B_5,7,0xC08),
    DN(___,0,0x000),
    DN(___,0,0xE00),
    DN(___,0,0x000),
    DN(As5,7,0xC08),
    DN(___,0,0x000),
    DN(___,0,0xE00),
    DN(___,0,0x000),
    DN(Gs5,7,0xC08),
    DN(___,0,0x000),
    DN(___,0,0xE00),
    DN(___,0,0x000),
    DN(As5,7,0xC08),
    DN(___,0,0x000),
    DN(Gs5,7,0xC08),
    DN(As5,7,0xC08),
    DN(Gs5,7,0xC08),
    DN(___,0,0x000),
    DN(Gs5,7,0xC08),
    DN(___,0,0x000),
    DN(Ds5,7,0xC08),
    DN(___,0,0x000),
    DN(F_5,7,0xC08),
    DN(___,0,0x000),
    DN(___,0,0x000),
    DN(___,0,0x000),
    DN(___,0,0x000),
    DN(___,0,0xE00),
    DN(___,0,0x000),
    DN(___,0,0x000),
};
const unsigned char P2[] = {
    DN(B_5,12,0xC0C),
    DN(___,0,0x000),
    DN(As5,12,0xC0C),
    DN(___,0,0x000),
    DN(B_5,12,0xC0C),
    DN(___,0,0x000),
    DN(As5,12,0xC0C),
    DN(___,0,0x000),
    DN(Fs5,12,0xC0C),
    DN(___,0,0x000),
    DN(Ds4,12,0xC0C),
    DN(___,0,0x000),
    DN(___,0,0xE00),
    DN(___,0,0x000),
    DN(___,0,0x000),
    DN(___,0,0x000),
    DN(B_5,12,0xC0C),
    DN(___,0,0x000),
    DN(As5,12,0xC0C),
    DN(___,0,0x000),
    DN(B_5,12,0xC0C),
    DN(___,0,0x000),
    DN(As5,12,0xC0C),
    DN(___,0,0x000),
    DN(Fs5,12,0xC0C),
    DN(___,0,0x000),
    DN(Ds4,12,0xC0C),
    DN(___,0,0x000),
    DN(___,0,0xE00),
    DN(___,0,0x000),
    DN(___,0,0x000),
    DN(___,0,0x000),
    DN(As4,12,0xC0C),
    DN(___,0,0x000),
    DN(F_5,12,0xC0C),
    DN(___,0,0x000),
    DN(As4,12,0xC0C),
    DN(___,0,0x000),
    DN(F_4,12,0xC0C),
    DN(___,0,0x000),
    DN(F_4,12,0xC0C),
    DN(___,0,0x000),
    DN(F_4,12,0xC0C),
    DN(___,0,0x000),
    DN(F_4,12,0xC0C),
    DN(___,0,0x000),
    DN(F_5,12,0xC0C),
    DN(___,0,0x000),
    DN(Gs4,12,0xC0C),
    DN(___,0,0x000),
    DN(Fs5,12,0xC0C),
    DN(___,0,0x000),
    DN(Gs4,12,0xC0C),
    DN(___,0,0x000),
    DN(Fs5,12,0xC0C),
    DN(___,0,0x000),
    DN(As4,12,0xC0C),
    DN(___,0,0x000),
    DN(___,0,0x000),
    DN(___,0,0x000),
    DN(___,0,0xE00),
    DN(___,0,0x000),
    DN(___,0,0x000),
    DN(___,0,0x000),
};
const unsigned char P3[] = {
    DN(___,0,0xF06),
    DN(___,0,0x000),
    DN(___,0,0x000),
    DN(___,0,0x000),
    DN(___,0,0x000),
    DN(___,0,0x000),
    DN(___,0,0x000),
    DN(___,0,0x000),
    DN(___,0,0x000),
    DN(___,0,0x000),
    DN(___,0,0x000),
    DN(___,0,0x000),
    DN(C_8,1,0xE01),
    DN(___,0,0x000),
    DN(C_8,1,0xE04),
    DN(___,0,0x000),
    DN(___,0,0x000),
    DN(___,0,0x000),
    DN(___,0,0x000),
    DN(___,0,0x000),
    DN(___,0,0x000),
    DN(___,0,0x000),
    DN(___,0,0x000),
    DN(___,0,0x000),
    DN(___,0,0x000),
    DN(___,0,0x000),
    DN(___,0,0x000),
    DN(___,0,0x000),
    DN(C_8,1,0xE01),
    DN(___,0,0x000),
    DN(C_8,1,0xE04),
    DN(___,0,0x000),
    DN(___,0,0x000),
    DN(___,0,0x000),
    DN(___,0,0x000),
    DN(___,0,0x000),
    DN(___,0,0x000),
    DN(___,0,0x000),
    DN(___,0,0x000),
    DN(___,0,0x000),
    DN(___,0,0x000),
    DN(___,0,0x000),
    DN(___,0,0x000),
    DN(___,0,0x000),
    DN(___,0,0x000),
    DN(___,0,0x000),
    DN(___,0,0x000),
    DN(___,0,0x000),
    DN(___,0,0x000),
    DN(___,0,0x000),
    DN(___,0,0x000),
    DN(___,0,0x000),
    DN(___,0,0x000),
    DN(___,0,0x000),
    DN(___,0,0x000),
    DN(___,0,0x000),
    DN(___,0,0x000),
    DN(___,0,0x000),
    DN(___,0,0x000),
    DN(___,0,0x000),
    DN(___,0,0x000),
    DN(___,0,0x000),
    DN(___,0,0x000),
    DN(___,0,0x000),
};
const unsigned char P4[] = {
    DN(Ds5,7,0xC08),
    DN(___,0,0x000),
    DN(F_5,7,0xC08),
    DN(___,0,0x000),
    DN(Ds5,7,0xC08),
    DN(___,0,0x000),
    DN(F_5,7,0xC08),
    DN(___,0,0x000),
    DN(D_5,7,0xC08),
    DN(___,0,0x000),
    DN(D_6,7,0xC08),
    DN(___,0,0x000),
    DN(___,0,0xE00),
    DN(___,0,0x000),
    DN(___,0,0x000),
    DN(___,0,0x000),
    DN(Ds5,7,0xC08),
    DN(___,0,0x000),
    DN(F_5,7,0xC08),
    DN(___,0,0x000),
    DN(Ds5,7,0xC08),
    DN(___,0,0x000),
    DN(F_5,7,0xC08),
    DN(___,0,0x000),
    DN(D_5,7,0xC08),
    DN(___,0,0x000),
    DN(D_6,7,0xC08),
    DN(___,0,0x000),
    DN(___,0,0xE00),
    DN(___,0,0x000),
    DN(___,0,0x000),
    DN(___,0,0x000),
    DN(___,0,0x000),
    DN(___,0,0x000),
    DN(Ds6,7,0xC08),
    DN(___,0,0x000),
    DN(___,0,0xE00),
    DN(___,0,0x000),
    DN(D_6,7,0xC08),
    DN(___,0,0x000),
    DN(___,0,0xE00),
    DN(___,0,0x000),
    DN(As5,7,0xC08),
    DN(___,0,0x000),
    DN(___,0,0xE00),
    DN(___,0,0x000),
    DN(As5,7,0xC08),
    DN(___,0,0x000),
    DN(___,7,0xE00),
    DN(___,0,0x000),
    DN(B_5,7,0xC08),
    DN(D_6,7,0xC08),
    DN(B_5,7,0xC08),
    DN(___,0,0x000),
    DN(As5,7,0xC08),
    DN(___,0,0x000),
    DN(G_5,7,0xC08),
    DN(___,0,0x000),
    DN(___,0,0x000),
    DN(___,0,0x000),
    DN(___,0,0x000),
    DN(___,0,0xE00),
    DN(___,0,0x000),
    DN(___,0,0x000),
};
const unsigned char P5[] = {
    DN(Fs5,7,0xC08),
    DN(___,0,0x000),
    DN(Gs5,7,0xC08),
    DN(___,0,0x000),
    DN(Fs5,7,0xC08),
    DN(___,0,0x000),
    DN(Gs5,7,0xC08),
    DN(___,0,0x000),
    DN(F_5,7,0xC08),
    DN(___,0,0x000),
    DN(F_6,7,0xC08),
    DN(___,0,0x000),
    DN(___,0,0xE00),
    DN(___,0,0x000),
    DN(___,0,0x000),
    DN(___,0,0x000),
    DN(Fs5,7,0xC08),
    DN(___,0,0x000),
    DN(Gs5,7,0xC08),
    DN(___,0,0x000),
    DN(Fs5,7,0xC08),
    DN(___,0,0x000),
    DN(Gs5,7,0xC08),
    DN(___,0,0x000),
    DN(F_5,7,0xC08),
    DN(___,0,0x000),
    DN(F_6,7,0xC08),
    DN(___,0,0x000),
    DN(___,0,0xE00),
    DN(___,0,0x000),
    DN(___,0,0x000),
    DN(___,0,0x000),
    DN(___,0,0x000),
    DN(___,0,0x000),
    DN(Fs6,7,0xC08),
    DN(___,0,0x000),
    DN(___,0,0xE00),
    DN(___,0,0x000),
    DN(F_6,7,0xC08),
    DN(___,0,0x000),
    DN(___,0,0xE00),
    DN(___,0,0x000),
    DN(F_6,7,0xC08),
    DN(___,0,0x000),
    DN(___,0,0xE00),
    DN(___,0,0x000),
    DN(Ds6,7,0xC08),
    DN(___,0,0x000),
    DN(___,7,0xE00),
    DN(___,0,0x000),
    DN(Ds6,7,0xC08),
    DN(F_6,7,0xC08),
    DN(Ds6,7,0xC08),
    DN(___,0,0x000),
    DN(D_6,7,0xC08),
    DN(___,0,0x000),
    DN(Ds6,7,0xC08),
    DN(___,0,0x000),
    DN(___,0,0x000),
    DN(___,0,0x000),
    DN(___,0,0x000),
    DN(___,0,0xE00),
    DN(___,0,0x000),
    DN(___,0,0x000),
};
const unsigned char P6[] = {
    DN(B_5,12,0xC0C),
    DN(___,0,0x000),
    DN(As5,12,0xC0C),
    DN(___,0,0x000),
    DN(B_5,12,0xC0C),
    DN(___,0,0x000),
    DN(As5,12,0xC0C),
    DN(___,0,0x000),
    DN(As4,12,0xC0C),
    DN(___,0,0x000),
    DN(As4,12,0xC0C),
    DN(___,0,0x000),
    DN(___,0,0xE00),
    DN(___,0,0x000),
    DN(___,0,0x000),
    DN(___,0,0x000),
    DN(B_5,12,0xC0C),
    DN(___,0,0x000),
    DN(As5,12,0xC0C),
    DN(___,0,0x000),
    DN(B_5,12,0xC0C),
    DN(___,0,0x000),
    DN(As5,12,0xC0C),
    DN(___,0,0x000),
    DN(As4,12,0xC0C),
    DN(___,0,0x000),
    DN(As4,12,0xC0C),
    DN(___,0,0x000),
    DN(___,0,0xE00),
    DN(___,0,0x000),
    DN(___,0,0x000),
    DN(___,0,0x000),
    DN(Gs4,12,0xC0C),
    DN(___,0,0x000),
    DN(F_5,12,0xC0C),
    DN(___,0,0x000),
    DN(Gs4,12,0xC0C),
    DN(___,0,0x000),
    DN(F_5,12,0xC0C),
    DN(___,0,0x000),
    DN(As4,12,0xC0C),
    DN(___,0,0x000),
    DN(Fs5,12,0xC0C),
    DN(___,0,0x000),
    DN(As4,12,0xC0C),
    DN(___,0,0x000),
    DN(Fs5,12,0xC0C),
    DN(___,0,0x000),
    DN(As4,12,0xC0C),
    DN(___,0,0x000),
    DN(Gs5,12,0xC0C),
    DN(___,0,0x000),
    DN(As4,12,0xC0C),
    DN(___,0,0x000),
    DN(Gs5,12,0xC0C),
    DN(___,0,0x000),
    DN(Ds5,12,0xC0C),
    DN(___,0,0x000),
    DN(___,0,0x000),
    DN(___,0,0x000),
    DN(___,0,0xE00),
    DN(___,0,0x000),
    DN(___,0,0x000),
    DN(___,0,0x000),
};
const unsigned char P7[] = {
    DN(G_5,8,0xC08),
    DN(Gs5,8,0xC08),
    DN(G_5,8,0xC08),
    DN(___,0,0x000),
    DN(___,0,0x000),
    DN(___,0,0x000),
    DN(___,0,0x000),
    DN(___,0,0x000),
    DN(___,0,0x000),
    DN(___,0,0x000),
    DN(___,0,0x000),
    DN(___,0,0x000),
    DN(G_5,8,0xC08),
    DN(___,0,0x000),
    DN(___,0,0x000),
    DN(___,0,0x000),
    DN(Gs5,8,0xC08),
    DN(___,0,0x000),
    DN(___,0,0x000),
    DN(___,0,0x000),
    DN(___,0,0x000),
    DN(___,0,0x000),
    DN(___,0,0x000),
    DN(___,0,0x000),
    DN(___,0,0x000),
    DN(___,0,0x000),
    DN(___,0,0x000),
    DN(___,0,0x000),
    DN(___,0,0x000),
    DN(___,0,0x000),
    DN(___,0,0x000),
    DN(___,0,0x000),
    DN(F_5,8,0xC08),
    DN(G_5,8,0xC08),
    DN(F_5,8,0xC08),
    DN(___,0,0x000),
    DN(___,0,0x000),
    DN(___,0,0x000),
    DN(___,0,0x000),
    DN(___,0,0x000),
    DN(___,0,0x000),
    DN(___,0,0x000),
    DN(___,0,0x000),
    DN(___,0,0x000),
    DN(F_5,8,0xC08),
    DN(___,0,0x000),
    DN(___,0,0x000),
    DN(___,0,0x000),
    DN(F_5,8,0xC08),
    DN(G_5,8,0xC08),
    DN(___,0,0x000),
    DN(___,0,0x000),
    DN(___,0,0x000),
    DN(___,0,0x000),
    DN(___,0,0x000),
    DN(___,0,0x000),
    DN(___,0,0x000),
    DN(___,0,0x000),
    DN(___,0,0x000),
    DN(___,0,0x000),
    DN(___,0,0x000),
    DN(___,0,0x000),
    DN(___,0,0x000),
    DN(___,0,0x000),
};
const unsigned char P8[] = {
    DN(As5,7,0xC08),
    DN(C_6,7,0xC08),
    DN(As5,7,0xC08),
    DN(___,0,0x000),
    DN(___,0,0x000),
    DN(___,0,0x000),
    DN(___,0,0x000),
    DN(___,0,0x000),
    DN(___,0,0x000),
    DN(___,0,0x000),
    DN(___,0,0x000),
    DN(___,0,0x000),
    DN(Ds6,7,0xC08),
    DN(___,0,0x000),
    DN(___,0,0x000),
    DN(___,0,0x000),
    DN(C_6,7,0xC08),
    DN(___,0,0x000),
    DN(___,0,0x000),
    DN(___,0,0x000),
    DN(___,0,0x000),
    DN(___,0,0x000),
    DN(___,0,0x000),
    DN(___,0,0x000),
    DN(___,0,0x000),
    DN(___,0,0x000),
    DN(___,0,0x000),
    DN(___,0,0x000),
    DN(___,0,0x000),
    DN(___,0,0x000),
    DN(___,0,0x000),
    DN(___,0,0x000),
    DN(Gs5,7,0xC08),
    DN(As5,7,0xC08),
    DN(Gs5,7,0xC08),
    DN(___,0,0x000),
    DN(___,0,0x000),
    DN(___,0,0x000),
    DN(___,0,0x000),
    DN(___,0,0x000),
    DN(___,0,0x000),
    DN(___,0,0x000),
    DN(___,0,0x000),
    DN(___,0,0x000),
    DN(D_6,7,0xC08),
    DN(___,0,0x000),
    DN(___,0,0x000),
    DN(___,0,0x000),
    DN(D_6,7,0xC08),
    DN(Ds6,7,0xC08),
    DN(As5,7,0xC08),
    DN(___,0,0x000),
    DN(___,0,0x000),
    DN(___,0,0x000),
    DN(___,0,0x000),
    DN(___,0,0x000),
    DN(___,0,0x000),
    DN(___,0,0x000),
    DN(___,0,0x000),
    DN(___,0,0x000),
    DN(___,0,0x000),
    DN(___,0,0x000),
    DN(___,0,0x000),
    DN(___,0,0x000),
};
const unsigned char P9[] = {
    DN(Ds5,12,0xC0C),
    DN(___,0,0x000),
    DN(Ds5,12,0xC0C),
    DN(___,0,0x000),
    DN(___,0,0xE00),
    DN(___,0,0x000),
    DN(Ds5,12,0xC0C),
    DN(___,0,0x000),
    DN(Ds5,12,0xC0C),
    DN(___,0,0x000),
    DN(Ds5,12,0xC0C),
    DN(___,0,0x000),
    DN(___,0,0xE00),
    DN(___,0,0x000),
    DN(Ds5,12,0xC0C),
    DN(___,0,0x000),
    DN(Ds5,12,0xC0C),
    DN(___,0,0x000),
    DN(Ds5,12,0xC0C),
    DN(___,0,0x000),
    DN(___,0,0xE00),
    DN(___,0,0x000),
    DN(Ds5,12,0xC0C),
    DN(___,0,0x000),
    DN(Ds5,12,0xC0C),
    DN(___,0,0x000),
    DN(Ds5,12,0xC0C),
    DN(___,0,0x000),
    DN(___,0,0xE00),
    DN(___,0,0x000),
    DN(Ds5,12,0xC0C),
    DN(___,0,0x000),
    DN(As4,12,0xC0C),
    DN(___,0,0x000),
    DN(As4,12,0xC0C),
    DN(___,0,0x000),
    DN(___,0,0xE00),
    DN(___,0,0x000),
    DN(As4,12,0xC0C),
    DN(___,0,0x000),
    DN(As4,12,0xC0C),
    DN(___,0,0x000),
    DN(As4,12,0xC0C),
    DN(___,0,0x000),
    DN(___,0,0xE00),
    DN(___,0,0x000),
    DN(As4,12,0xC0C),
    DN(___,0,0x000),
    DN(Ds5,12,0xC0C),
    DN(___,0,0x000),
    DN(Ds5,12,0xC0C),
    DN(___,0,0x000),
    DN(___,0,0xE00),
    DN(___,0,0x000),
    DN(Ds5,12,0xC0C),
    DN(___,0,0x000),
    DN(Ds5,12,0xC0C),
    DN(___,0,0x000),
    DN(Ds5,12,0xC0C),
    DN(___,0,0x000),
    DN(___,0,0xE00),
    DN(___,0,0x000),
    DN(Ds5,12,0xC0C),
    DN(___,0,0x000),
};
const unsigned char P10[] = {
    DN(C_8,1,0xE01),
    DN(___,0,0x000),
    DN(C_8,1,0xE04),
    DN(___,0,0x000),
    DN(___,0,0x000),
    DN(___,0,0x000),
    DN(C_8,1,0xE01),
    DN(___,0,0x000),
    DN(C_8,1,0xE01),
    DN(___,0,0x000),
    DN(C_8,1,0xE04),
    DN(___,0,0x000),
    DN(___,0,0x000),
    DN(___,0,0x000),
    DN(C_8,1,0xE01),
    DN(___,0,0x000),
    DN(C_8,1,0xE01),
    DN(___,0,0x000),
    DN(C_8,1,0xE04),
    DN(___,0,0x000),
    DN(___,0,0x000),
    DN(___,0,0x000),
    DN(C_8,1,0xE01),
    DN(___,0,0x000),
    DN(C_8,1,0xE01),
    DN(___,0,0x000),
    DN(C_8,1,0xE04),
    DN(___,0,0x000),
    DN(___,0,0x000),
    DN(___,0,0x000),
    DN(C_8,1,0xE01),
    DN(___,0,0x000),
    DN(C_8,1,0xE01),
    DN(___,0,0x000),
    DN(C_8,1,0xE04),
    DN(___,0,0x000),
    DN(___,0,0x000),
    DN(___,0,0x000),
    DN(C_8,1,0xE01),
    DN(___,0,0x000),
    DN(C_8,1,0xE01),
    DN(___,0,0x000),
    DN(C_8,1,0xE04),
    DN(___,0,0x000),
    DN(___,0,0x000),
    DN(___,0,0x000),
    DN(C_8,1,0xE01),
    DN(___,0,0x000),
    DN(C_8,1,0xE01),
    DN(___,0,0x000),
    DN(C_8,1,0xE04),
    DN(___,0,0x000),
    DN(___,0,0x000),
    DN(___,0,0x000),
    DN(C_8,1,0xE01),
    DN(___,0,0x000),
    DN(___,0,0x000),
    DN(___,0,0x000),
    DN(C_8,1,0xE04),
    DN(___,0,0x000),
    DN(___,0,0x000),
    DN(___,0,0x000),
    DN(C_8,1,0xE04),
    DN(___,0,0x000),
};
const unsigned char P11[] = {
    DN(D_5,8,0xC08),
    DN(C_5,8,0xC08),
    DN(As4,8,0xC08),
    DN(___,0,0x000),
    DN(___,0,0x000),
    DN(___,0,0x000),
    DN(___,0,0x000),
    DN(___,0,0x000),
    DN(___,0,0x000),
    DN(___,0,0x000),
    DN(___,0,0x000),
    DN(___,0,0x000),
    DN(G_5,8,0xC08),
    DN(___,0,0x000),
    DN(___,0,0x000),
    DN(___,0,0x000),
    DN(D_5,8,0xC08),
    DN(Ds5,8,0xC08),
    DN(C_5,8,0xC08),
    DN(___,0,0x000),
    DN(___,0,0x000),
    DN(___,0,0x000),
    DN(___,0,0x000),
    DN(___,0,0x000),
    DN(___,0,0x000),
    DN(___,0,0x000),
    DN(___,0,0x000),
    DN(___,0,0x000),
    DN(___,0,0x000),
    DN(___,0,0x000),
    DN(___,0,0x000),
    DN(___,0,0x000),
    DN(As4,8,0xC08),
    DN(C_5,8,0xC08),
    DN(As4,8,0xC08),
    DN(___,0,0x000),
    DN(___,0,0x000),
    DN(___,0,0x000),
    DN(___,0,0x000),
    DN(___,0,0x000),
    DN(___,0,0x000),
    DN(___,0,0x000),
    DN(___,0,0x000),
    DN(___,0,0x000),
    DN(Gs4,8,0xC08),
    DN(___,0,0x000),
    DN(___,0,0x000),
    DN(___,0,0x000),
    DN(B_4,8,0xC08),
    DN(___,0,0x000),
    DN(___,0,0x000),
    DN(___,0,0x000),
    DN(___,0,0x000),
    DN(___,0,0x000),
    DN(As4,8,0xC08),
    DN(___,0,0x000),
    DN(___,0,0x000),
    DN(___,0,0x000),
    DN(___,0,0x000),
    DN(___,0,0x000),
    DN(___,0,0x000),
    DN(___,0,0x000),
    DN(___,0,0x000),
    DN(___,0,0x000),
};
const unsigned char P12[] = {
    DN(G_5,7,0xC08),
    DN(As5,7,0xC08),
    DN(G_5,7,0xC08),
    DN(___,0,0x000),
    DN(___,0,0x000),
    DN(___,0,0x000),
    DN(___,0,0x000),
    DN(___,0,0x000),
    DN(___,0,0x000),
    DN(___,0,0x000),
    DN(___,0,0x000),
    DN(___,0,0x000),
    DN(As5,7,0xC08),
    DN(___,0,0x000),
    DN(___,0,0x000),
    DN(___,0,0x000),
    DN(As5,7,0xC08),
    DN(C_6,7,0xC08),
    DN(Gs5,7,0xC08),
    DN(___,0,0x000),
    DN(___,0,0x000),
    DN(___,0,0x000),
    DN(___,0,0x000),
    DN(___,0,0x000),
    DN(___,0,0x000),
    DN(___,0,0x000),
    DN(___,0,0x000),
    DN(___,0,0x000),
    DN(___,0,0x000),
    DN(___,0,0x000),
    DN(___,0,0x000),
    DN(___,0,0x000),
    DN(D_5,7,0xC08),
    DN(Ds5,7,0xC08),
    DN(D_5,7,0xC08),
    DN(___,0,0x000),
    DN(___,0,0x000),
    DN(___,0,0x000),
    DN(___,0,0x000),
    DN(___,0,0x000),
    DN(___,0,0x000),
    DN(___,0,0x000),
    DN(___,0,0x000),
    DN(___,0,0x000),
    DN(F_5,7,0xC08),
    DN(___,0,0x000),
    DN(___,0,0x000),
    DN(___,0,0x000),
    DN(Gs5,7,0xC08),
    DN(___,0,0x000),
    DN(___,0,0x000),
    DN(___,0,0x000),
    DN(___,0,0x000),
    DN(___,0,0x000),
    DN(G_5,7,0xC08),
    DN(___,0,0x000),
    DN(___,0,0x000),
    DN(___,0,0x000),
    DN(___,0,0x000),
    DN(___,0,0x000),
    DN(___,0,0x000),
    DN(___,0,0x000),
    DN(___,0,0x000),
    DN(___,0,0x000),
};
const unsigned char P13[] = {
    DN(Ds5,12,0xC0C),
    DN(___,0,0x000),
    DN(Ds5,12,0xC0C),
    DN(___,0,0x000),
    DN(___,0,0xE00),
    DN(___,0,0x000),
    DN(Ds5,12,0xC0C),
    DN(___,0,0x000),
    DN(Ds5,12,0xC0C),
    DN(___,0,0x000),
    DN(Ds5,12,0xC0C),
    DN(___,0,0x000),
    DN(___,0,0xE00),
    DN(___,0,0x000),
    DN(Ds5,12,0xC0C),
    DN(___,0,0x000),
    DN(Gs4,12,0xC0C),
    DN(___,0,0x000),
    DN(Gs4,12,0xC0C),
    DN(___,0,0x000),
    DN(___,0,0xE00),
    DN(___,0,0x000),
    DN(Gs4,12,0xC0C),
    DN(___,0,0x000),
    DN(Gs4,12,0xC0C),
    DN(___,0,0x000),
    DN(Gs4,12,0xC0C),
    DN(___,0,0x000),
    DN(___,0,0xE00),
    DN(___,0,0x000),
    DN(Gs4,12,0xC0C),
    DN(___,0,0x000),
    DN(As4,12,0xC0C),
    DN(___,0,0x000),
    DN(As4,12,0xC0C),
    DN(___,0,0x000),
    DN(___,0,0xE00),
    DN(___,0,0x000),
    DN(As4,12,0xC0C),
    DN(___,0,0x000),
    DN(As4,12,0xC0C),
    DN(___,0,0x000),
    DN(As4,12,0xC0C),
    DN(___,0,0x000),
    DN(___,0,0xE00),
    DN(___,0,0x000),
    DN(As4,12,0xC0C),
    DN(___,0,0x000),
    DN(Ds5,12,0xC0C),
    DN(___,0,0x000),
    DN(Ds5,12,0xC0C),
    DN(___,0,0x000),
    DN(___,0,0xE00),
    DN(___,0,0x000),
    DN(Ds5,12,0xC0C),
    DN(___,0,0x000),
    DN(Ds5,12,0xC0C),
    DN(___,0,0x000),
    DN(Ds5,12,0xC0C),
    DN(___,0,0x000),
    DN(___,0,0xE00),
    DN(___,0,0x000),
    DN(Ds5,12,0xC0C),
    DN(___,0,0x000),
};
const unsigned char P14[] = {
    DN(G_6,7,0xC08),
    DN(___,0,0x000),
    DN(___,0,0x000),
    DN(___,0,0x000),
    DN(___,0,0x000),
    DN(___,0,0x000),
    DN(Gs6,7,0xC08),
    DN(___,0,0x000),
    DN(___,0,0x000),
    DN(___,0,0x000),
    DN(___,0,0x000),
    DN(___,0,0x000),
    DN(G_6,7,0xC08),
    DN(___,0,0x000),
    DN(___,0,0x000),
    DN(___,0,0x000),
    DN(As6,7,0xC08),
    DN(___,0,0x000),
    DN(___,0,0x000),
    DN(___,0,0x000),
    DN(___,0,0x000),
    DN(___,0,0x000),
    DN(Gs6,7,0xC08),
    DN(___,0,0x000),
    DN(___,0,0x000),
    DN(___,0,0x000),
    DN(___,0,0x000),
    DN(___,0,0x000),
    DN(___,0,0x000),
    DN(___,0,0x000),
    DN(___,0,0x000),
    DN(___,0,0x000),
    DN(Ds6,7,0xC08),
    DN(___,0,0x000),
    DN(___,0,0x000),
    DN(___,0,0x000),
    DN(___,0,0x000),
    DN(___,0,0x000),
    DN(F_6,7,0xC08),
    DN(___,0,0x000),
    DN(___,0,0x000),
    DN(___,0,0x000),
    DN(___,0,0x000),
    DN(___,0,0x000),
    DN(G_6,7,0xC08),
    DN(___,0,0x000),
    DN(___,0,0x000),
    DN(___,0,0x000),
    DN(Gs6,7,0xC08),
    DN(___,0,0x000),
    DN(___,0,0x000),
    DN(___,0,0x000),
    DN(___,0,0x000),
    DN(___,0,0x000),
    DN(G_6,7,0xC08),
    DN(___,0,0x000),
    DN(___,0,0x000),
    DN(___,0,0x000),
    DN(___,0,0x000),
    DN(___,0,0x000),
    DN(___,0,0x000),
    DN(___,0,0x000),
    DN(___,0,0x000),
    DN(___,0,0x000),
};
const unsigned char P15[] = {
    DN(Ds5,12,0xC0C),
    DN(___,0,0x000),
    DN(Ds5,12,0xC0C),
    DN(___,0,0x000),
    DN(___,0,0xE00),
    DN(___,0,0x000),
    DN(Ds5,12,0xC0C),
    DN(___,0,0x000),
    DN(Ds5,12,0xC0C),
    DN(___,0,0x000),
    DN(Ds5,12,0xC0C),
    DN(___,0,0x000),
    DN(___,0,0xE00),
    DN(___,0,0x000),
    DN(Ds5,12,0xC0C),
    DN(___,0,0x000),
    DN(Gs4,12,0xC0C),
    DN(___,0,0x000),
    DN(Gs4,12,0xC0C),
    DN(___,0,0x000),
    DN(___,0,0xE00),
    DN(___,0,0x000),
    DN(Gs4,12,0xC0C),
    DN(___,0,0x000),
    DN(Gs4,12,0xC0C),
    DN(___,0,0x000),
    DN(Gs4,12,0xC0C),
    DN(___,0,0x000),
    DN(___,0,0xE00),
    DN(___,0,0x000),
    DN(Gs4,12,0xC0C),
    DN(___,0,0x000),
    DN(As4,12,0xC0C),
    DN(___,0,0x000),
    DN(As4,12,0xC0C),
    DN(___,0,0x000),
    DN(___,0,0xE00),
    DN(___,0,0x000),
    DN(As4,12,0xC0C),
    DN(___,0,0x000),
    DN(As4,12,0xC0C),
    DN(___,0,0x000),
    DN(As4,12,0xC0C),
    DN(___,0,0x000),
    DN(___,0,0xE00),
    DN(___,0,0x000),
    DN(As4,12,0xC0C),
    DN(___,0,0x000),
    DN(Ds5,12,0xC0C),
    DN(___,0,0x000),
    DN(Ds5,12,0xC0C),
    DN(___,0,0x000),
    DN(___,0,0xE00),
    DN(___,0,0x000),
    DN(Ds5,12,0xC0C),
    DN(___,0,0x000),
    DN(D_5,12,0xC0C),
    DN(___,0,0x000),
    DN(D_5,12,0xC0C),
    DN(___,0,0x000),
    DN(___,0,0xE00),
    DN(___,0,0x000),
    DN(D_5,12,0xC0C),
    DN(___,0,0x000),
};
const unsigned char P16[] = {
    DN(Ds6,7,0xC08),
    DN(___,0,0x000),
    DN(___,0,0x000),
    DN(___,0,0x000),
    DN(___,0,0x000),
    DN(___,0,0x000),
    DN(D_6,7,0xC08),
    DN(___,0,0x000),
    DN(___,0,0x000),
    DN(___,0,0x000),
    DN(D_6,7,0xC08),
    DN(___,0,0x000),
    DN(___,0,0x000),
    DN(___,0,0x000),
    DN(___,0,0x000),
    DN(___,0,0x000),
    DN(G_6,7,0xC08),
    DN(___,0,0x000),
    DN(___,0,0x000),
    DN(___,0,0x000),
    DN(___,0,0x000),
    DN(___,0,0x000),
    DN(F_6,7,0xC08),
    DN(___,0,0x000),
    DN(___,0,0x000),
    DN(___,0,0x000),
    DN(___,0,0x000),
    DN(___,0,0x000),
    DN(C_6,7,0xC08),
    DN(___,0,0x000),
    DN(___,0,0x000),
    DN(___,0,0x000),
    DN(Gs6,7,0xC08),
    DN(___,0,0x000),
    DN(___,0,0x000),
    DN(___,0,0x000),
    DN(___,0,0x000),
    DN(___,0,0x000),
    DN(As6,7,0xC08),
    DN(___,0,0x000),
    DN(___,0,0x000),
    DN(___,0,0x000),
    DN(___,0,0x000),
    DN(___,0,0x000),
    DN(Gs6,7,0xC08),
    DN(___,0,0x000),
    DN(___,0,0x000),
    DN(___,0,0x000),
    DN(F_6,7,0xC08),
    DN(___,0,0x000),
    DN(___,0,0x000),
    DN(___,0,0x000),
    DN(___,0,0x000),
    DN(___,0,0x000),
    DN(Ds6,7,0xC08),
    DN(___,0,0x000),
    DN(___,0,0x000),
    DN(___,0,0x000),
    DN(___,0,0x000),
    DN(___,0,0x000),
    DN(___,0,0x000),
    DN(___,0,0x000),
    DN(___,0,0x000),
    DN(___,0,0x000),
};
const unsigned char P17[] = {
    DN(C_5,12,0xC0C),
    DN(___,0,0x000),
    DN(C_5,12,0xC0C),
    DN(___,0,0x000),
    DN(___,0,0xE00),
    DN(___,0,0x000),
    DN(C_5,12,0xC0C),
    DN(___,0,0x000),
    DN(As4,12,0xC0C),
    DN(___,0,0x000),
    DN(As4,12,0xC0C),
    DN(___,0,0x000),
    DN(___,0,0xE00),
    DN(___,0,0x000),
    DN(As4,12,0xC0C),
    DN(___,0,0x000),
    DN(Gs4,12,0xC0C),
    DN(___,0,0x000),
    DN(Gs4,12,0xC0C),
    DN(___,0,0x000),
    DN(___,0,0xE00),
    DN(___,0,0x000),
    DN(Gs4,12,0xC0C),
    DN(___,0,0x000),
    DN(Gs4,12,0xC0C),
    DN(___,0,0x000),
    DN(Gs4,12,0xC0C),
    DN(___,0,0x000),
    DN(___,0,0xE00),
    DN(___,0,0x000),
    DN(Gs4,12,0xC0C),
    DN(___,0,0x000),
    DN(As4,12,0xC0C),
    DN(___,0,0x000),
    DN(As4,12,0xC0C),
    DN(___,0,0x000),
    DN(___,0,0xE00),
    DN(___,0,0x000),
    DN(As4,12,0xC0C),
    DN(___,0,0x000),
    DN(As4,12,0xC0C),
    DN(___,0,0x000),
    DN(As4,12,0xC0C),
    DN(___,0,0x000),
    DN(___,0,0xE00),
    DN(___,0,0x000),
    DN(As4,12,0xC0C),
    DN(___,0,0x000),
    DN(Ds5,12,0xC0C),
    DN(___,0,0x000),
    DN(Ds5,12,0xC0C),
    DN(___,0,0x000),
    DN(___,0,0xE00),
    DN(___,0,0x000),
    DN(Ds5,12,0xC0C),
    DN(___,0,0x000),
    DN(Ds5,12,0xC0C),
    DN(___,0,0x000),
    DN(Ds5,12,0xC0C),
    DN(___,0,0x000),
    DN(___,0,0xE00),
    DN(___,0,0x000),
    DN(Ds5,12,0xC0C),
    DN(___,0,0x000),
};
const unsigned char P18[] = {
    DN(___,0,0xE00),
    DN(___,0,0x000),
    DN(___,0,0x8FF),
    DN(___,0,0x000),
    DN(___,0,0x000),
    DN(___,0,0x000),
    DN(___,0,0x000),
    DN(___,0,0x000),
    DN(___,0,0x000),
    DN(___,0,0x000),
    DN(___,0,0x000),
    DN(___,0,0x000),
    DN(___,0,0x000),
    DN(___,0,0x000),
    DN(___,0,0x000),
    DN(___,0,0x000),
    DN(___,0,0x000),
    DN(___,0,0x000),
    DN(___,0,0x000),
    DN(___,0,0x000),
    DN(___,0,0x000),
    DN(___,0,0x000),
    DN(___,0,0x000),
    DN(___,0,0x000),
    DN(___,0,0x000),
    DN(___,0,0x000),
    DN(___,0,0x000),
    DN(___,0,0x000),
    DN(___,0,0x000),
    DN(___,0,0x000),
    DN(___,0,0x000),
    DN(___,0,0x000),
    DN(___,0,0x000),
    DN(___,0,0x000),
    DN(___,0,0x000),
    DN(___,0,0x000),
    DN(___,0,0x000),
    DN(___,0,0x000),
    DN(___,0,0x000),
    DN(___,0,0x000),
    DN(___,0,0x000),
    DN(___,0,0x000),
    DN(___,0,0x000),
    DN(___,0,0x000),
    DN(___,0,0x000),
    DN(___,0,0x000),
    DN(___,0,0x000),
    DN(___,0,0x000),
    DN(___,0,0x000),
    DN(___,0,0x000),
    DN(___,0,0x000),
    DN(___,0,0x000),
    DN(___,0,0x000),
    DN(___,0,0x000),
    DN(___,0,0x000),
    DN(___,0,0x000),
    DN(___,0,0x000),
    DN(___,0,0x000),
    DN(___,0,0x000),
    DN(___,0,0x000),
    DN(___,0,0x000),
    DN(___,0,0x000),
    DN(___,0,0x000),
    DN(___,0,0xB07),
};
const unsigned char P19[] = {
    DN(B_5,9,0xC06),
    DN(___,0,0x000),
    DN(___,0,0x000),
    DN(___,0,0x000),
    DN(Gs5,9,0xC06),
    DN(___,0,0x000),
    DN(A_5,9,0xC06),
    DN(___,0,0x000),
    DN(B_5,9,0xC06),
    DN(___,0,0x000),
    DN(E_6,9,0xC06),
    DN(D_6,9,0xC06),
    DN(A_5,9,0xC06),
    DN(___,0,0x000),
    DN(Gs5,9,0xC06),
    DN(___,0,0x000),
    DN(E_5,9,0xC06),
    DN(___,0,0x000),
    DN(___,0,0x000),
    DN(___,0,0x000),
    DN(___,0,0x000),
    DN(___,0,0x000),
    DN(A_5,9,0xC06),
    DN(___,0,0x000),
    DN(C_6,9,0xC06),
    DN(___,0,0x000),
    DN(___,0,0x000),
    DN(___,0,0x000),
    DN(B_5,9,0xC06),
    DN(___,0,0x000),
    DN(A_5,9,0xC06),
    DN(___,0,0x000),
    DN(Gs5,9,0xC06),
    DN(Gs5,9,0xC06),
    DN(E_5,9,0xC06),
    DN(___,0,0x000),
    DN(Gs5,9,0xC06),
    DN(___,0,0x000),
    DN(A_5,9,0xC06),
    DN(___,0,0x000),
    DN(B_5,9,0xC06),
    DN(___,0,0x000),
    DN(___,0,0x000),
    DN(___,0,0x000),
    DN(C_6,9,0xC06),
    DN(___,0,0x000),
    DN(___,0,0x000),
    DN(___,0,0x000),
    DN(A_5,9,0xC06),
    DN(___,0,0x000),
    DN(___,0,0x000),
    DN(___,0,0x000),
    DN(E_5,9,0xC06),
    DN(___,0,0x000),
    DN(___,0,0x000),
    DN(___,0,0x000),
    DN(E_5,9,0xC06),
    DN(___,0,0x000),
    DN(___,0,0x000),
    DN(___,0,0x000),
    DN(___,0,0x000),
    DN(___,0,0x000),
    DN(___,0,0x000),
    DN(___,0,0x000),
};
const unsigned char P20[] = {
    DN(E_6,7,0xC08),
    DN(___,0,0x000),
    DN(___,0,0x000),
    DN(___,0,0x000),
    DN(B_5,7,0xC08),
    DN(___,0,0x000),
    DN(C_6,7,0xC08),
    DN(___,0,0x000),
    DN(D_6,7,0xC08),
    DN(___,0,0x000),
    DN(___,0,0x000),
    DN(___,0,0x000),
    DN(C_6,7,0xC08),
    DN(___,0,0x000),
    DN(B_5,7,0xC08),
    DN(___,0,0x000),
    DN(A_5,7,0xC08),
    DN(___,0,0x000),
    DN(___,0,0x000),
    DN(___,0,0x000),
    DN(A_5,7,0xC08),
    DN(___,0,0x000),
    DN(C_6,7,0xC08),
    DN(___,0,0x000),
    DN(E_6,7,0xC08),
    DN(___,0,0x000),
    DN(___,0,0x000),
    DN(___,0,0x000),
    DN(D_6,7,0xC08),
    DN(___,0,0x000),
    DN(C_6,7,0xC08),
    DN(___,0,0x000),
    DN(B_5,7,0xC08),
    DN(___,0,0x000),
    DN(___,0,0x000),
    DN(___,0,0x000),
    DN(___,0,0x000),
    DN(___,0,0x000),
    DN(C_6,7,0xC08),
    DN(___,0,0x000),
    DN(D_6,7,0xC08),
    DN(___,0,0x000),
    DN(___,0,0x000),
    DN(___,0,0x000),
    DN(E_6,7,0xC08),
    DN(___,0,0x000),
    DN(___,0,0x000),
    DN(___,0,0x000),
    DN(C_6,7,0xC08),
    DN(___,0,0x000),
    DN(___,0,0x000),
    DN(___,0,0x000),
    DN(A_5,7,0xC08),
    DN(___,0,0x000),
    DN(___,0,0x000),
    DN(___,0,0x000),
    DN(A_5,7,0xC08),
    DN(___,0,0x000),
    DN(___,0,0x000),
    DN(___,0,0x000),
    DN(___,0,0x000),
    DN(___,0,0x000),
    DN(___,0,0x000),
    DN(___,0,0x000),
};
const unsigned char P21[] = {
    DN(E_4,6,0xC0F),
    DN(___,0,0x000),
    DN(E_5,6,0xC0F),
    DN(___,0,0x000),
    DN(E_4,6,0xC0F),
    DN(___,0,0x000),
    DN(E_5,6,0xC0F),
    DN(___,0,0x000),
    DN(E_4,6,0xC0F),
    DN(___,0,0x000),
    DN(E_5,6,0xC0F),
    DN(___,0,0x000),
    DN(E_4,6,0xC0F),
    DN(___,0,0x000),
    DN(E_5,6,0xC0F),
    DN(___,0,0x000),
    DN(A_4,6,0xC0F),
    DN(___,0,0x000),
    DN(A_5,6,0xC0F),
    DN(___,0,0x000),
    DN(A_4,6,0xC0F),
    DN(___,0,0x000),
    DN(A_5,6,0xC0F),
    DN(___,0,0x000),
    DN(A_4,6,0xC0F),
    DN(___,0,0x000),
    DN(A_5,6,0xC0F),
    DN(___,0,0x000),
    DN(A_4,6,0xC0F),
    DN(___,0,0x000),
    DN(A_5,6,0xC0F),
    DN(___,0,0x000),
    DN(Gs4,6,0xC0F),
    DN(___,0,0x000),
    DN(Gs5,6,0xC0F),
    DN(___,0,0x000),
    DN(Gs4,6,0xC0F),
    DN(___,0,0x000),
    DN(Gs5,6,0xC0F),
    DN(___,0,0x000),
    DN(E_4,6,0xC0F),
    DN(___,0,0x000),
    DN(E_5,6,0xC0F),
    DN(___,0,0x000),
    DN(E_4,6,0xC0F),
    DN(___,0,0x000),
    DN(E_5,6,0xC0F),
    DN(___,0,0x000),
    DN(A_4,6,0xC0F),
    DN(___,0,0x000),
    DN(A_5,6,0xC0F),
    DN(___,0,0x000),
    DN(A_4,6,0xC0F),
    DN(___,0,0x000),
    DN(A_5,6,0xC0F),
    DN(___,0,0x000),
    DN(A_4,6,0xC0F),
    DN(___,0,0x000),
    DN(A_5,6,0xC0F),
    DN(___,0,0x000),
    DN(B_4,6,0xC0F),
    DN(___,0,0x000),
    DN(C_5,6,0xC0F),
    DN(___,0,0x000),
};
const unsigned char P22[] = {
    DN(___,0,0xF06),
    DN(___,0,0x8FF),
    DN(C_8,1,0xE01),
    DN(___,0,0x000),
    DN(___,0,0x000),
    DN(___,0,0x000),
    DN(C_8,1,0xE01),
    DN(___,0,0x000),
    DN(___,0,0x000),
    DN(___,0,0x000),
    DN(C_8,1,0xE01),
    DN(C_8,1,0xE01),
    DN(___,0,0x000),
    DN(___,0,0x000),
    DN(C_8,1,0xE01),
    DN(___,0,0x000),
    DN(___,0,0x000),
    DN(___,0,0x000),
    DN(C_8,1,0xE01),
    DN(___,0,0x000),
    DN(___,0,0x000),
    DN(___,0,0x000),
    DN(C_8,1,0xE01),
    DN(___,0,0x000),
    DN(___,0,0x000),
    DN(___,0,0x000),
    DN(C_8,1,0xE01),
    DN(___,0,0x000),
    DN(C_8,1,0xE01),
    DN(___,0,0x000),
    DN(C_8,1,0xE01),
    DN(___,0,0x000),
    DN(___,0,0x000),
    DN(___,0,0x000),
    DN(C_8,1,0xE01),
    DN(___,0,0x000),
    DN(___,0,0x000),
    DN(___,0,0x000),
    DN(C_8,1,0xE01),
    DN(___,0,0x000),
    DN(___,0,0x000),
    DN(___,0,0x000),
    DN(C_8,1,0xE01),
    DN(C_8,1,0xE01),
    DN(___,0,0x000),
    DN(___,0,0x000),
    DN(C_8,1,0xE01),
    DN(___,0,0x000),
    DN(___,0,0x000),
    DN(___,0,0x000),
    DN(C_8,1,0xE01),
    DN(___,0,0x000),
    DN(___,0,0x000),
    DN(___,0,0x000),
    DN(C_8,1,0xE01),
    DN(___,0,0x000),
    DN(___,0,0x000),
    DN(___,0,0x000),
    DN(C_8,1,0xE01),
    DN(___,0,0x000),
    DN(C_8,1,0xE01),
    DN(___,0,0x000),
    DN(C_8,1,0xE01),
    DN(___,0,0x000),
};
const unsigned char P23[] = {
    DN(D_4,9,0xC06),
    DN(___,0,0x000),
    DN(F_5,9,0xC06),
    DN(___,0,0x000),
    DN(___,0,0x000),
    DN(___,0,0x000),
    DN(A_5,9,0xC06),
    DN(___,0,0x000),
    DN(C_6,9,0xC06),
    DN(___,0,0x000),
    DN(C_6,9,0xC06),
    DN(C_6,9,0xC06),
    DN(B_5,9,0xC06),
    DN(___,0,0x000),
    DN(A_5,9,0xC06),
    DN(___,0,0x000),
    DN(G_5,9,0xC06),
    DN(___,0,0x000),
    DN(___,0,0x000),
    DN(___,0,0x000),
    DN(___,0,0x000),
    DN(___,0,0x000),
    DN(E_5,9,0xC06),
    DN(___,0,0x000),
    DN(G_5,9,0xC06),
    DN(___,0,0x000),
    DN(A_5,9,0xC06),
    DN(G_5,9,0xC06),
    DN(F_5,9,0xC06),
    DN(___,0,0x000),
    DN(E_5,9,0xC06),
    DN(___,0,0x000),
    DN(Gs5,9,0xC06),
    DN(___,0,0x000),
    DN(E_5,9,0xC06),
    DN(___,0,0x000),
    DN(Gs5,9,0xC06),
    DN(___,0,0x000),
    DN(A_5,9,0xC06),
    DN(___,0,0x000),
    DN(B_5,9,0xC06),
    DN(___,0,0x000),
    DN(Gs5,9,0xC06),
    DN(___,0,0x000),
    DN(C_6,9,0xC06),
    DN(___,0,0x000),
    DN(Gs5,9,0xC06),
    DN(___,0,0x000),
    DN(A_5,9,0xC06),
    DN(C_6,9,0xC06),
    DN(E_5,9,0xC06),
    DN(___,0,0x000),
    DN(E_5,9,0xC06),
    DN(___,0,0x000),
    DN(___,0,0x000),
    DN(___,0,0x000),
    DN(E_5,9,0xC06),
    DN(___,0,0x000),
    DN(___,0,0x000),
    DN(___,0,0x000),
    DN(___,0,0x000),
    DN(___,0,0x000),
    DN(___,0,0x000),
    DN(___,0,0x000),
};
const unsigned char P24[] = {
    DN(___,0,0x000),
    DN(___,0,0x000),
    DN(D_6,7,0xC08),
    DN(___,0,0x000),
    DN(___,0,0x000),
    DN(___,0,0x000),
    DN(F_6,7,0xC08),
    DN(___,0,0x000),
    DN(A_6,7,0xC08),
    DN(___,0,0x000),
    DN(___,0,0x000),
    DN(___,0,0x000),
    DN(G_6,7,0xC08),
    DN(___,0,0x000),
    DN(F_6,7,0xC08),
    DN(___,0,0x000),
    DN(E_6,7,0xC08),
    DN(___,0,0x000),
    DN(___,0,0x000),
    DN(___,0,0x000),
    DN(___,0,0x000),
    DN(___,0,0x000),
    DN(C_6,7,0xC08),
    DN(___,0,0x000),
    DN(E_6,7,0xC08),
    DN(___,0,0x000),
    DN(___,0,0x000),
    DN(___,0,0x000),
    DN(D_6,7,0xC08),
    DN(___,0,0x000),
    DN(C_6,7,0xC08),
    DN(___,0,0x000),
    DN(B_5,7,0xC08),
    DN(___,0,0x000),
    DN(___,0,0x000),
    DN(___,0,0x000),
    DN(___,0,0x000),
    DN(___,0,0x000),
    DN(C_6,7,0xC08),
    DN(___,0,0x000),
    DN(D_6,7,0xC08),
    DN(___,0,0x000),
    DN(___,0,0x000),
    DN(___,0,0x000),
    DN(E_6,7,0xC08),
    DN(___,0,0x000),
    DN(___,0,0x000),
    DN(___,0,0x000),
    DN(C_6,7,0xC08),
    DN(___,0,0x000),
    DN(___,0,0x000),
    DN(___,0,0x000),
    DN(A_5,7,0xC08),
    DN(___,0,0x000),
    DN(___,0,0x000),
    DN(___,0,0x000),
    DN(A_5,7,0xC08),
    DN(___,0,0x000),
    DN(___,0,0x000),
    DN(___,0,0x000),
    DN(___,0,0x000),
    DN(___,0,0x000),
    DN(___,0,0x000),
    DN(___,0,0x000),
};
const unsigned char P25[] = {
    DN(D_5,6,0xC0F),
    DN(___,0,0x000),
    DN(D_4,6,0xC0F),
    DN(___,0,0x000),
    DN(___,0,0xE00),
    DN(___,0,0x000),
    DN(D_4,6,0xC0F),
    DN(___,0,0x000),
    DN(___,0,0xE00),
    DN(___,0,0x000),
    DN(D_4,6,0xC0F),
    DN(___,0,0x000),
    DN(A_4,6,0xC0F),
    DN(___,0,0x000),
    DN(F_4,6,0xC0F),
    DN(___,0,0x000),
    DN(C_4,6,0xC0F),
    DN(___,0,0x000),
    DN(C_5,6,0xC0F),
    DN(___,0,0x000),
    DN(___,0,0xE00),
    DN(___,0,0x000),
    DN(C_5,6,0xC0F),
    DN(___,0,0x000),
    DN(C_4,6,0xC0F),
    DN(___,0,0x000),
    DN(G_4,6,0xC0F),
    DN(___,0,0x000),
    DN(G_4,6,0xC0F),
    DN(___,0,0x000),
    DN(___,0,0xE00),
    DN(___,0,0x000),
    DN(B_4,6,0xC0F),
    DN(___,0,0x000),
    DN(B_5,6,0xC0F),
    DN(___,0,0x000),
    DN(___,0,0xE00),
    DN(___,0,0x000),
    DN(B_5,6,0xC0F),
    DN(___,0,0x000),
    DN(___,0,0xE00),
    DN(___,0,0x000),
    DN(E_5,6,0xC0F),
    DN(___,0,0x000),
    DN(___,0,0xE00),
    DN(___,0,0x000),
    DN(Gs5,6,0xC0F),
    DN(___,0,0x000),
    DN(A_4,6,0xC0F),
    DN(___,0,0x000),
    DN(E_5,6,0xC0F),
    DN(___,0,0x000),
    DN(A_4,6,0xC0F),
    DN(___,0,0x000),
    DN(E_5,6,0xC0F),
    DN(___,0,0x000),
    DN(A_4,6,0xC0F),
    DN(___,0,0x000),
    DN(___,0,0xE00),
    DN(___,0,0x000),
    DN(___,0,0x000),
    DN(___,0,0x000),
    DN(___,0,0x000),
    DN(___,0,0x000),
};
const unsigned char P26[] = {
    DN(C_5,3,0xC06),
    DN(___,0,0x000),
    DN(___,0,0x000),
    DN(___,0,0x000),
    DN(___,0,0x000),
    DN(___,0,0x000),
    DN(___,0,0x000),
    DN(___,0,0x000),
    DN(A_4,3,0xC06),
    DN(___,0,0x000),
    DN(___,0,0x000),
    DN(___,0,0x000),
    DN(___,0,0x000),
    DN(___,0,0x000),
    DN(___,0,0x000),
    DN(___,0,0x000),
    DN(B_4,3,0xC06),
    DN(___,0,0x000),
    DN(___,0,0x000),
    DN(___,0,0x000),
    DN(___,0,0x000),
    DN(___,0,0x000),
    DN(___,0,0x000),
    DN(___,0,0x000),
    DN(Gs4,3,0xC06),
    DN(___,0,0x000),
    DN(___,0,0x000),
    DN(___,0,0x000),
    DN(___,0,0x000),
    DN(___,0,0x000),
    DN(___,0,0x000),
    DN(___,0,0x000),
    DN(A_4,3,0xC06),
    DN(___,0,0x000),
    DN(___,0,0x000),
    DN(___,0,0x000),
    DN(___,0,0x000),
    DN(___,0,0x000),
    DN(___,0,0x000),
    DN(___,0,0x000),
    DN(E_4,3,0xC06),
    DN(___,0,0x000),
    DN(___,0,0x000),
    DN(___,0,0x000),
    DN(___,0,0x000),
    DN(___,0,0x000),
    DN(___,0,0x000),
    DN(___,0,0x000),
    DN(E_4,3,0xC06),
    DN(___,0,0x000),
    DN(___,0,0x000),
    DN(___,0,0x000),
    DN(___,0,0x000),
    DN(___,0,0x000),
    DN(___,0,0x000),
    DN(___,0,0x000),
    DN(Gs4,3,0xC06),
    DN(___,0,0x000),
    DN(___,0,0x000),
    DN(___,0,0x000),
    DN(___,0,0xE00),
    DN(___,0,0x000),
    DN(___,0,0x000),
    DN(___,0,0x000),
};
const unsigned char P27[] = {
    DN(E_5,3,0xC08),
    DN(___,0,0x000),
    DN(___,0,0x000),
    DN(___,0,0x000),
    DN(___,0,0x000),
    DN(___,0,0x000),
    DN(___,0,0x000),
    DN(___,0,0x000),
    DN(C_5,3,0xC08),
    DN(___,0,0x000),
    DN(___,0,0x000),
    DN(___,0,0x000),
    DN(___,0,0x000),
    DN(___,0,0x000),
    DN(___,0,0x000),
    DN(___,0,0x000),
    DN(D_5,3,0xC08),
    DN(___,0,0x000),
    DN(___,0,0x000),
    DN(___,0,0x000),
    DN(___,0,0x000),
    DN(___,0,0x000),
    DN(___,0,0x000),
    DN(___,0,0x000),
    DN(B_4,3,0xC08),
    DN(___,0,0x000),
    DN(___,0,0x000),
    DN(___,0,0x000),
    DN(___,0,0x000),
    DN(___,0,0x000),
    DN(___,0,0x000),
    DN(___,0,0x000),
    DN(C_5,3,0xC08),
    DN(___,0,0x000),
    DN(___,0,0x000),
    DN(___,0,0x000),
    DN(___,0,0x000),
    DN(___,0,0x000),
    DN(___,0,0x000),
    DN(___,0,0x000),
    DN(A_4,3,0xC08),
    DN(___,0,0x000),
    DN(___,0,0x000),
    DN(___,0,0x000),
    DN(___,0,0x000),
    DN(___,0,0x000),
    DN(___,0,0x000),
    DN(___,0,0x000),
    DN(Gs4,3,0xC08),
    DN(___,0,0x000),
    DN(___,0,0x000),
    DN(___,0,0x000),
    DN(___,0,0x000),
    DN(___,0,0x000),
    DN(___,0,0x000),
    DN(___,0,0x000),
    DN(B_4,3,0xC08),
    DN(___,0,0x000),
    DN(___,0,0x000),
    DN(___,0,0x000),
    DN(___,0,0xE00),
    DN(___,0,0x000),
    DN(___,0,0x000),
    DN(___,0,0x000),
};
const unsigned char P28[] = {
    DN(A_5,6,0xC0F),
    DN(___,0,0x000),
    DN(E_6,6,0xC0F),
    DN(___,0,0x000),
    DN(A_5,6,0xC0F),
    DN(___,0,0x000),
    DN(E_6,6,0xC0F),
    DN(___,0,0x000),
    DN(A_5,6,0xC0F),
    DN(___,0,0x000),
    DN(E_6,6,0xC0F),
    DN(___,0,0x000),
    DN(A_5,6,0xC0F),
    DN(___,0,0x000),
    DN(E_6,6,0xC0F),
    DN(___,0,0x000),
    DN(Gs5,6,0xC0F),
    DN(___,0,0x000),
    DN(E_6,6,0xC0F),
    DN(___,0,0x000),
    DN(Gs5,6,0xC0F),
    DN(___,0,0x000),
    DN(E_6,6,0xC0F),
    DN(___,0,0x000),
    DN(Gs5,6,0xC0F),
    DN(___,0,0x000),
    DN(E_6,6,0xC0F),
    DN(___,0,0x000),
    DN(Gs5,6,0xC0F),
    DN(___,0,0x000),
    DN(E_6,6,0xC0F),
    DN(___,0,0x000),
    DN(A_5,6,0xC0F),
    DN(___,0,0x000),
    DN(E_6,6,0xC0F),
    DN(___,0,0x000),
    DN(A_5,6,0xC0F),
    DN(___,0,0x000),
    DN(E_6,6,0xC0F),
    DN(___,0,0x000),
    DN(A_5,6,0xC0F),
    DN(___,0,0x000),
    DN(E_6,6,0xC0F),
    DN(___,0,0x000),
    DN(A_5,6,0xC0F),
    DN(___,0,0x000),
    DN(E_6,6,0xC0F),
    DN(___,0,0x000),
    DN(Gs5,6,0xC0F),
    DN(___,0,0x000),
    DN(E_6,6,0xC0F),
    DN(___,0,0x000),
    DN(Gs5,6,0xC0F),
    DN(___,0,0x000),
    DN(E_6,6,0xC0F),
    DN(___,0,0x000),
    DN(___,0,0xE00),
    DN(___,0,0x000),
    DN(___,0,0x000),
    DN(___,0,0x000),
    DN(___,0,0x000),
    DN(___,0,0x000),
    DN(___,0,0x000),
    DN(___,0,0x000),
};
const unsigned char P29[] = {
    DN(C_5,3,0xC06),
    DN(___,0,0x000),
    DN(___,0,0x000),
    DN(___,0,0x000),
    DN(___,0,0x000),
    DN(___,0,0x000),
    DN(___,0,0x000),
    DN(___,0,0x000),
    DN(A_4,3,0xC06),
    DN(___,0,0x000),
    DN(___,0,0x000),
    DN(___,0,0x000),
    DN(___,0,0x000),
    DN(___,0,0x000),
    DN(___,0,0x000),
    DN(___,0,0x000),
    DN(B_4,3,0xC06),
    DN(___,0,0x000),
    DN(___,0,0x000),
    DN(___,0,0x000),
    DN(___,0,0x000),
    DN(___,0,0x000),
    DN(___,0,0x000),
    DN(___,0,0x000),
    DN(Gs4,3,0xC06),
    DN(___,0,0x000),
    DN(___,0,0x000),
    DN(___,0,0x000),
    DN(___,0,0x000),
    DN(___,0,0x000),
    DN(___,0,0x000),
    DN(___,0,0x000),
    DN(A_4,3,0xC06),
    DN(___,0,0x000),
    DN(___,0,0x000),
    DN(___,0,0x000),
    DN(C_5,3,0xC06),
    DN(___,0,0x000),
    DN(___,0,0x000),
    DN(___,0,0x000),
    DN(E_5,3,0xC06),
    DN(___,0,0x000),
    DN(___,0,0x000),
    DN(___,0,0x000),
    DN(___,0,0x000),
    DN(___,0,0x000),
    DN(___,0,0x000),
    DN(___,0,0x000),
    DN(D_5,3,0xC06),
    DN(___,0,0x000),
    DN(___,0,0x000),
    DN(___,0,0x000),
    DN(___,0,0x000),
    DN(___,0,0x000),
    DN(___,0,0x000),
    DN(___,0,0x000),
    DN(___,0,0xE00),
    DN(___,0,0x000),
    DN(___,0,0x000),
    DN(___,0,0x000),
    DN(___,0,0x000),
    DN(___,0,0x000),
    DN(___,0,0x000),
    DN(___,0,0xB08),
};
const unsigned char P30[] = {
    DN(E_5,3,0xC08),
    DN(___,0,0x000),
    DN(___,0,0x000),
    DN(___,0,0x000),
    DN(___,0,0x000),
    DN(___,0,0x000),
    DN(___,0,0x000),
    DN(___,0,0x000),
    DN(C_5,3,0xC08),
    DN(___,0,0x000),
    DN(___,0,0x000),
    DN(___,0,0x000),
    DN(___,0,0x000),
    DN(___,0,0x000),
    DN(___,0,0x000),
    DN(___,0,0x000),
    DN(D_5,3,0xC08),
    DN(___,0,0x000),
    DN(___,0,0x000),
    DN(___,0,0x000),
    DN(___,0,0x000),
    DN(___,0,0x000),
    DN(___,0,0x000),
    DN(___,0,0x000),
    DN(B_4,3,0xC08),
    DN(___,0,0x000),
    DN(___,0,0x000),
    DN(___,0,0x000),
    DN(___,0,0x000),
    DN(___,0,0x000),
    DN(___,0,0x000),
    DN(___,0,0x000),
    DN(C_5,3,0xC08),
    DN(___,0,0x000),
    DN(___,0,0x000),
    DN(___,0,0x000),
    DN(E_5,3,0xC08),
    DN(___,0,0x000),
    DN(___,0,0x000),
    DN(___,0,0x000),
    DN(A_5,3,0xC08),
    DN(___,0,0x000),
    DN(___,0,0x000),
    DN(___,0,0x000),
    DN(___,0,0x000),
    DN(___,0,0x000),
    DN(___,0,0x000),
    DN(___,0,0x000),
    DN(Gs5,3,0xC08),
    DN(___,0,0x000),
    DN(___,0,0x000),
    DN(___,0,0x000),
    DN(___,0,0x000),
    DN(___,0,0x000),
    DN(___,0,0x000),
    DN(___,0,0x000),
    DN(___,0,0xE00),
    DN(___,0,0x000),
    DN(___,0,0x000),
    DN(___,0,0x000),
    DN(___,0,0x000),
    DN(___,0,0x000),
    DN(___,0,0x000),
    DN(___,0,0x000),
};
const unsigned char P31[] = {
    DN(___,0,0xF06),
    DN(___,0,0xE00),
    DN(___,0,0x000),
    DN(___,0,0x000),
    DN(___,0,0x000),
    DN(___,0,0x000),
    DN(___,0,0x000),
    DN(___,0,0x000),
    DN(___,0,0x000),
    DN(___,0,0x000),
    DN(___,0,0x000),
    DN(___,0,0x000),
    DN(___,0,0x000),
    DN(___,0,0x000),
    DN(___,0,0x000),
    DN(___,0,0x000),
    DN(___,0,0x000),
    DN(___,0,0x000),
    DN(___,0,0x000),
    DN(___,0,0x000),
    DN(___,0,0x000),
    DN(___,0,0x000),
    DN(___,0,0x000),
    DN(___,0,0x000),
    DN(___,0,0x000),
    DN(___,0,0x000),
    DN(___,0,0x000),
    DN(___,0,0x000),
    DN(___,0,0x000),
    DN(___,0,0x000),
    DN(___,0,0x000),
    DN(___,0,0xD01),
    DN(___,0,0x000),
    DN(___,0,0x000),
    DN(___,0,0x000),
    DN(___,0,0x000),
    DN(___,0,0x000),
    DN(___,0,0x000),
    DN(___,0,0x000),
    DN(___,0,0x000),
    DN(___,0,0x000),
    DN(___,0,0x000),
    DN(___,0,0x000),
    DN(___,0,0x000),
    DN(___,0,0x000),
    DN(___,0,0x000),
    DN(___,0,0x000),
    DN(___,0,0x000),
    DN(___,0,0x000),
    DN(___,0,0x000),
    DN(___,0,0x000),
    DN(___,0,0x000),
    DN(___,0,0x000),
    DN(___,0,0x000),
    DN(___,0,0x000),
    DN(___,0,0x000),
    DN(___,0,0x000),
    DN(___,0,0x000),
    DN(___,0,0x000),
    DN(___,0,0x000),
    DN(___,0,0x000),
    DN(___,0,0x000),
    DN(___,0,0x000),
    DN(___,0,0x000),
};
const unsigned char P32[] = {
    DN(E_5,9,0xC08),
    DN(___,0,0x000),
    DN(E_5,9,0xC08),
    DN(E_5,9,0xC08),
    DN(B_4,9,0xC08),
    DN(___,0,0x000),
    DN(B_4,9,0xC08),
    DN(___,0,0x000),
    DN(E_5,9,0xC08),
    DN(___,0,0x000),
    DN(E_5,9,0xC08),
    DN(E_5,9,0xC08),
    DN(B_4,9,0xC08),
    DN(___,0,0x000),
    DN(B_4,9,0xC08),
    DN(___,0,0x000),
    DN(E_5,9,0xC04),
    DN(___,0,0x000),
    DN(E_5,9,0xC04),
    DN(E_5,9,0xC04),
    DN(B_4,9,0xC04),
    DN(___,0,0x000),
    DN(B_4,9,0xC04),
    DN(___,0,0x000),
    DN(E_5,9,0xC04),
    DN(___,0,0x000),
    DN(E_5,9,0xC04),
    DN(E_5,9,0xC04),
    DN(B_4,9,0xC04),
    DN(___,0,0x000),
    DN(B_4,9,0xC04),
    DN(___,0,0x000),
    DN(___,0,0x000),
    DN(___,0,0x000),
    DN(___,0,0x000),
    DN(___,0,0x000),
    DN(___,0,0x000),
    DN(___,0,0x000),
    DN(___,0,0x000),
    DN(___,0,0x000),
    DN(___,0,0x000),
    DN(___,0,0x000),
    DN(___,0,0x000),
    DN(___,0,0x000),
    DN(___,0,0x000),
    DN(___,0,0x000),
    DN(___,0,0x000),
    DN(___,0,0x000),
    DN(___,0,0x000),
    DN(___,0,0x000),
    DN(___,0,0x000),
    DN(___,0,0x000),
    DN(___,0,0x000),
    DN(___,0,0x000),
    DN(___,0,0x000),
    DN(___,0,0x000),
    DN(___,0,0x000),
    DN(___,0,0x000),
    DN(___,0,0x000),
    DN(___,0,0x000),
    DN(___,0,0x000),
    DN(___,0,0x000),
    DN(___,0,0x000),
    DN(___,0,0x000),
};
const unsigned char P33[] = {
    DN(E_5,13,0xC0F),
    DN(___,0,0xC04),
    DN(E_5,13,0xC0F),
    DN(E_5,13,0xC0F),
    DN(B_4,13,0xC0F),
    DN(___,0,0xC04),
    DN(B_4,13,0xC0F),
    DN(___,0,0xC04),
    DN(E_5,13,0xC0F),
    DN(___,0,0xC04),
    DN(E_5,13,0xC0F),
    DN(E_5,13,0xC0F),
    DN(B_4,13,0xC0F),
    DN(___,0,0xC04),
    DN(B_4,13,0xC0F),
    DN(___,0,0xC04),
    DN(E_5,13,0xC0F),
    DN(___,0,0xC04),
    DN(E_5,13,0xC0F),
    DN(E_5,13,0xC0F),
    DN(B_4,13,0xC0F),
    DN(___,0,0xC04),
    DN(B_4,13,0xC0F),
    DN(___,0,0xC04),
    DN(E_5,13,0xC0F),
    DN(___,0,0xC04),
    DN(E_5,13,0xC0F),
    DN(E_5,13,0xC0F),
    DN(B_4,13,0xC0F),
    DN(___,0,0xC04),
    DN(B_4,13,0xC0F),
    DN(___,0,0xC04),
    DN(E_5,13,0xC0F),
    DN(___,0,0xC04),
    DN(E_5,13,0xC0F),
    DN(E_5,13,0xC0F),
    DN(B_4,13,0xC0F),
    DN(___,0,0xC04),
    DN(B_4,13,0xC0F),
    DN(___,0,0xC04),
    DN(E_5,13,0xC0F),
    DN(___,0,0xC04),
    DN(E_5,13,0xC0F),
    DN(E_5,13,0xC0F),
    DN(B_4,13,0xC0F),
    DN(___,0,0xC04),
    DN(B_4,13,0xC0F),
    DN(___,0,0xC04),
    DN(E_5,13,0xC0F),
    DN(___,0,0xC04),
    DN(E_5,13,0xC0F),
    DN(E_5,13,0xC0F),
    DN(B_4,13,0xC0F),
    DN(___,0,0xC04),
    DN(B_4,13,0xC0F),
    DN(___,0,0xC04),
    DN(E_5,13,0xC0F),
    DN(___,0,0xC04),
    DN(E_5,13,0xC0F),
    DN(E_5,13,0xC0F),
    DN(B_4,13,0xC0F),
    DN(___,0,0xC04),
    DN(B_4,13,0xC0F),
    DN(___,0,0xC04),
};
const unsigned char P34[] = {
    DN(C_8,1,0xE01),
    DN(___,0,0x8FF),
    DN(C_8,1,0xE01),
    DN(C_8,1,0xE01),
    DN(C_8,1,0xE01),
    DN(___,0,0x000),
    DN(C_8,1,0xE01),
    DN(___,0,0x000),
    DN(C_8,1,0xE01),
    DN(___,0,0x000),
    DN(C_8,1,0xE01),
    DN(C_8,1,0xE01),
    DN(C_8,1,0xE01),
    DN(___,0,0x000),
    DN(C_8,1,0xE01),
    DN(___,0,0x000),
    DN(C_8,1,0xE01),
    DN(___,0,0x000),
    DN(C_8,1,0xE01),
    DN(C_8,1,0xE01),
    DN(C_8,1,0xE01),
    DN(___,0,0x000),
    DN(C_8,1,0xE01),
    DN(___,0,0x000),
    DN(C_8,1,0xE01),
    DN(___,0,0x000),
    DN(C_8,1,0xE01),
    DN(C_8,1,0xE01),
    DN(C_8,1,0xE01),
    DN(___,0,0x000),
    DN(C_8,1,0xE01),
    DN(___,0,0x000),
    DN(C_8,1,0xE01),
    DN(___,0,0x000),
    DN(C_8,1,0xE01),
    DN(C_8,1,0xE01),
    DN(C_8,1,0xE01),
    DN(___,0,0x000),
    DN(C_8,1,0xE01),
    DN(___,0,0x000),
    DN(C_8,1,0xE01),
    DN(___,0,0x000),
    DN(C_8,1,0xE01),
    DN(C_8,1,0xE01),
    DN(C_8,1,0xE01),
    DN(___,0,0x000),
    DN(C_8,1,0xE01),
    DN(___,0,0x000),
    DN(C_8,1,0xE01),
    DN(___,0,0x000),
    DN(C_8,1,0xE01),
    DN(C_8,1,0xE01),
    DN(C_8,1,0xE01),
    DN(___,0,0x000),
    DN(C_8,1,0xE01),
    DN(___,0,0x000),
    DN(C_8,1,0xE01),
    DN(___,0,0x000),
    DN(C_8,1,0xE01),
    DN(C_8,1,0xE01),
    DN(C_8,1,0xE01),
    DN(___,0,0x000),
    DN(C_8,1,0xE01),
    DN(___,0,0x000),
};
const unsigned char P35[] = {
    DN(B_4,10,0xC06),
    DN(___,0,0x000),
    DN(G_5,10,0xC06),
    DN(___,0,0x000),
    DN(G_5,10,0xC06),
    DN(___,0,0x000),
    DN(A_5,10,0xC06),
    DN(___,0,0x000),
    DN(G_5,10,0xC06),
    DN(___,0,0x000),
    DN(Fs5,10,0xC06),
    DN(G_5,10,0xC06),
    DN(A_5,10,0xC06),
    DN(___,0,0x000),
    DN(Fs5,10,0xC06),
    DN(___,0,0x000),
    DN(G_5,10,0xC06),
    DN(___,0,0x000),
    DN(Ds5,10,0xC06),
    DN(E_5,10,0xC06),
    DN(Fs5,10,0xC06),
    DN(___,0,0x000),
    DN(Ds5,10,0xC06),
    DN(___,0,0x000),
    DN(E_5,10,0xC06),
    DN(___,0,0x000),
    DN(As4,10,0xC06),
    DN(B_4,10,0xC06),
    DN(Ds5,10,0xC06),
    DN(___,0,0x000),
    DN(B_4,10,0xC06),
    DN(___,0,0x000),
    DN(B_4,10,0xC06),
    DN(___,0,0x000),
    DN(G_4,10,0xC06),
    DN(___,0,0x000),
    DN(A_4,10,0xC06),
    DN(___,0,0x000),
    DN(A_4,10,0xC06),
    DN(___,0,0x000),
    DN(B_4,10,0xC06),
    DN(___,0,0x000),
    DN(G_4,10,0xC06),
    DN(___,0,0x000),
    DN(A_4,10,0xC06),
    DN(___,0,0x000),
    DN(Ds5,10,0xC06),
    DN(___,0,0x000),
    DN(B_4,10,0xC06),
    DN(___,0,0x000),
    DN(G_5,10,0xC06),
    DN(___,0,0x000),
    DN(G_5,10,0xC06),
    DN(___,0,0x000),
    DN(A_5,10,0xC06),
    DN(___,0,0x000),
    DN(G_5,10,0xC06),
    DN(___,0,0x000),
    DN(Fs5,10,0xC06),
    DN(G_5,10,0xC06),
    DN(A_5,10,0xC06),
    DN(___,0,0x000),
    DN(Fs5,10,0xC06),
    DN(___,0,0x000),
};
const unsigned char P36[] = {
    DN(E_5,9,0xC08),
    DN(___,0,0x000),
    DN(B_5,9,0xC08),
    DN(___,0,0x000),
    DN(E_6,9,0xC08),
    DN(___,0,0x000),
    DN(Ds6,9,0xC08),
    DN(___,0,0x000),
    DN(E_6,9,0xC08),
    DN(___,0,0x000),
    DN(B_5,9,0xC08),
    DN(B_5,9,0xC08),
    DN(C_6,9,0xC08),
    DN(___,0,0x000),
    DN(A_5,9,0xC08),
    DN(___,0,0x000),
    DN(B_5,9,0xC08),
    DN(___,0,0x000),
    DN(G_5,9,0xC08),
    DN(G_5,9,0xC08),
    DN(A_5,9,0xC08),
    DN(___,0,0x000),
    DN(Fs5,9,0xC08),
    DN(___,0,0x000),
    DN(G_5,9,0xC08),
    DN(___,0,0x000),
    DN(E_5,9,0xC08),
    DN(E_5,9,0xC08),
    DN(Fs5,9,0xC08),
    DN(___,0,0x000),
    DN(Ds5,9,0xC08),
    DN(___,0,0x000),
    DN(E_5,9,0xC08),
    DN(___,0,0x000),
    DN(B_4,9,0xC08),
    DN(___,0,0x000),
    DN(C_5,9,0xC08),
    DN(___,0,0x000),
    DN(Ds5,9,0xC08),
    DN(___,0,0x000),
    DN(E_5,9,0xC08),
    DN(___,0,0x000),
    DN(B_4,9,0xC08),
    DN(___,0,0x000),
    DN(C_5,9,0xC08),
    DN(___,0,0x000),
    DN(Fs5,9,0xC08),
    DN(___,0,0x000),
    DN(E_5,9,0xC08),
    DN(___,0,0x000),
    DN(B_5,9,0xC08),
    DN(___,0,0x000),
    DN(E_6,9,0xC08),
    DN(___,0,0x000),
    DN(Ds6,9,0xC08),
    DN(___,0,0x000),
    DN(E_6,9,0xC08),
    DN(___,0,0x000),
    DN(B_5,9,0xC08),
    DN(B_5,9,0xC08),
    DN(C_6,9,0xC08),
    DN(___,0,0x000),
    DN(A_5,9,0xC08),
    DN(___,0,0x000),
};
const unsigned char P37[] = {
    DN(G_5,10,0xC06),
    DN(___,0,0x000),
    DN(Ds5,10,0xC06),
    DN(E_5,10,0xC06),
    DN(Fs5,10,0xC06),
    DN(___,0,0x000),
    DN(Ds5,10,0xC06),
    DN(___,0,0x000),
    DN(E_5,10,0xC06),
    DN(___,0,0x000),
    DN(As4,10,0xC06),
    DN(B_4,10,0xC06),
    DN(Ds5,10,0xC06),
    DN(___,0,0x000),
    DN(B_4,10,0xC06),
    DN(___,0,0x000),
    DN(B_4,10,0xC06),
    DN(___,0,0x000),
    DN(G_4,10,0xC06),
    DN(___,0,0x000),
    DN(A_4,10,0xC06),
    DN(___,0,0x000),
    DN(A_4,10,0xC06),
    DN(___,0,0x000),
    DN(B_4,10,0xC06),
    DN(___,0,0x000),
    DN(G_4,10,0xC06),
    DN(___,0,0x000),
    DN(A_4,10,0xC06),
    DN(___,0,0x000),
    DN(Ds5,10,0xC06),
    DN(___,0,0x000),
    DN(B_4,10,0xC06),
    DN(___,0,0x000),
    DN(___,0,0x000),
    DN(___,0,0x000),
    DN(___,0,0x000),
    DN(___,0,0x000),
    DN(___,0,0x000),
    DN(___,0,0x000),
    DN(___,0,0x000),
    DN(___,0,0x000),
    DN(___,0,0x000),
    DN(___,0,0x000),
    DN(B_4,10,0xC06),
    DN(___,0,0x000),
    DN(B_4,10,0xC06),
    DN(___,0,0x000),
    DN(B_4,10,0xC06),
    DN(___,0,0x000),
    DN(___,0,0x000),
    DN(___,0,0x000),
    DN(___,0,0x000),
    DN(___,0,0x000),
    DN(___,0,0x000),
    DN(___,0,0x000),
    DN(___,0,0x000),
    DN(___,0,0x000),
    DN(___,0,0x000),
    DN(___,0,0x000),
    DN(D_5,10,0xC06),
    DN(___,0,0x000),
    DN(___,0,0x000),
    DN(___,0,0x000),
};
const unsigned char P38[] = {
    DN(B_5,9,0xC08),
    DN(___,0,0x000),
    DN(G_5,9,0xC08),
    DN(G_5,9,0xC08),
    DN(A_5,9,0xC08),
    DN(___,0,0x000),
    DN(Fs5,9,0xC08),
    DN(___,0,0x000),
    DN(G_5,9,0xC08),
    DN(___,0,0x000),
    DN(E_5,9,0xC08),
    DN(E_5,9,0xC08),
    DN(Fs5,9,0xC08),
    DN(___,0,0x000),
    DN(Ds5,9,0xC08),
    DN(___,0,0x000),
    DN(E_5,9,0xC08),
    DN(___,0,0x000),
    DN(B_4,9,0xC08),
    DN(___,0,0x000),
    DN(C_5,9,0xC08),
    DN(___,0,0x000),
    DN(Ds5,9,0xC08),
    DN(___,0,0x000),
    DN(E_5,9,0xC08),
    DN(___,0,0x000),
    DN(B_4,9,0xC08),
    DN(___,0,0x000),
    DN(C_5,9,0xC08),
    DN(___,0,0x000),
    DN(Fs5,9,0xC08),
    DN(___,0,0x000),
    DN(E_5,9,0xC08),
    DN(___,0,0x000),
    DN(___,0,0x000),
    DN(___,0,0x000),
    DN(___,0,0x000),
    DN(___,0,0x000),
    DN(___,0,0x000),
    DN(___,0,0x000),
    DN(___,0,0x000),
    DN(___,0,0x000),
    DN(___,0,0x000),
    DN(___,0,0x000),
    DN(Fs5,9,0xC08),
    DN(___,0,0x000),
    DN(Ds5,9,0xC08),
    DN(___,0,0x000),
    DN(E_5,9,0xC08),
    DN(___,0,0x000),
    DN(___,0,0x000),
    DN(___,0,0x000),
    DN(___,0,0x000),
    DN(___,0,0x000),
    DN(___,0,0x000),
    DN(___,0,0x000),
    DN(___,0,0x000),
    DN(___,0,0x000),
    DN(___,0,0x000),
    DN(___,0,0x000),
    DN(Fs5,9,0xC08),
    DN(___,0,0x000),
    DN(___,0,0x000),
    DN(___,0,0x000),
};
const unsigned char P39[] = {
    DN(E_5,13,0xC0F),
    DN(___,0,0xC04),
    DN(E_5,13,0xC0F),
    DN(E_5,13,0xC0F),
    DN(B_4,13,0xC0F),
    DN(___,0,0xC04),
    DN(B_4,13,0xC0F),
    DN(___,0,0xC04),
    DN(E_5,13,0xC0F),
    DN(___,0,0xC04),
    DN(E_5,13,0xC0F),
    DN(E_5,13,0xC0F),
    DN(B_4,13,0xC0F),
    DN(___,0,0xC04),
    DN(B_4,13,0xC0F),
    DN(___,0,0xC04),
    DN(E_5,13,0xC0F),
    DN(___,0,0xC04),
    DN(E_5,13,0xC0F),
    DN(E_5,13,0xC0F),
    DN(B_4,13,0xC0F),
    DN(___,0,0xC04),
    DN(B_4,13,0xC0F),
    DN(___,0,0xC04),
    DN(E_5,13,0xC0F),
    DN(___,0,0xC04),
    DN(E_5,13,0xC0F),
    DN(E_5,13,0xC0F),
    DN(B_4,13,0xC0F),
    DN(___,0,0xC04),
    DN(B_4,13,0xC0F),
    DN(___,0,0xC04),
    DN(E_5,13,0xC0F),
    DN(___,0,0xC04),
    DN(E_5,13,0xC0F),
    DN(E_5,13,0xC0F),
    DN(C_5,13,0xC0F),
    DN(___,0,0xC04),
    DN(A_4,13,0xC0F),
    DN(___,0,0xC04),
    DN(E_5,13,0xC0F),
    DN(___,0,0xC04),
    DN(E_5,13,0xC0F),
    DN(E_5,13,0xC0F),
    DN(Ds5,13,0xC0F),
    DN(___,0,0xC04),
    DN(B_4,13,0xC0F),
    DN(___,0,0xC04),
    DN(E_5,13,0xC0F),
    DN(___,0,0xC04),
    DN(E_5,13,0xC0F),
    DN(E_5,13,0xC0F),
    DN(C_5,13,0xC0F),
    DN(___,0,0xC04),
    DN(A_4,13,0xC0F),
    DN(___,0,0xC04),
    DN(E_5,13,0xC0F),
    DN(___,0,0xC04),
    DN(E_5,13,0xC0F),
    DN(E_5,13,0xC0F),
    DN(A_4,13,0xC0F),
    DN(___,0,0xC04),
    DN(D_4,13,0xC0F),
    DN(___,0,0xC04),
};
const unsigned char P40[] = {
    DN(___,0,0x000),
    DN(___,0,0x000),
    DN(___,0,0x000),
    DN(___,0,0x000),
    DN(___,0,0x000),
    DN(___,0,0x000),
    DN(___,0,0x000),
    DN(___,0,0x000),
    DN(___,0,0x000),
    DN(___,0,0x000),
    DN(___,0,0x000),
    DN(___,0,0x000),
    DN(___,0,0x000),
    DN(___,0,0x000),
    DN(___,0,0x000),
    DN(___,0,0x000),
    DN(___,0,0x000),
    DN(___,0,0x000),
    DN(___,0,0x000),
    DN(___,0,0x000),
    DN(___,0,0x000),
    DN(___,0,0x000),
    DN(___,0,0x000),
    DN(___,0,0x000),
    DN(___,0,0x000),
    DN(___,0,0x000),
    DN(___,0,0x000),
    DN(___,0,0x000),
    DN(Fs5,10,0xC06),
    DN(___,0,0x000),
    DN(___,0,0x000),
    DN(___,0,0x000),
    DN(G_5,10,0xC06),
    DN(___,0,0x000),
    DN(G_5,10,0xC06),
    DN(G_5,10,0xC06),
    DN(A_5,10,0xC06),
    DN(___,0,0x000),
    DN(Fs5,10,0xC06),
    DN(___,0,0x000),
    DN(G_5,10,0xC06),
    DN(___,0,0x000),
    DN(G_5,10,0xC06),
    DN(G_5,10,0xC06),
    DN(A_5,10,0xC06),
    DN(___,0,0x000),
    DN(Fs5,10,0xC06),
    DN(___,0,0x000),
    DN(D_5,10,0xC06),
    DN(___,0,0x000),
    DN(___,0,0x000),
    DN(___,0,0x000),
    DN(___,0,0x000),
    DN(___,0,0x000),
    DN(___,0,0x000),
    DN(___,0,0x000),
    DN(___,0,0x000),
    DN(___,0,0x000),
    DN(___,0,0x000),
    DN(___,0,0x000),
    DN(E_5,10,0xC06),
    DN(___,0,0x000),
    DN(___,0,0x000),
    DN(___,0,0x000),
};
const unsigned char P41[] = {
    DN(G_5,9,0xC08),
    DN(___,0,0x000),
    DN(G_5,9,0xC08),
    DN(G_5,9,0xC08),
    DN(A_5,9,0xC08),
    DN(___,0,0x000),
    DN(Fs5,9,0xC08),
    DN(___,0,0x000),
    DN(G_5,9,0xC08),
    DN(___,0,0x000),
    DN(G_5,9,0xC08),
    DN(G_5,9,0xC08),
    DN(A_5,9,0xC08),
    DN(___,0,0x000),
    DN(Fs5,9,0xC08),
    DN(___,0,0x000),
    DN(G_5,9,0xC08),
    DN(___,0,0x000),
    DN(___,0,0x000),
    DN(___,0,0x000),
    DN(___,0,0x000),
    DN(___,0,0x000),
    DN(___,0,0x000),
    DN(___,0,0x000),
    DN(___,0,0x000),
    DN(___,0,0x000),
    DN(___,0,0x000),
    DN(___,0,0x000),
    DN(A_5,9,0xC08),
    DN(___,0,0x000),
    DN(___,0,0x000),
    DN(___,0,0x000),
    DN(B_5,9,0xC08),
    DN(___,0,0x000),
    DN(B_5,9,0xC08),
    DN(B_5,9,0xC08),
    DN(C_6,9,0xC08),
    DN(___,0,0x000),
    DN(A_5,9,0xC08),
    DN(___,0,0x000),
    DN(B_5,9,0xC08),
    DN(___,0,0x000),
    DN(B_5,9,0xC08),
    DN(B_5,9,0xC08),
    DN(C_6,9,0xC08),
    DN(___,0,0x000),
    DN(A_5,9,0xC08),
    DN(___,0,0x000),
    DN(B_5,9,0xC08),
    DN(___,0,0x000),
    DN(___,0,0x000),
    DN(___,0,0x000),
    DN(___,0,0x000),
    DN(___,0,0x000),
    DN(___,0,0x000),
    DN(___,0,0x000),
    DN(___,0,0x000),
    DN(___,0,0x000),
    DN(___,0,0x000),
    DN(___,0,0x000),
    DN(Cs6,9,0xC08),
    DN(___,0,0x000),
    DN(___,0,0x000),
    DN(___,0,0x000),
};
const unsigned char P42[] = {
    DN(G_4,13,0xC0F),
    DN(___,0,0xC04),
    DN(G_5,13,0xC0F),
    DN(G_4,13,0xC0F),
    DN(D_4,13,0xC0F),
    DN(___,0,0xC04),
    DN(D_5,13,0xC0F),
    DN(___,0,0xC04),
    DN(G_4,13,0xC0F),
    DN(___,0,0xC04),
    DN(G_5,13,0xC0F),
    DN(G_4,13,0xC0F),
    DN(D_4,13,0xC0F),
    DN(___,0,0xC04),
    DN(D_5,13,0xC0F),
    DN(___,0,0xC04),
    DN(G_4,13,0xC0F),
    DN(___,0,0xC04),
    DN(G_5,13,0xC0F),
    DN(G_4,13,0xC0F),
    DN(D_4,13,0xC0F),
    DN(___,0,0xC04),
    DN(D_5,13,0xC0F),
    DN(___,0,0xC04),
    DN(G_4,13,0xC0F),
    DN(___,0,0xC04),
    DN(G_5,13,0xC0F),
    DN(G_4,13,0xC0F),
    DN(D_4,13,0xC0F),
    DN(___,0,0xC04),
    DN(D_5,13,0xC0F),
    DN(___,0,0xC04),
    DN(G_4,13,0xC0F),
    DN(___,0,0xC04),
    DN(G_5,13,0xC0F),
    DN(G_4,13,0xC0F),
    DN(D_4,13,0xC0F),
    DN(___,0,0xC04),
    DN(D_5,13,0xC0F),
    DN(___,0,0xC04),
    DN(G_4,13,0xC0F),
    DN(___,0,0xC04),
    DN(G_5,13,0xC0F),
    DN(G_4,13,0xC0F),
    DN(D_4,13,0xC0F),
    DN(___,0,0xC04),
    DN(D_5,13,0xC0F),
    DN(___,0,0xC04),
    DN(G_4,13,0xC0F),
    DN(___,0,0xC04),
    DN(G_5,13,0xC0F),
    DN(G_4,13,0xC0F),
    DN(D_4,13,0xC0F),
    DN(___,0,0xC04),
    DN(D_5,13,0xC0F),
    DN(___,0,0xC04),
    DN(G_4,13,0xC0F),
    DN(___,0,0xC04),
    DN(G_5,13,0xC0F),
    DN(G_4,13,0xC0F),
    DN(A_4,13,0xC0F),
    DN(___,0,0xC04),
    DN(A_5,13,0xC0F),
    DN(___,0,0xC04),
};
const unsigned char P43[] = {
    DN(Fs5,10,0xC06),
    DN(___,0,0x000),
    DN(G_5,10,0xC06),
    DN(A_5,10,0xC06),
    DN(Fs5,10,0xC06),
    DN(___,0,0x000),
    DN(A_5,10,0xC06),
    DN(___,0,0x000),
    DN(B_5,10,0xC06),
    DN(___,0,0x000),
    DN(B_5,10,0xC06),
    DN(___,0,0x000),
    DN(B_5,10,0xC06),
    DN(___,0,0x000),
    DN(B_5,10,0xC06),
    DN(___,0,0x000),
    DN(Fs5,10,0xC06),
    DN(___,0,0x000),
    DN(G_5,10,0xC06),
    DN(A_5,10,0xC06),
    DN(Fs5,10,0xC06),
    DN(___,0,0x000),
    DN(A_5,10,0xC06),
    DN(___,0,0x000),
    DN(As5,10,0xC06),
    DN(___,0,0x000),
    DN(As5,10,0xC06),
    DN(___,0,0x000),
    DN(As5,10,0xC06),
    DN(___,0,0x000),
    DN(As5,10,0xC06),
    DN(___,0,0x000),
    DN(Fs5,10,0xC06),
    DN(___,0,0x000),
    DN(G_5,10,0xC06),
    DN(A_5,10,0xC06),
    DN(Fs5,10,0xC06),
    DN(___,0,0x000),
    DN(A_5,10,0xC06),
    DN(___,0,0x000),
    DN(E_5,10,0xC06),
    DN(___,0,0x000),
    DN(Fs5,10,0xC06),
    DN(G_5,10,0xC06),
    DN(E_5,10,0xC06),
    DN(___,0,0x000),
    DN(G_5,10,0xC06),
    DN(___,0,0x000),
    DN(E_5,10,0xC06),
    DN(___,0,0x000),
    DN(Fs5,10,0xC06),
    DN(G_5,10,0xC06),
    DN(Fs5,10,0xC06),
    DN(___,0,0x000),
    DN(Fs5,10,0xC06),
    DN(___,0,0x000),
    DN(A_4,10,0xC06),
    DN(___,0,0x000),
    DN(E_5,10,0xC06),
    DN(___,0,0x000),
    DN(Fs5,10,0xC06),
    DN(___,0,0x000),
    DN(Fs4,10,0xC06),
    DN(___,0,0x000),
};
const unsigned char P44[] = {
    DN(D_6,9,0xC08),
    DN(___,0,0x000),
    DN(D_6,9,0xC08),
    DN(D_6,9,0xC08),
    DN(D_6,9,0xC08),
    DN(___,0,0x000),
    DN(D_6,9,0xC08),
    DN(___,0,0x000),
    DN(E_6,9,0xC08),
    DN(___,0,0x000),
    DN(D_6,9,0xC08),
    DN(___,0,0x000),
    DN(D_6,9,0xC08),
    DN(___,0,0x000),
    DN(Cs6,9,0xC08),
    DN(___,0,0x000),
    DN(D_6,9,0xC08),
    DN(___,0,0x000),
    DN(D_6,9,0xC08),
    DN(D_6,9,0xC08),
    DN(D_6,9,0xC08),
    DN(___,0,0x000),
    DN(D_6,9,0xC08),
    DN(___,0,0x000),
    DN(E_6,9,0xC08),
    DN(___,0,0x000),
    DN(D_6,9,0xC08),
    DN(___,0,0x000),
    DN(D_6,9,0xC08),
    DN(___,0,0x000),
    DN(Cs6,9,0xC08),
    DN(___,0,0x000),
    DN(D_6,9,0xC08),
    DN(___,0,0x000),
    DN(D_6,9,0xC08),
    DN(D_6,9,0xC08),
    DN(D_6,9,0xC08),
    DN(___,0,0x000),
    DN(D_6,9,0xC08),
    DN(___,0,0x000),
    DN(Cs6,9,0xC08),
    DN(___,0,0x000),
    DN(Cs6,9,0xC08),
    DN(Cs6,9,0xC08),
    DN(Cs6,9,0xC08),
    DN(___,0,0x000),
    DN(Cs6,9,0xC08),
    DN(___,0,0x000),
    DN(C_6,9,0xC08),
    DN(___,0,0x000),
    DN(C_6,9,0xC08),
    DN(C_6,9,0xC08),
    DN(C_6,9,0xC08),
    DN(___,0,0x000),
    DN(A_5,9,0xC08),
    DN(___,0,0x000),
    DN(Fs5,9,0xC08),
    DN(___,0,0x000),
    DN(G_5,9,0xC08),
    DN(___,0,0x000),
    DN(A_5,9,0xC08),
    DN(___,0,0x000),
    DN(D_5,9,0xC08),
    DN(___,0,0x000),
};
const unsigned char P45[] = {
    DN(D_4,13,0xC0F),
    DN(___,0,0xC04),
    DN(D_5,13,0xC0F),
    DN(D_4,13,0xC0F),
    DN(D_4,13,0xC0F),
    DN(___,0,0xC04),
    DN(D_5,13,0xC0F),
    DN(___,0,0xC04),
    DN(G_4,13,0xC0F),
    DN(___,0,0xC04),
    DN(G_5,13,0xC0F),
    DN(G_4,13,0xC0F),
    DN(G_4,13,0xC0F),
    DN(___,0,0xC04),
    DN(G_5,13,0xC0F),
    DN(___,0,0xC04),
    DN(D_4,13,0xC0F),
    DN(___,0,0xC04),
    DN(D_5,13,0xC0F),
    DN(D_4,13,0xC0F),
    DN(D_4,13,0xC0F),
    DN(___,0,0xC04),
    DN(D_5,13,0xC0F),
    DN(___,0,0xC04),
    DN(G_4,13,0xC0F),
    DN(___,0,0xC04),
    DN(G_5,13,0xC0F),
    DN(G_4,13,0xC0F),
    DN(G_4,13,0xC0F),
    DN(___,0,0xC04),
    DN(G_5,13,0xC0F),
    DN(___,0,0xC04),
    DN(D_4,13,0xC0F),
    DN(___,0,0xC04),
    DN(D_5,13,0xC0F),
    DN(D_4,13,0xC0F),
    DN(D_4,13,0xC0F),
    DN(___,0,0xC04),
    DN(D_5,13,0xC0F),
    DN(___,0,0xC04),
    DN(D_4,13,0xC0F),
    DN(___,0,0xC04),
    DN(D_5,13,0xC0F),
    DN(D_4,13,0xC0F),
    DN(D_4,13,0xC0F),
    DN(___,0,0xC04),
    DN(D_5,13,0xC0F),
    DN(___,0,0xC04),
    DN(D_4,13,0xC0F),
    DN(___,0,0xC04),
    DN(D_5,13,0xC0F),
    DN(D_4,13,0xC0F),
    DN(D_4,13,0xC0F),
    DN(___,0,0xC04),
    DN(D_5,13,0xC0F),
    DN(___,0,0xC04),
    DN(D_4,13,0xC0F),
    DN(___,0,0xC04),
    DN(D_5,13,0xC0F),
    DN(D_4,13,0xC0F),
    DN(D_4,13,0xC0F),
    DN(___,0,0xC04),
    DN(D_5,13,0xC0F),
    DN(___,0,0xC04),
};
const unsigned char P46[] = {
    DN(B_4,10,0xC06),
    DN(___,0,0x000),
    DN(B_4,10,0xC06),
    DN(B_4,10,0xC06),
    DN(B_4,10,0xC06),
    DN(___,0,0x000),
    DN(B_4,10,0xC06),
    DN(___,0,0x000),
    DN(___,0,0x000),
    DN(___,0,0x000),
    DN(B_4,10,0xC06),
    DN(Cs5,10,0xC06),
    DN(B_4,10,0xC06),
    DN(___,0,0x000),
    DN(G_4,10,0xC06),
    DN(___,0,0x000),
    DN(As4,10,0xC06),
    DN(___,0,0x000),
    DN(As4,10,0xC06),
    DN(As4,10,0xC06),
    DN(As4,10,0xC06),
    DN(___,0,0x000),
    DN(As4,10,0xC06),
    DN(___,0,0x000),
    DN(___,0,0x000),
    DN(___,0,0x000),
    DN(As4,10,0xC06),
    DN(C_5,10,0xC06),
    DN(As4,10,0xC06),
    DN(___,0,0x000),
    DN(G_4,10,0xC06),
    DN(___,0,0x000),
    DN(Fs4,10,0xC06),
    DN(___,0,0x000),
    DN(___,0,0x000),
    DN(___,0,0x000),
    DN(___,0,0x000),
    DN(___,0,0x000),
    DN(___,0,0x000),
    DN(___,0,0x000),
    DN(___,0,0x000),
    DN(___,0,0x000),
    DN(___,0,0x000),
    DN(___,0,0x000),
    DN(___,0,0x000),
    DN(___,0,0x000),
    DN(___,0,0x000),
    DN(___,0,0x000),
    DN(___,0,0x000),
    DN(___,0,0x000),
    DN(___,0,0x000),
    DN(___,0,0x000),
    DN(___,0,0x000),
    DN(___,0,0x000),
    DN(___,0,0x000),
    DN(___,0,0x000),
    DN(___,0,0x000),
    DN(___,0,0x000),
    DN(___,0,0x000),
    DN(___,0,0x000),
    DN(A_4,10,0xC06),
    DN(___,0,0x000),
    DN(___,0,0x000),
    DN(___,0,0xB0E),
};
const unsigned char P47[] = {
    DN(A_5,9,0xC08),
    DN(___,0,0x000),
    DN(G_5,9,0xC08),
    DN(G_5,9,0xC08),
    DN(D_5,9,0xC08),
    DN(___,0,0x000),
    DN(G_5,9,0xC08),
    DN(___,0,0x000),
    DN(___,0,0x000),
    DN(___,0,0x000),
    DN(D_5,9,0xC08),
    DN(E_5,9,0xC08),
    DN(D_5,9,0xC08),
    DN(___,0,0x000),
    DN(B_4,9,0xC08),
    DN(___,0,0x000),
    DN(A_5,9,0xC08),
    DN(___,0,0x000),
    DN(G_5,9,0xC08),
    DN(G_5,9,0xC08),
    DN(D_5,9,0xC08),
    DN(___,0,0x000),
    DN(G_5,9,0xC08),
    DN(___,0,0x000),
    DN(___,0,0x000),
    DN(___,0,0x000),
    DN(D_5,9,0xC08),
    DN(E_5,9,0xC08),
    DN(D_5,9,0xC08),
    DN(___,0,0x000),
    DN(As4,9,0xC08),
    DN(___,0,0x000),
    DN(D_5,9,0xC08),
    DN(___,0,0x000),
    DN(___,0,0x000),
    DN(___,0,0x000),
    DN(___,0,0x000),
    DN(___,0,0x000),
    DN(___,0,0x000),
    DN(___,0,0x000),
    DN(___,0,0x000),
    DN(___,0,0x000),
    DN(___,0,0x000),
    DN(___,0,0x000),
    DN(___,0,0x000),
    DN(___,0,0x000),
    DN(___,0,0x000),
    DN(___,0,0x000),
    DN(___,0,0x000),
    DN(___,0,0x000),
    DN(___,0,0x000),
    DN(___,0,0x000),
    DN(___,0,0x000),
    DN(___,0,0x000),
    DN(___,0,0x000),
    DN(___,0,0x000),
    DN(___,0,0x000),
    DN(___,0,0x000),
    DN(___,0,0x000),
    DN(___,0,0x000),
    DN(Ds5,9,0xC08),
    DN(___,0,0x000),
    DN(___,0,0x000),
    DN(___,0,0x000),
};
const unsigned char P48[] = {
    DN(E_4,13,0xC0F),
    DN(___,0,0xC04),
    DN(E_5,13,0xC0F),
    DN(E_4,13,0xC0F),
    DN(E_4,13,0xC0F),
    DN(___,0,0xC04),
    DN(E_5,13,0xC0F),
    DN(___,0,0xC04),
    DN(E_4,13,0xC0F),
    DN(___,0,0xC04),
    DN(E_5,13,0xC0F),
    DN(E_4,13,0xC0F),
    DN(E_4,13,0xC0F),
    DN(___,0,0xC04),
    DN(E_5,13,0xC0F),
    DN(___,0,0xC04),
    DN(E_4,13,0xC0F),
    DN(___,0,0xC04),
    DN(E_5,13,0xC0F),
    DN(E_4,13,0xC0F),
    DN(E_4,13,0xC0F),
    DN(___,0,0xC04),
    DN(E_5,13,0xC0F),
    DN(___,0,0xC04),
    DN(E_4,13,0xC0F),
    DN(___,0,0xC04),
    DN(E_5,13,0xC0F),
    DN(E_4,13,0xC0F),
    DN(E_4,13,0xC0F),
    DN(___,0,0xC04),
    DN(E_5,13,0xC0F),
    DN(___,0,0xC04),
    DN(D_4,13,0xC0F),
    DN(___,0,0xC04),
    DN(D_5,13,0xC0F),
    DN(D_4,13,0xC0F),
    DN(D_4,13,0xC0F),
    DN(___,0,0xC04),
    DN(D_5,13,0xC0F),
    DN(___,0,0xC04),
    DN(D_4,13,0xC0F),
    DN(___,0,0xC04),
    DN(D_5,13,0xC0F),
    DN(D_4,13,0xC0F),
    DN(D_4,13,0xC0F),
    DN(___,0,0xC04),
    DN(D_5,13,0xC0F),
    DN(___,0,0xC04),
    DN(D_4,13,0xC0F),
    DN(___,0,0xC04),
    DN(D_5,13,0xC0F),
    DN(D_4,13,0xC0F),
    DN(D_4,13,0xC0F),
    DN(___,0,0xC04),
    DN(D_5,13,0xC0F),
    DN(___,0,0xC04),
    DN(D_4,13,0xC0F),
    DN(___,0,0xC04),
    DN(D_5,13,0xC0F),
    DN(D_4,13,0xC0F),
    DN(D_3,13,0xC0F),
    DN(___,0,0xC04),
    DN(Fs5,13,0xC0F),
    DN(___,0,0xC04),
};
const unsigned char P49[] = {
    DN(Fs4,6,0xC06),
    DN(___,0,0x000),
    DN(Fs5,6,0xC06),
    DN(___,0,0x000),
    DN(F_5,6,0xC06),
    DN(___,0,0x000),
    DN(Fs4,6,0xC06),
    DN(___,0,0x000),
    DN(A_4,6,0xC06),
    DN(___,0,0x000),
    DN(Cs5,6,0xC06),
    DN(___,0,0x000),
    DN(Fs5,6,0xC06),
    DN(___,0,0x000),
    DN(D_5,6,0xC06),
    DN(___,0,0x000),
    DN(Cs5,6,0xC06),
    DN(___,0,0x000),
    DN(Fs5,6,0xC06),
    DN(___,0,0x000),
    DN(A_4,6,0xC06),
    DN(___,0,0x000),
    DN(Cs5,6,0xC06),
    DN(___,0,0x000),
    DN(Fs4,6,0xC06),
    DN(___,0,0x000),
    DN(Fs5,6,0xC06),
    DN(___,0,0x000),
    DN(B_4,6,0xC06),
    DN(___,0,0x000),
    DN(E_4,6,0xC06),
    DN(___,0,0x000),
    DN(E_5,6,0xC06),
    DN(___,0,0x000),
    DN(A_4,6,0xC06),
    DN(___,0,0x000),
    DN(D_4,6,0xC06),
    DN(___,0,0x000),
    DN(D_5,6,0xC06),
    DN(___,0,0x000),
    DN(B_4,6,0xC06),
    DN(___,0,0x000),
    DN(Cs5,6,0xC06),
    DN(D_5,6,0xC06),
    DN(Cs5,6,0xC06),
    DN(B_4,6,0xC06),
    DN(A_4,6,0xC06),
    DN(Gs4,6,0xC06),
    DN(___,0,0x000),
    DN(___,0,0x000),
    DN(___,0,0x000),
    DN(___,0,0x000),
    DN(___,0,0x000),
    DN(___,0,0x000),
    DN(___,0,0x000),
    DN(___,0,0x000),
    DN(___,0,0x000),
    DN(___,0,0x000),
    DN(___,0,0x000),
    DN(___,0,0x000),
    DN(___,0,0x000),
    DN(___,0,0x000),
    DN(___,0,0x000),
    DN(___,0,0x000),
};
const unsigned char P50[] = {
    DN(A_5,8,0xC08),
    DN(Cs6,8,0xC08),
    DN(Fs6,8,0xC08),
    DN(Cs6,8,0xC08),
    DN(Gs5,8,0xC08),
    DN(Cs6,8,0xC08),
    DN(A_5,8,0xC08),
    DN(Cs6,8,0xC08),
    DN(Fs5,8,0xC08),
    DN(Cs6,8,0xC08),
    DN(F_5,8,0xC08),
    DN(Cs6,8,0xC08),
    DN(A_5,8,0xC08),
    DN(Cs6,8,0xC08),
    DN(Fs6,8,0xC08),
    DN(Cs6,8,0xC08),
    DN(Gs5,8,0xC08),
    DN(Cs6,8,0xC08),
    DN(A_5,8,0xC08),
    DN(Cs6,8,0xC08),
    DN(Fs5,8,0xC08),
    DN(Cs6,8,0xC08),
    DN(F_5,8,0xC08),
    DN(Cs6,8,0xC08),
    DN(A_5,8,0xC08),
    DN(Cs6,8,0xC08),
    DN(A_5,6,0xC08),
    DN(Fs5,6,0xC08),
    DN(D_6,6,0xC08),
    DN(B_5,6,0xC08),
    DN(Gs5,6,0xC08),
    DN(B_5,6,0xC08),
    DN(Gs5,6,0xC08),
    DN(E_5,6,0xC08),
    DN(Cs6,6,0xC08),
    DN(A_5,6,0xC08),
    DN(Fs5,8,0xC08),
    DN(Cs6,8,0xC08),
    DN(B_5,8,0xC08),
    DN(A_5,8,0xC08),
    DN(Gs5,8,0xC08),
    DN(Fs5,8,0xC08),
    DN(F_5,8,0xC08),
    DN(Cs5,8,0xC08),
    DN(F_5,8,0xC08),
    DN(Gs5,8,0xC08),
    DN(Cs6,8,0xC08),
    DN(B_5,8,0xC08),
    DN(___,0,0x000),
    DN(___,0,0x000),
    DN(___,0,0x000),
    DN(___,0,0x000),
    DN(___,0,0x000),
    DN(___,0,0x000),
    DN(___,0,0x000),
    DN(___,0,0x000),
    DN(___,0,0x000),
    DN(___,0,0x000),
    DN(___,0,0x000),
    DN(___,0,0x000),
    DN(___,0,0x000),
    DN(___,0,0x000),
    DN(___,0,0x000),
    DN(___,0,0x000),
};
const unsigned char P51[] = {
    DN(___,0,0xF0C),
    DN(___,0,0xE00),
    DN(___,0,0x000),
    DN(___,0,0x000),
    DN(___,0,0x000),
    DN(___,0,0x000),
    DN(___,0,0x000),
    DN(___,0,0x000),
    DN(___,0,0x000),
    DN(___,0,0x000),
    DN(___,0,0x000),
    DN(___,0,0x000),
    DN(___,0,0x000),
    DN(___,0,0x000),
    DN(___,0,0x000),
    DN(___,0,0x000),
    DN(___,0,0x000),
    DN(___,0,0x000),
    DN(___,0,0x000),
    DN(___,0,0x000),
    DN(___,0,0x000),
    DN(___,0,0x000),
    DN(___,0,0x000),
    DN(___,0,0x000),
    DN(___,0,0x000),
    DN(___,0,0x000),
    DN(___,0,0x000),
    DN(___,0,0x000),
    DN(___,0,0x000),
    DN(___,0,0x000),
    DN(___,0,0x000),
    DN(___,0,0x000),
    DN(___,0,0x000),
    DN(___,0,0x000),
    DN(___,0,0x000),
    DN(___,0,0x000),
    DN(___,0,0x000),
    DN(___,0,0x000),
    DN(___,0,0x000),
    DN(___,0,0x000),
    DN(___,0,0x000),
    DN(___,0,0x000),
    DN(___,0,0x000),
    DN(___,0,0x000),
    DN(___,0,0x000),
    DN(___,0,0x000),
    DN(___,0,0x000),
    DN(___,0,0xD01),
    DN(___,0,0x000),
    DN(___,0,0x000),
    DN(___,0,0x000),
    DN(___,0,0x000),
    DN(___,0,0x000),
    DN(___,0,0x000),
    DN(___,0,0x000),
    DN(___,0,0x000),
    DN(___,0,0x000),
    DN(___,0,0x000),
    DN(___,0,0x000),
    DN(___,0,0x000),
    DN(___,0,0x000),
    DN(___,0,0x000),
    DN(___,0,0x000),
    DN(___,0,0x000),
};
const unsigned char P52[] = {
    DN(Fs4,6,0xC06),
    DN(___,0,0x000),
    DN(Fs5,6,0xC06),
    DN(___,0,0x000),
    DN(F_5,6,0xC06),
    DN(___,0,0x000),
    DN(Fs4,6,0xC06),
    DN(___,0,0x000),
    DN(A_4,6,0xC06),
    DN(___,0,0x000),
    DN(Cs5,6,0xC06),
    DN(___,0,0x000),
    DN(Fs5,6,0xC06),
    DN(___,0,0x000),
    DN(D_5,6,0xC06),
    DN(___,0,0x000),
    DN(Cs5,6,0xC06),
    DN(___,0,0x000),
    DN(Fs5,6,0xC06),
    DN(___,0,0x000),
    DN(A_4,6,0xC06),
    DN(___,0,0x000),
    DN(Cs5,6,0xC06),
    DN(___,0,0x000),
    DN(Fs4,6,0xC06),
    DN(___,0,0x000),
    DN(Fs5,6,0xC06),
    DN(___,0,0x000),
    DN(B_4,6,0xC06),
    DN(___,0,0x000),
    DN(E_4,6,0xC06),
    DN(___,0,0x000),
    DN(E_5,6,0xC06),
    DN(___,0,0x000),
    DN(Gs4,6,0xC06),
    DN(___,0,0x000),
    DN(A_4,6,0xC06),
    DN(___,0,0x000),
    DN(Cs5,6,0xC06),
    DN(___,0,0x000),
    DN(Cs5,6,0xC06),
    DN(___,0,0x000),
    DN(A_4,6,0xC06),
    DN(Cs5,6,0xC06),
    DN(E_5,6,0xC06),
    DN(Cs5,6,0xC06),
    DN(A_4,6,0xC06),
    DN(Cs5,6,0xC06),
    DN(___,0,0x000),
    DN(___,0,0x000),
    DN(___,0,0x000),
    DN(___,0,0x000),
    DN(___,0,0x000),
    DN(___,0,0x000),
    DN(___,0,0x000),
    DN(___,0,0x000),
    DN(___,0,0x000),
    DN(___,0,0x000),
    DN(___,0,0x000),
    DN(___,0,0x000),
    DN(___,0,0x000),
    DN(___,0,0x000),
    DN(___,0,0x000),
    DN(___,0,0x000),
};
const unsigned char P53[] = {
    DN(A_5,8,0xC08),
    DN(Cs6,8,0xC08),
    DN(Fs6,8,0xC08),
    DN(Cs6,8,0xC08),
    DN(Gs5,8,0xC08),
    DN(Cs6,8,0xC08),
    DN(A_5,8,0xC08),
    DN(Cs6,8,0xC08),
    DN(Fs5,8,0xC08),
    DN(Cs6,8,0xC08),
    DN(F_5,8,0xC08),
    DN(Cs6,8,0xC08),
    DN(A_5,8,0xC08),
    DN(Cs6,8,0xC08),
    DN(Fs6,8,0xC08),
    DN(Cs6,8,0xC08),
    DN(Gs5,8,0xC08),
    DN(Cs6,8,0xC08),
    DN(A_5,8,0xC08),
    DN(Cs6,8,0xC08),
    DN(Fs5,8,0xC08),
    DN(Cs6,8,0xC08),
    DN(F_5,8,0xC08),
    DN(Cs6,8,0xC08),
    DN(A_5,8,0xC08),
    DN(Cs6,8,0xC08),
    DN(A_5,8,0xC08),
    DN(Fs5,8,0xC08),
    DN(D_6,8,0xC08),
    DN(B_5,8,0xC08),
    DN(Gs5,8,0xC08),
    DN(B_5,8,0xC08),
    DN(Gs5,8,0xC08),
    DN(E_5,8,0xC08),
    DN(E_6,8,0xC08),
    DN(B_5,8,0xC08),
    DN(Cs6,8,0xC08),
    DN(E_6,8,0xC08),
    DN(Cs6,8,0xC08),
    DN(A_5,8,0xC08),
    DN(E_5,8,0xC08),
    DN(Gs5,8,0xC08),
    DN(A_5,8,0xC08),
    DN(___,0,0x000),
    DN(___,0,0x000),
    DN(___,0,0x000),
    DN(___,0,0x000),
    DN(___,0,0x000),
    DN(___,0,0x000),
    DN(___,0,0x000),
    DN(___,0,0x000),
    DN(___,0,0x000),
    DN(___,0,0x000),
    DN(___,0,0x000),
    DN(___,0,0x000),
    DN(___,0,0x000),
    DN(___,0,0x000),
    DN(___,0,0x000),
    DN(___,0,0x000),
    DN(___,0,0x000),
    DN(___,0,0x000),
    DN(___,0,0x000),
    DN(___,0,0x000),
    DN(___,0,0x000),
};
const unsigned char P54[] = {
    DN(Fs4,6,0xC06),
    DN(___,0,0x000),
    DN(Fs5,6,0xC06),
    DN(___,0,0x000),
    DN(F_5,6,0xC06),
    DN(___,0,0x000),
    DN(Fs4,6,0xC06),
    DN(___,0,0x000),
    DN(A_4,6,0xC06),
    DN(___,0,0x000),
    DN(Cs5,6,0xC06),
    DN(___,0,0x000),
    DN(Fs5,6,0xC06),
    DN(___,0,0x000),
    DN(D_5,6,0xC06),
    DN(___,0,0x000),
    DN(Cs5,6,0xC06),
    DN(___,0,0x000),
    DN(Fs5,6,0xC06),
    DN(___,0,0x000),
    DN(A_4,6,0xC06),
    DN(___,0,0x000),
    DN(Cs5,6,0xC06),
    DN(___,0,0x000),
    DN(Fs4,6,0xC06),
    DN(___,0,0x000),
    DN(Fs5,6,0xC06),
    DN(___,0,0x000),
    DN(B_4,6,0xC06),
    DN(___,0,0x000),
    DN(E_4,6,0xC06),
    DN(___,0,0x000),
    DN(E_5,6,0xC06),
    DN(___,0,0x000),
    DN(Gs4,6,0xC06),
    DN(___,0,0x000),
    DN(A_4,6,0xC06),
    DN(___,0,0x000),
    DN(Cs5,6,0xC06),
    DN(___,0,0x000),
    DN(Cs5,6,0xC06),
    DN(___,0,0x000),
    DN(A_4,6,0xC06),
    DN(___,0,0x000),
    DN(E_4,6,0xC06),
    DN(___,0,0x000),
    DN(A_3,6,0xC06),
    DN(___,0,0x000),
    DN(___,0,0x000),
    DN(___,0,0x000),
    DN(___,0,0x000),
    DN(___,0,0x000),
    DN(___,0,0x000),
    DN(___,0,0x000),
    DN(___,0,0x000),
    DN(___,0,0x000),
    DN(___,0,0x000),
    DN(___,0,0x000),
    DN(___,0,0x000),
    DN(___,0,0x000),
    DN(___,0,0x000),
    DN(___,0,0x000),
    DN(___,0,0x000),
    DN(___,0,0x000),
};
const unsigned char P55[] = {
    DN(Cs5,6,0xC06),
    DN(E_5,6,0xC06),
    DN(A_5,6,0xC06),
    DN(E_5,6,0xC06),
    DN(B_4,6,0xC06),
    DN(E_5,6,0xC06),
    DN(Cs5,6,0xC06),
    DN(E_5,6,0xC06),
    DN(A_4,6,0xC06),
    DN(E_5,6,0xC06),
    DN(Gs4,6,0xC06),
    DN(E_5,6,0xC06),
    DN(Cs5,6,0xC06),
    DN(E_5,6,0xC06),
    DN(A_5,6,0xC06),
    DN(E_5,6,0xC06),
    DN(B_4,6,0xC06),
    DN(E_5,6,0xC06),
    DN(Cs5,6,0xC06),
    DN(E_5,6,0xC06),
    DN(A_4,6,0xC06),
    DN(E_5,6,0xC06),
    DN(Gs4,6,0xC06),
    DN(E_5,6,0xC06),
    DN(A_4,6,0xC06),
    DN(Cs5,6,0xC06),
    DN(A_4,6,0xC06),
    DN(Fs4,6,0xC06),
    DN(Fs5,6,0xC06),
    DN(Ds5,6,0xC06),
    DN(C_5,6,0xC06),
    DN(Ds5,6,0xC06),
    DN(Gs4,6,0xC06),
    DN(Ds5,6,0xC06),
    DN(C_5,6,0xC06),
    DN(Ds5,6,0xC06),
    DN(Cs5,6,0xC06),
    DN(___,0,0x000),
    DN(Gs5,6,0xC06),
    DN(___,0,0x000),
    DN(Gs4,6,0xC06),
    DN(___,0,0x000),
    DN(Cs5,6,0xC06),
    DN(E_5,6,0xC06),
    DN(Gs5,6,0xC06),
    DN(E_5,6,0xC06),
    DN(B_4,6,0xC06),
    DN(E_5,6,0xC06),
    DN(___,0,0x000),
    DN(___,0,0x000),
    DN(___,0,0x000),
    DN(___,0,0x000),
    DN(___,0,0x000),
    DN(___,0,0x000),
    DN(___,0,0x000),
    DN(___,0,0x000),
    DN(___,0,0x000),
    DN(___,0,0x000),
    DN(___,0,0x000),
    DN(___,0,0x000),
    DN(___,0,0x000),
    DN(___,0,0x000),
    DN(___,0,0x000),
    DN(___,0,0x000),
};
const unsigned char P56[] = {
    DN(E_6,8,0xC08),
    DN(D_6,8,0xC08),
    DN(Cs6,8,0xC08),
    DN(B_5,8,0xC08),
    DN(A_5,8,0xC08),
    DN(Gs5,8,0xC08),
    DN(A_5,8,0xC08),
    DN(B_5,8,0xC08),
    DN(Cs6,8,0xC08),
    DN(A_5,8,0xC08),
    DN(B_5,8,0xC08),
    DN(D_6,8,0xC08),
    DN(Cs6,8,0xC08),
    DN(D_6,8,0xC08),
    DN(E_6,8,0xC08),
    DN(___,0,0x000),
    DN(Gs5,8,0xC08),
    DN(___,0,0x000),
    DN(A_5,8,0xC08),
    DN(B_5,8,0xC08),
    DN(Cs6,8,0xC08),
    DN(___,0,0x000),
    DN(B_5,8,0xC08),
    DN(___,0,0x000),
    DN(Cs6,8,0xC08),
    DN(___,0,0x000),
    DN(Fs6,8,0xC08),
    DN(___,0,0x000),
    DN(Ds6,8,0xC08),
    DN(___,0,0x000),
    DN(Fs6,8,0xC08),
    DN(Gs6,8,0xC08),
    DN(A_6,8,0xC08),
    DN(___,0,0x000),
    DN(Gs6,8,0xC08),
    DN(___,0,0x000),
    DN(Fs6,8,0xC08),
    DN(E_6,8,0xC08),
    DN(Ds6,8,0xC08),
    DN(Cs6,8,0xC08),
    DN(Ds6,8,0xC08),
    DN(C_6,8,0xC08),
    DN(Cs6,8,0xC08),
    DN(___,0,0x000),
    DN(___,0,0x000),
    DN(___,0,0x000),
    DN(___,0,0x000),
    DN(___,0,0x000),
    DN(___,0,0x000),
    DN(___,0,0x000),
    DN(___,0,0x000),
    DN(___,0,0x000),
    DN(___,0,0x000),
    DN(___,0,0x000),
    DN(___,0,0x000),
    DN(___,0,0x000),
    DN(___,0,0x000),
    DN(___,0,0x000),
    DN(___,0,0x000),
    DN(___,0,0x000),
    DN(___,0,0x000),
    DN(___,0,0x000),
    DN(___,0,0x000),
    DN(___,0,0x000),
};
const unsigned char P57[] = {
    DN(As4,6,0xC06),
    DN(Cs5,6,0xC06),
    DN(Fs4,6,0xC06),
    DN(Cs5,6,0xC06),
    DN(___,0,0x000),
    DN(As4,6,0xC06),
    DN(Cs5,6,0xC06),
    DN(B_4,6,0xC06),
    DN(___,0,0x000),
    DN(___,0,0x000),
    DN(___,0,0x000),
    DN(___,0,0x000),
    DN(___,0,0x000),
    DN(C_5,6,0xC06),
    DN(Ds5,6,0xC06),
    DN(Gs4,6,0xC06),
    DN(Ds5,6,0xC06),
    DN(___,0,0x000),
    DN(C_5,6,0xC06),
    DN(Ds5,6,0xC06),
    DN(Cs5,6,0xC06),
    DN(___,0,0x000),
    DN(___,0,0x000),
    DN(___,0,0x000),
    DN(___,0,0x000),
    DN(___,0,0x000),
    DN(___,0,0x000),
    DN(___,0,0x000),
    DN(___,0,0x000),
    DN(___,0,0x000),
    DN(___,0,0x000),
    DN(___,0,0x000),
    DN(___,0,0x000),
    DN(___,0,0x000),
    DN(___,0,0x000),
    DN(___,0,0x000),
    DN(___,0,0x000),
    DN(___,0,0x000),
    DN(___,0,0x000),
    DN(___,0,0x000),
    DN(___,0,0x000),
    DN(___,0,0x000),
    DN(___,0,0x000),
    DN(___,0,0x000),
    DN(___,0,0x000),
    DN(___,0,0x000),
    DN(___,0,0x000),
    DN(___,0,0x000),
    DN(___,0,0x000),
    DN(___,0,0x000),
    DN(___,0,0x000),
    DN(___,0,0x000),
    DN(___,0,0x000),
    DN(___,0,0x000),
    DN(___,0,0x000),
    DN(___,0,0x000),
    DN(___,0,0x000),
    DN(___,0,0x000),
    DN(___,0,0x000),
    DN(___,0,0x000),
    DN(___,0,0x000),
    DN(___,0,0x000),
    DN(___,0,0x000),
    DN(___,0,0x000),
};
const unsigned char P58[] = {
    DN(E_6,8,0xC08),
    DN(___,0,0x000),
    DN(___,0,0x000),
    DN(Fs6,8,0xC08),
    DN(G_6,8,0xC08),
    DN(Fs6,8,0xC08),
    DN(___,0,0x000),
    DN(E_6,8,0xC08),
    DN(D_6,8,0xC08),
    DN(E_6,8,0xC08),
    DN(Cs6,8,0xC08),
    DN(D_6,8,0xC08),
    DN(B_5,8,0xC08),
    DN(Fs6,8,0xC08),
    DN(___,0,0x000),
    DN(___,0,0x000),
    DN(Gs6,8,0xC08),
    DN(A_6,8,0xC08),
    DN(Gs6,8,0xC08),
    DN(___,0,0x000),
    DN(Fs6,8,0xC08),
    DN(F_6,8,0xC08),
    DN(Fs6,8,0xC08),
    DN(Ds6,8,0xC08),
    DN(F_6,8,0xC08),
    DN(Cs6,8,0xC08),
    DN(___,0,0x000),
    DN(___,0,0x000),
    DN(___,0,0x000),
    DN(___,0,0x000),
    DN(___,0,0x000),
    DN(___,0,0x000),
    DN(___,0,0x000),
    DN(___,0,0x000),
    DN(___,0,0x000),
    DN(___,0,0x000),
    DN(___,0,0x000),
    DN(___,0,0x000),
    DN(___,0,0x000),
    DN(___,0,0x000),
    DN(___,0,0x000),
    DN(___,0,0x000),
    DN(___,0,0x000),
    DN(___,0,0x000),
    DN(___,0,0x000),
    DN(___,0,0x000),
    DN(___,0,0x000),
    DN(___,0,0x000),
    DN(___,0,0x000),
    DN(___,0,0x000),
    DN(___,0,0x000),
    DN(___,0,0x000),
    DN(___,0,0x000),
    DN(___,0,0x000),
    DN(___,0,0x000),
    DN(___,0,0x000),
    DN(___,0,0x000),
    DN(___,0,0x000),
    DN(___,0,0x000),
    DN(___,0,0x000),
    DN(___,0,0x000),
    DN(___,0,0x000),
    DN(___,0,0x000),
    DN(___,0,0x000),
};
const unsigned char P59[] = {
    DN(___,0,0xF0C),
    DN(___,0,0x000),
    DN(___,0,0x000),
    DN(___,0,0xF06),
    DN(___,0,0x000),
    DN(___,0,0xF0C),
    DN(___,0,0x000),
    DN(___,0,0x000),
    DN(___,0,0x000),
    DN(___,0,0x000),
    DN(___,0,0x000),
    DN(___,0,0x000),
    DN(___,0,0x000),
    DN(___,0,0x000),
    DN(___,0,0x000),
    DN(___,0,0x000),
    DN(___,0,0xF06),
    DN(___,0,0x000),
    DN(___,0,0xF0C),
    DN(___,0,0x000),
    DN(___,0,0x000),
    DN(___,0,0x000),
    DN(___,0,0x000),
    DN(___,0,0x000),
    DN(___,0,0x000),
    DN(___,0,0xD01),
    DN(___,0,0x000),
    DN(___,0,0x000),
    DN(___,0,0x000),
    DN(___,0,0x000),
    DN(___,0,0x000),
    DN(___,0,0x000),
    DN(___,0,0x000),
    DN(___,0,0x000),
    DN(___,0,0x000),
    DN(___,0,0x000),
    DN(___,0,0x000),
    DN(___,0,0x000),
    DN(___,0,0x000),
    DN(___,0,0x000),
    DN(___,0,0x000),
    DN(___,0,0x000),
    DN(___,0,0x000),
    DN(___,0,0x000),
    DN(___,0,0x000),
    DN(___,0,0x000),
    DN(___,0,0x000),
    DN(___,0,0x000),
    DN(___,0,0x000),
    DN(___,0,0x000),
    DN(___,0,0x000),
    DN(___,0,0x000),
    DN(___,0,0x000),
    DN(___,0,0x000),
    DN(___,0,0x000),
    DN(___,0,0x000),
    DN(___,0,0x000),
    DN(___,0,0x000),
    DN(___,0,0x000),
    DN(___,0,0x000),
    DN(___,0,0x000),
    DN(___,0,0x000),
    DN(___,0,0x000),
    DN(___,0,0x000),
};
const unsigned char P60[] = {
    DN(Cs5,6,0xC06),
    DN(___,0,0x000),
    DN(Gs4,6,0xC06),
    DN(___,0,0x000),
    DN(F_4,6,0xC06),
    DN(___,0,0x000),
    DN(Cs4,6,0xC06),
    DN(___,0,0x000),
    DN(Ds4,6,0xC06),
    DN(___,0,0x000),
    DN(F_4,6,0xC06),
    DN(___,0,0x000),
    DN(Fs4,6,0xC06),
    DN(___,0,0x000),
    DN(Cs5,6,0xC06),
    DN(___,0,0x000),
    DN(Fs5,6,0xC06),
    DN(___,0,0x000),
    DN(A_5,6,0xC06),
    DN(___,0,0x000),
    DN(Gs5,6,0xC06),
    DN(___,0,0x000),
    DN(Fs5,6,0xC06),
    DN(___,0,0x000),
    DN(B_4,6,0xC06),
    DN(___,0,0x000),
    DN(Cs5,6,0xC06),
    DN(___,0,0x000),
    DN(D_5,6,0xC06),
    DN(___,0,0x000),
    DN(A_4,6,0xC06),
    DN(___,0,0x000),
    DN(B_4,6,0xC06),
    DN(___,0,0x000),
    DN(Gs4,6,0xC06),
    DN(___,0,0x000),
    DN(A_4,6,0xC06),
    DN(___,0,0x000),
    DN(B_4,6,0xC06),
    DN(___,0,0x000),
    DN(Cs5,6,0xC06),
    DN(___,0,0x000),
    DN(Fs5,6,0xC06),
    DN(___,0,0x000),
    DN(___,0,0x000),
    DN(___,0,0x000),
    DN(Cs5,6,0xC06),
    DN(___,0,0x000),
    DN(___,0,0x000),
    DN(___,0,0x000),
    DN(Fs4,6,0xC06),
    DN(___,0,0x000),
    DN(___,0,0x000),
    DN(___,0,0x000),
    DN(___,0,0x000),
    DN(___,0,0x000),
    DN(___,0,0x000),
    DN(___,0,0x000),
    DN(___,0,0x000),
    DN(___,0,0x000),
    DN(___,0,0x000),
    DN(___,0,0x000),
    DN(___,0,0x000),
    DN(___,0,0x000),
};
const unsigned char P61[] = {
    DN(Gs6,8,0xC08),
    DN(F_6,8,0xC08),
    DN(Cs6,8,0xC08),
    DN(F_6,8,0xC08),
    DN(Gs6,8,0xC08),
    DN(B_6,8,0xC08),
    DN(D_7,8,0xC08),
    DN(Gs6,8,0xC08),
    DN(Cs7,8,0xC08),
    DN(Gs6,8,0xC08),
    DN(B_6,8,0xC08),
    DN(Gs6,8,0xC08),
    DN(A_6,8,0xC08),
    DN(Gs6,8,0xC08),
    DN(Fs6,8,0xC08),
    DN(A_6,8,0xC08),
    DN(Cs7,8,0xC08),
    DN(Fs7,8,0xC08),
    DN(Cs7,8,0xC08),
    DN(Fs6,8,0xC08),
    DN(B_6,8,0xC08),
    DN(Fs6,8,0xC08),
    DN(A_6,8,0xC08),
    DN(Fs6,8,0xC08),
    DN(Gs6,8,0xC08),
    DN(Fs6,8,0xC08),
    DN(A_6,8,0xC08),
    DN(Fs6,8,0xC08),
    DN(B_6,8,0xC08),
    DN(Fs6,8,0xC08),
    DN(Cs7,8,0xC08),
    DN(Fs6,8,0xC08),
    DN(D_7,8,0xC08),
    DN(Fs6,8,0xC08),
    DN(B_6,8,0xC08),
    DN(Fs6,8,0xC08),
    DN(Cs7,8,0xC08),
    DN(___,8,0xC08),
    DN(B_6,8,0xC08),
    DN(A_6,8,0xC08),
    DN(Gs6,8,0xC08),
    DN(A_6,8,0xC08),
    DN(Fs6,8,0xC08),
    DN(Gs6,8,0xC08),
    DN(Fs6,8,0xC08),
    DN(___,0,0x000),
    DN(___,0,0x000),
    DN(___,0,0x000),
    DN(___,0,0x000),
    DN(___,0,0x000),
    DN(___,0,0x000),
    DN(___,0,0x000),
    DN(___,0,0x000),
    DN(___,0,0x000),
    DN(___,0,0x000),
    DN(___,0,0x000),
    DN(___,0,0x000),
    DN(___,0,0x000),
    DN(___,0,0x000),
    DN(___,0,0x000),
    DN(___,0,0x000),
    DN(___,0,0x000),
    DN(___,0,0x000),
    DN(___,0,0x000),
};
const unsigned char P62[] = {
    DN(___,0,0xF0C),
    DN(___,0,0x000),
    DN(___,0,0x000),
    DN(___,0,0x000),
    DN(___,0,0x000),
    DN(___,0,0x000),
    DN(___,0,0x000),
    DN(___,0,0x000),
    DN(___,0,0x000),
    DN(___,0,0x000),
    DN(___,0,0x000),
    DN(___,0,0x000),
    DN(___,0,0x000),
    DN(___,0,0x000),
    DN(___,0,0x000),
    DN(___,0,0x000),
    DN(___,0,0x000),
    DN(___,0,0x000),
    DN(___,0,0x000),
    DN(___,0,0x000),
    DN(___,0,0x000),
    DN(___,0,0x000),
    DN(___,0,0x000),
    DN(___,0,0x000),
    DN(___,0,0x000),
    DN(___,0,0x000),
    DN(___,0,0x000),
    DN(___,0,0x000),
    DN(___,0,0x000),
    DN(___,0,0x000),
    DN(___,0,0x000),
    DN(___,0,0x000),
    DN(___,0,0x000),
    DN(___,0,0x000),
    DN(___,0,0x000),
    DN(___,0,0x000),
    DN(___,0,0x000),
    DN(___,0,0x000),
    DN(___,0,0x000),
    DN(___,0,0x000),
    DN(___,0,0x000),
    DN(___,0,0x000),
    DN(___,0,0xF06),
    DN(___,0,0x000),
    DN(___,0,0x000),
    DN(___,0,0x000),
    DN(___,0,0x000),
    DN(___,0,0x000),
    DN(___,0,0x000),
    DN(___,0,0x000),
    DN(___,0,0x000),
    DN(___,0,0x000),
    DN(___,0,0x000),
    DN(___,0,0xD01),
    DN(___,0,0x000),
    DN(___,0,0x000),
    DN(___,0,0x000),
    DN(___,0,0x000),
    DN(___,0,0x000),
    DN(___,0,0x000),
    DN(___,0,0x000),
    DN(___,0,0x000),
    DN(___,0,0x000),
    DN(___,0,0x000),
};
const unsigned char P63[] = {
    DN(Fs5,6,0xC06),
    DN(___,0,0x000),
    DN(___,0,0x000),
    DN(___,0,0x000),
    DN(___,0,0x000),
    DN(___,0,0x000),
    DN(As4,6,0xC06),
    DN(___,0,0x000),
    DN(___,0,0x000),
    DN(___,0,0x000),
    DN(___,0,0x000),
    DN(___,0,0x000),
    DN(___,0,0x000),
    DN(B_4,6,0xC06),
    DN(___,0,0x000),
    DN(E_4,6,0xC06),
    DN(___,0,0x000),
    DN(Fs5,6,0xC06),
    DN(___,0,0x000),
    DN(B_3,6,0xC06),
    DN(___,0,0x000),
    DN(Fs4,6,0xC06),
    DN(___,0,0x000),
    DN(B_4,6,0xC06),
    DN(___,0,0x000),
    DN(D_5,6,0xC06),
    DN(___,0,0x000),
    DN(B_5,6,0xC06),
    DN(___,0,0x000),
    DN(A_5,6,0xC06),
    DN(___,0,0x000),
    DN(F_4,6,0xC06),
    DN(___,0,0x000),
    DN(___,0,0x000),
    DN(___,0,0x000),
    DN(___,0,0x000),
    DN(___,0,0x000),
    DN(___,0,0x000),
    DN(Fs4,6,0xC06),
    DN(___,0,0x000),
    DN(E_4,6,0xC06),
    DN(___,0,0x000),
    DN(D_4,6,0xC06),
    DN(___,0,0x000),
    DN(Cs4,6,0xC06),
    DN(___,0,0x000),
    DN(___,0,0x000),
    DN(___,0,0x000),
    DN(___,0,0x000),
    DN(___,0,0x000),
    DN(___,0,0x000),
    DN(___,0,0x000),
    DN(___,0,0x000),
    DN(___,0,0x000),
    DN(___,0,0x000),
    DN(___,0,0x000),
    DN(___,0,0x000),
    DN(___,0,0x000),
    DN(___,0,0x000),
    DN(___,0,0x000),
    DN(___,0,0x000),
    DN(___,0,0x000),
    DN(___,0,0x000),
    DN(___,0,0x000),
};
const unsigned char P64[] = {
    DN(Cs6,8,0xC08),
    DN(D_6,8,0xC08),
    DN(E_6,8,0xC08),
    DN(___,0,0x000),
    DN(D_6,8,0xC08),
    DN(___,0,0x000),
    DN(E_6,8,0xC08),
    DN(Fs6,8,0xC08),
    DN(G_6,8,0xC08),
    DN(Fs6,8,0xC08),
    DN(___,0,0x000),
    DN(E_6,8,0xC08),
    DN(___,0,0x000),
    DN(D_6,8,0xC08),
    DN(___,0,0x000),
    DN(Fs6,8,0xC08),
    DN(E_6,8,0xC08),
    DN(D_6,8,0xC08),
    DN(Cs6,8,0xC08),
    DN(E_6,8,0xC08),
    DN(D_6,8,0xC08),
    DN(Cs6,8,0xC08),
    DN(D_6,8,0xC08),
    DN(B_5,8,0xC08),
    DN(D_6,8,0xC08),
    DN(F_6,8,0xC08),
    DN(Fs6,8,0xC08),
    DN(Gs6,8,0xC08),
    DN(F_6,8,0xC08),
    DN(Fs6,8,0xC08),
    DN(A_6,8,0xC08),
    DN(B_6,8,0xC08),
    DN(Cs7,8,0xC08),
    DN(D_7,8,0xC08),
    DN(Cs7,8,0xC08),
    DN(___,0,0x000),
    DN(___,0,0x000),
    DN(B_6,8,0xC08),
    DN(A_6,8,0xC08),
    DN(Gs6,8,0xC08),
    DN(B_6,8,0xC08),
    DN(A_6,8,0xC08),
    DN(Gs6,8,0xC08),
    DN(Fs6,8,0xC08),
    DN(Cs7,8,0xC08),
    DN(___,0,0x000),
    DN(___,0,0x000),
    DN(___,0,0x000),
    DN(___,0,0x000),
    DN(___,0,0x000),
    DN(___,0,0x000),
    DN(___,0,0x000),
    DN(___,0,0x000),
    DN(___,0,0x000),
    DN(___,0,0x000),
    DN(___,0,0x000),
    DN(___,0,0x000),
    DN(___,0,0x000),
    DN(___,0,0x000),
    DN(___,0,0x000),
    DN(___,0,0x000),
    DN(___,0,0x000),
    DN(___,0,0x000),
    DN(___,0,0x000),
};
const unsigned char P65[] = {
    DN(A_6,4,0xC06),
    DN(___,0,0xC03),
    DN(As6,4,0xC06),
    DN(___,0,0xC03),
    DN(B_6,4,0xC06),
    DN(___,0,0xC03),
    DN(Cs7,4,0xC06),
    DN(___,0,0xC03),
    DN(___,0,0xC01),
    DN(___,0,0xC00),
    DN(___,0,0x000),
    DN(___,0,0x000),
    DN(___,0,0x000),
    DN(B_6,4,0xC06),
    DN(___,0,0xC03),
    DN(___,0,0xC00),
    DN(___,0,0x000),
    DN(As6,4,0xC06),
    DN(___,0,0xC03),
    DN(B_6,4,0xC06),
    DN(___,0,0xC03),
    DN(___,0,0xC00),
    DN(___,0,0x000),
    DN(___,0,0x000),
    DN(___,0,0x000),
    DN(___,0,0x000),
    DN(___,0,0x000),
    DN(___,0,0x000),
    DN(___,0,0x000),
    DN(___,0,0x000),
    DN(___,0,0x000),
    DN(___,0,0x000),
    DN(___,0,0x000),
    DN(___,0,0x000),
    DN(___,0,0x000),
    DN(Gs7,4,0xC06),
    DN(Cs7,4,0xC06),
    DN(___,0,0xC03),
    DN(___,0,0xC00),
    DN(___,0,0x000),
    DN(___,0,0x000),
    DN(___,0,0x000),
    DN(___,0,0x000),
    DN(___,0,0x000),
    DN(F_7,2,0xC06),
    DN(___,0,0xC03),
    DN(___,0,0xC00),
    DN(___,0,0x000),
    DN(___,0,0x000),
    DN(___,0,0x000),
    DN(___,0,0x000),
    DN(___,0,0x000),
    DN(___,0,0x000),
    DN(___,0,0x000),
    DN(___,0,0x000),
    DN(___,0,0x000),
    DN(___,0,0x000),
    DN(___,0,0x000),
    DN(___,0,0x000),
    DN(___,0,0x000),
    DN(___,0,0x000),
    DN(___,0,0x000),
    DN(___,0,0x000),
    DN(___,0,0x000),
};
const unsigned char P66[] = {
    DN(___,0,0xF0C),
    DN(___,0,0x000),
    DN(___,0,0x000),
    DN(___,0,0x000),
    DN(___,0,0x000),
    DN(___,0,0x000),
    DN(___,0,0xF06),
    DN(___,0,0x000),
    DN(___,0,0xF0C),
    DN(___,0,0x000),
    DN(___,0,0x000),
    DN(___,0,0x000),
    DN(___,0,0x000),
    DN(___,0,0x000),
    DN(___,0,0x000),
    DN(___,0,0x000),
    DN(___,0,0x000),
    DN(___,0,0x000),
    DN(___,0,0x000),
    DN(___,0,0x000),
    DN(___,0,0x000),
    DN(___,0,0x000),
    DN(___,0,0x000),
    DN(___,0,0x000),
    DN(___,0,0x000),
    DN(___,0,0x000),
    DN(___,0,0x000),
    DN(___,0,0x000),
    DN(___,0,0x000),
    DN(___,0,0x000),
    DN(___,0,0x000),
    DN(___,0,0xF06),
    DN(___,0,0x000),
    DN(___,0,0xF0C),
    DN(___,0,0x000),
    DN(___,0,0x000),
    DN(___,0,0x000),
    DN(___,0,0x000),
    DN(___,0,0x000),
    DN(___,0,0x000),
    DN(___,0,0x000),
    DN(___,0,0x000),
    DN(___,0,0x000),
    DN(___,0,0x000),
    DN(___,0,0x000),
    DN(___,0,0x000),
    DN(___,0,0x000),
    DN(___,0,0x000),
    DN(___,0,0x000),
    DN(___,0,0xD01),
    DN(___,0,0x000),
    DN(___,0,0x000),
    DN(___,0,0x000),
    DN(___,0,0x000),
    DN(___,0,0x000),
    DN(___,0,0x000),
    DN(___,0,0x000),
    DN(___,0,0x000),
    DN(___,0,0x000),
    DN(___,0,0x000),
    DN(___,0,0x000),
    DN(___,0,0x000),
    DN(___,0,0x000),
    DN(___,0,0x000),
};
const unsigned char P67[] = {
    DN(Cs5,6,0xC06),
    DN(Ds5,6,0xC06),
    DN(E_5,6,0xC06),
    DN(___,0,0x000),
    DN(Ds5,6,0xC06),
    DN(___,0,0x000),
    DN(G_5,6,0xC06),
    DN(___,0,0x000),
    DN(Fs5,6,0xC06),
    DN(___,0,0x000),
    DN(E_5,6,0xC06),
    DN(___,0,0x000),
    DN(D_5,6,0xC06),
    DN(Cs5,6,0xC06),
    DN(E_5,6,0xC06),
    DN(___,0,0x000),
    DN(D_5,6,0xC06),
    DN(Cs5,6,0xC06),
    DN(B_4,6,0xC06),
    DN(E_5,6,0xC06),
    DN(___,0,0x000),
    DN(B_5,6,0xC06),
    DN(___,0,0x000),
    DN(D_6,6,0xC06),
    DN(___,0,0x000),
    DN(Cs6,6,0xC06),
    DN(D_6,6,0xC06),
    DN(E_6,6,0xC06),
    DN(___,0,0x000),
    DN(D_6,6,0xC06),
    DN(___,0,0x000),
    DN(___,0,0x000),
    DN(___,0,0x000),
    DN(Cs6,6,0xC06),
    DN(___,0,0x000),
    DN(B_5,6,0xC06),
    DN(___,0,0x000),
    DN(A_5,6,0xC06),
    DN(___,0,0x000),
    DN(D_5,6,0xC06),
    DN(___,0,0x000),
    DN(E_5,6,0xC06),
    DN(___,0,0x000),
    DN(A_4,6,0xC06),
    DN(___,0,0x000),
    DN(___,0,0x000),
    DN(E_4,6,0xC06),
    DN(___,0,0x000),
    DN(A_3,6,0xC06),
    DN(___,0,0x000),
    DN(___,0,0x000),
    DN(___,0,0x000),
    DN(___,0,0x000),
    DN(___,0,0x000),
    DN(___,0,0x000),
    DN(___,0,0x000),
    DN(___,0,0x000),
    DN(___,0,0x000),
    DN(___,0,0x000),
    DN(___,0,0x000),
    DN(___,0,0x000),
    DN(___,0,0x000),
    DN(___,0,0x000),
    DN(___,0,0x000),
};
const unsigned char P68[] = {
    DN(E_7,8,0xC08),
    DN(___,0,0x000),
    DN(Cs7,8,0xC08),
    DN(___,0,0x000),
    DN(B_6,8,0xC08),
    DN(___,0,0x000),
    DN(Fs6,8,0xC08),
    DN(E_6,8,0xC08),
    DN(E_6,8,0xC08),
    DN(Ds6,8,0xC08),
    DN(Ds6,8,0xC08),
    DN(Cs6,8,0xC08),
    DN(B_6,8,0xC08),
    DN(___,0,0x000),
    DN(Cs7,8,0xC08),
    DN(D_7,8,0xC08),
    DN(Cs7,8,0xC08),
    DN(D_7,8,0xC08),
    DN(___,0,0x000),
    DN(Gs6,8,0xC08),
    DN(Fs6,8,0xC08),
    DN(A_6,8,0xC08),
    DN(Gs6,8,0xC08),
    DN(Fs6,8,0xC08),
    DN(E_6,8,0xC08),
    DN(A_6,8,0xC08),
    DN(B_6,8,0xC08),
    DN(Cs7,8,0xC08),
    DN(A_6,8,0xC08),
    DN(B_6,8,0xC08),
    DN(D_7,8,0xC08),
    DN(Fs7,8,0xC08),
    DN(___,0,0x000),
    DN(E_7,8,0xC08),
    DN(___,0,0x000),
    DN(D_7,8,0xC08),
    DN(___,0,0x000),
    DN(Cs7,8,0xC08),
    DN(B_6,8,0xC08),
    DN(D_7,8,0xC08),
    DN(Cs7,8,0xC08),
    DN(B_6,8,0xC08),
    DN(Cs7,8,0xC08),
    DN(A_6,8,0xC08),
    DN(B_6,8,0xC08),
    DN(A_6,8,0xC08),
    DN(___,0,0x000),
    DN(___,0,0x000),
    DN(___,0,0x000),
    DN(___,0,0x000),
    DN(___,0,0x000),
    DN(___,0,0x000),
    DN(___,0,0x000),
    DN(___,0,0x000),
    DN(___,0,0x000),
    DN(___,0,0x000),
    DN(___,0,0x000),
    DN(___,0,0x000),
    DN(___,0,0x000),
    DN(___,0,0x000),
    DN(___,0,0x000),
    DN(___,0,0x000),
    DN(___,0,0x000),
    DN(___,0,0x000),
};
const unsigned char P69[] = {
    DN(Gs7,4,0xC06),
    DN(___,0,0xC03),
    DN(G_7,4,0xC06),
    DN(___,0,0xC03),
    DN(Fs7,4,0xC06),
    DN(___,0,0xC03),
    DN(As7,4,0xC08),
    DN(___,0,0xC04),
    DN(___,0,0xC00),
    DN(___,0,0x000),
    DN(___,0,0x000),
    DN(___,0,0x000),
    DN(Fs7,4,0xC06),
    DN(___,0,0xC03),
    DN(___,0,0xC00),
    DN(___,0,0x000),
    DN(___,0,0x000),
    DN(___,0,0x000),
    DN(___,0,0x000),
    DN(___,0,0x000),
    DN(___,0,0x000),
    DN(___,0,0x000),
    DN(___,0,0x000),
    DN(___,0,0x000),
    DN(___,0,0x000),
    DN(___,0,0x000),
    DN(___,0,0x000),
    DN(___,0,0x000),
    DN(___,0,0x000),
    DN(___,0,0x000),
    DN(___,0,0x000),
    DN(___,0,0x000),
    DN(___,0,0x000),
    DN(___,0,0x000),
    DN(___,0,0x000),
    DN(___,0,0x000),
    DN(___,0,0x000),
    DN(___,0,0x000),
    DN(___,0,0x000),
    DN(A_7,4,0xC06),
    DN(___,0,0xC03),
    DN(Gs7,4,0xC06),
    DN(___,0,0xC03),
    DN(___,0,0xC00),
    DN(___,0,0x000),
    DN(___,0,0x000),
    DN(___,0,0x000),
    DN(___,0,0x000),
    DN(___,0,0x000),
    DN(___,0,0x000),
    DN(___,0,0x000),
    DN(___,0,0x000),
    DN(___,0,0x000),
    DN(___,0,0x000),
    DN(___,0,0x000),
    DN(___,0,0x000),
    DN(___,0,0x000),
    DN(___,0,0x000),
    DN(___,0,0x000),
    DN(___,0,0x000),
    DN(___,0,0x000),
    DN(___,0,0x000),
    DN(___,0,0x000),
    DN(___,0,0x000),
};
const unsigned char P70[] = {
    DN(___,0,0xF0C),
    DN(___,0,0x000),
    DN(___,0,0x000),
    DN(___,0,0x000),
    DN(___,0,0x000),
    DN(___,0,0x000),
    DN(___,0,0x000),
    DN(___,0,0x000),
    DN(___,0,0x000),
    DN(___,0,0x000),
    DN(___,0,0x000),
    DN(___,0,0x000),
    DN(___,0,0x000),
    DN(___,0,0x000),
    DN(___,0,0xF06),
    DN(___,0,0x000),
    DN(___,0,0xF0C),
    DN(___,0,0x000),
    DN(___,0,0x000),
    DN(___,0,0x000),
    DN(___,0,0x000),
    DN(___,0,0x000),
    DN(___,0,0x000),
    DN(___,0,0x000),
    DN(___,0,0x000),
    DN(___,0,0x000),
    DN(___,0,0x000),
    DN(___,0,0x000),
    DN(___,0,0x000),
    DN(___,0,0x000),
    DN(___,0,0x000),
    DN(___,0,0x000),
    DN(___,0,0x000),
    DN(___,0,0x000),
    DN(___,0,0x000),
    DN(___,0,0x000),
    DN(___,0,0x000),
    DN(___,0,0x000),
    DN(___,0,0x000),
    DN(___,0,0x000),
    DN(___,0,0x000),
    DN(___,0,0x000),
    DN(___,0,0x000),
    DN(___,0,0xF06),
    DN(___,0,0x000),
    DN(___,0,0xF0C),
    DN(___,0,0x000),
    DN(___,0,0x000),
    DN(___,0,0x000),
    DN(___,0,0xD01),
    DN(___,0,0x000),
    DN(___,0,0x000),
    DN(___,0,0x000),
    DN(___,0,0x000),
    DN(___,0,0x000),
    DN(___,0,0x000),
    DN(___,0,0x000),
    DN(___,0,0x000),
    DN(___,0,0x000),
    DN(___,0,0x000),
    DN(___,0,0x000),
    DN(___,0,0x000),
    DN(___,0,0x000),
    DN(___,0,0x000),
};
const unsigned char P71[] = {
    DN(A_4,6,0xC06),
    DN(B_4,6,0xC06),
    DN(Cs5,6,0xC06),
    DN(B_4,6,0xC06),
    DN(Cs5,6,0xC06),
    DN(D_5,6,0xC06),
    DN(E_5,6,0xC06),
    DN(___,0,0x000),
    DN(Fs5,6,0xC06),
    DN(Gs5,6,0xC06),
    DN(Fs5,6,0xC06),
    DN(F_5,6,0xC06),
    DN(Gs5,6,0xC06),
    DN(A_4,6,0xC06),
    DN(___,0,0x000),
    DN(D_5,6,0xC06),
    DN(___,0,0x000),
    DN(B_4,6,0xC06),
    DN(___,0,0x000),
    DN(Cs5,6,0xC06),
    DN(___,0,0x000),
    DN(Fs5,6,0xC06),
    DN(___,0,0x000),
    DN(F_5,6,0xC06),
    DN(___,0,0x000),
    DN(Cs5,6,0xC06),
    DN(Fs5,6,0xC06),
    DN(Gs5,6,0xC06),
    DN(F_5,6,0xC06),
    DN(Fs5,6,0xC06),
    DN(A_5,6,0xC06),
    DN(B_5,6,0xC06),
    DN(___,0,0x000),
    DN(A_5,6,0xC06),
    DN(___,0,0x000),
    DN(Gs5,6,0xC06),
    DN(___,0,0x000),
    DN(Fs5,6,0xC06),
    DN(___,0,0x000),
    DN(B_4,6,0xC06),
    DN(___,0,0x000),
    DN(Cs5,6,0xC06),
    DN(___,0,0x000),
    DN(Fs4,6,0xC06),
    DN(___,0,0x000),
    DN(___,0,0x000),
    DN(___,0,0x000),
    DN(___,0,0x000),
    DN(___,0,0x000),
    DN(___,0,0x000),
    DN(___,0,0x000),
    DN(___,0,0x000),
    DN(___,0,0x000),
    DN(___,0,0x000),
    DN(___,0,0x000),
    DN(___,0,0x000),
    DN(___,0,0x000),
    DN(___,0,0x000),
    DN(___,0,0x000),
    DN(___,0,0x000),
    DN(___,0,0x000),
    DN(___,0,0x000),
    DN(___,0,0x000),
    DN(___,0,0x000),
};
const unsigned char P72[] = {
    DN(E_7,8,0xC08),
    DN(D_7,8,0xC08),
    DN(Cs7,8,0xC08),
    DN(___,0,0x000),
    DN(D_7,8,0xC08),
    DN(___,0,0x000),
    DN(B_6,8,0xC08),
    DN(Cs7,8,0xC08),
    DN(B_6,8,0xC08),
    DN(Cs7,8,0xC08),
    DN(___,0,0x000),
    DN(D_7,8,0xC08),
    DN(___,0,0x000),
    DN(Cs7,8,0xC08),
    DN(___,0,0x000),
    DN(B_6,8,0xC08),
    DN(A_6,8,0xC08),
    DN(Gs6,8,0xC08),
    DN(___,0,0x000),
    DN(Fs6,8,0xC08),
    DN(F_6,8,0xC08),
    DN(Ds6,8,0xC08),
    DN(F_6,8,0xC08),
    DN(Cs6,8,0xC08),
    DN(F_6,8,0xC08),
    DN(Gs6,8,0xC08),
    DN(A_6,8,0xC08),
    DN(B_6,8,0xC08),
    DN(Gs6,8,0xC08),
    DN(A_6,8,0xC08),
    DN(Cs7,8,0xC08),
    DN(D_7,8,0xC08),
    DN(___,0,0x000),
    DN(Cs7,8,0xC08),
    DN(___,0,0x000),
    DN(B_6,8,0xC08),
    DN(___,0,0x000),
    DN(A_6,8,0xC08),
    DN(Gs6,8,0xC08),
    DN(B_6,8,0xC08),
    DN(A_6,8,0xC08),
    DN(Gs6,8,0xC08),
    DN(A_6,8,0xC08),
    DN(Fs6,8,0xC08),
    DN(Gs6,8,0xC08),
    DN(Fs6,8,0xC08),
    DN(___,0,0x000),
    DN(___,0,0x000),
    DN(___,0,0x000),
    DN(___,0,0x000),
    DN(___,0,0x000),
    DN(___,0,0x000),
    DN(___,0,0x000),
    DN(___,0,0x000),
    DN(___,0,0x000),
    DN(___,0,0x000),
    DN(___,0,0x000),
    DN(___,0,0x000),
    DN(___,0,0x000),
    DN(___,0,0x000),
    DN(___,0,0x000),
    DN(___,0,0x000),
    DN(___,0,0x000),
    DN(___,0,0x000),
};
const unsigned char P73[] = {
    DN(Cs8,4,0xC06),
    DN(B_7,4,0xC06),
    DN(A_7,4,0xC06),
    DN(___,0,0xC03),
    DN(B_7,4,0xC06),
    DN(___,0,0xC03),
    DN(Gs7,4,0xC06),
    DN(___,0,0xC05),
    DN(___,0,0xC03),
    DN(A_7,4,0xC06),
    DN(___,0,0xC03),
    DN(B_7,4,0xC06),
    DN(___,0,0xC03),
    DN(___,0,0xC01),
    DN(A_7,4,0xC06),
    DN(Gs7,4,0xC06),
    DN(Fs7,4,0xC06),
    DN(F_7,4,0xC06),
    DN(Fs7,4,0xC08),
    DN(___,0,0xC03),
    DN(___,0,0xC00),
    DN(___,0,0x000),
    DN(___,0,0x000),
    DN(___,0,0x000),
    DN(___,0,0x000),
    DN(___,0,0x000),
    DN(___,0,0x000),
    DN(___,0,0x000),
    DN(___,0,0x000),
    DN(___,0,0x000),
    DN(___,0,0x000),
    DN(___,0,0x000),
    DN(___,0,0x000),
    DN(Ds6,2,0xC05),
    DN(___,0,0xC03),
    DN(F_6,2,0xC05),
    DN(___,0,0xC03),
    DN(Fs6,2,0xC05),
    DN(___,0,0xC03),
    DN(Fs7,4,0xC06),
    DN(___,0,0xC03),
    DN(F_7,4,0xC06),
    DN(___,0,0xC03),
    DN(___,0,0xC00),
    DN(___,0,0x000),
    DN(___,0,0x000),
    DN(___,0,0x000),
    DN(___,0,0x000),
    DN(___,0,0x000),
    DN(___,0,0x000),
    DN(___,0,0x000),
    DN(___,0,0x000),
    DN(___,0,0x000),
    DN(___,0,0x000),
    DN(___,0,0x000),
    DN(___,0,0x000),
    DN(___,0,0x000),
    DN(___,0,0x000),
    DN(___,0,0x000),
    DN(___,0,0x000),
    DN(___,0,0x000),
    DN(___,0,0x000),
    DN(___,0,0x000),
    DN(___,0,0x000),
};
const unsigned char P74[] = {
    DN(___,0,0xF0C),
    DN(___,0,0x000),
    DN(___,0,0x000),
    DN(___,0,0x000),
    DN(___,0,0x000),
    DN(___,0,0x000),
    DN(___,0,0xF06),
    DN(___,0,0x000),
    DN(___,0,0xF0C),
    DN(___,0,0x000),
    DN(___,0,0x000),
    DN(___,0,0x000),
    DN(___,0,0x000),
    DN(___,0,0x000),
    DN(___,0,0x000),
    DN(___,0,0x000),
    DN(___,0,0x000),
    DN(___,0,0x000),
    DN(___,0,0x000),
    DN(___,0,0x000),
    DN(___,0,0x000),
    DN(___,0,0x000),
    DN(___,0,0x000),
    DN(___,0,0x000),
    DN(___,0,0x000),
    DN(___,0,0x000),
    DN(___,0,0x000),
    DN(___,0,0x000),
    DN(___,0,0x000),
    DN(___,0,0x000),
    DN(___,0,0x000),
    DN(___,0,0x000),
    DN(___,0,0x000),
    DN(___,0,0x000),
    DN(___,0,0x000),
    DN(___,0,0x000),
    DN(___,0,0x000),
    DN(___,0,0x000),
    DN(___,0,0x000),
    DN(___,0,0x000),
    DN(___,0,0x000),
    DN(___,0,0x000),
    DN(___,0,0x000),
    DN(___,0,0xF06),
    DN(___,0,0x000),
    DN(___,0,0x000),
    DN(___,0,0x000),
    DN(___,0,0x000),
    DN(___,0,0x000),
    DN(___,0,0x000),
    DN(___,0,0x000),
    DN(___,0,0x000),
    DN(___,0,0x000),
    DN(___,0,0x000),
    DN(___,0,0xD01),
    DN(___,0,0x000),
    DN(___,0,0x000),
    DN(___,0,0x000),
    DN(___,0,0x000),
    DN(___,0,0x000),
    DN(___,0,0x000),
    DN(___,0,0x000),
    DN(___,0,0x000),
    DN(___,0,0x000),
};
const unsigned char P75[] = {
    DN(___,0,0xF0C),
    DN(___,0,0x000),
    DN(___,0,0x000),
    DN(___,0,0x000),
    DN(___,0,0x000),
    DN(___,0,0x000),
    DN(___,0,0xF06),
    DN(___,0,0x000),
    DN(___,0,0xF0C),
    DN(___,0,0x000),
    DN(___,0,0x000),
    DN(___,0,0x000),
    DN(___,0,0x000),
    DN(___,0,0x000),
    DN(___,0,0x000),
    DN(___,0,0x000),
    DN(___,0,0x000),
    DN(___,0,0x000),
    DN(___,0,0x000),
    DN(___,0,0x000),
    DN(___,0,0x000),
    DN(___,0,0x000),
    DN(___,0,0x000),
    DN(___,0,0x000),
    DN(___,0,0x000),
    DN(___,0,0x000),
    DN(___,0,0x000),
    DN(___,0,0x000),
    DN(___,0,0x000),
    DN(___,0,0x000),
    DN(___,0,0x000),
    DN(___,0,0x000),
    DN(___,0,0x000),
    DN(___,0,0x000),
    DN(___,0,0x000),
    DN(___,0,0x000),
    DN(___,0,0x000),
    DN(___,0,0x000),
    DN(___,0,0x000),
    DN(___,0,0x000),
    DN(___,0,0x000),
    DN(___,0,0x000),
    DN(___,0,0x000),
    DN(___,0,0xF06),
    DN(___,0,0x000),
    DN(___,0,0x000),
    DN(___,0,0x000),
    DN(___,0,0x000),
    DN(___,0,0x000),
    DN(___,0,0x000),
    DN(___,0,0x000),
    DN(___,0,0x000),
    DN(___,0,0x000),
    DN(___,0,0x000),
    DN(___,0,0xB14),
    DN(___,0,0x000),
    DN(___,0,0x000),
    DN(___,0,0x000),
    DN(___,0,0x000),
    DN(___,0,0x000),
    DN(___,0,0x000),
    DN(___,0,0x000),
    DN(___,0,0x000),
    DN(___,0,0x000),
};

